{
copyright = "~";
customParameters = (
{
name = glyphOrder;
value = (
    knA,
    knAA,
    knI,
    knII,
    knU,
    knUU,
    knvR,
    knvL,
    knE,
    knEE,
    knAI,
    knO,
    knOO,
    knAU,
    knmAA,
    knmI,
    knmII,
    knLengthmark,
    knmU,
    knmUU,
    knmE,
    knmEE,
    knmO,
    knmOO,
    knmAU,
    knKA,
    knKHA,
    knGA,
    knGHA,
    knNGA,
    knCA,
    knCHA,
    knJA,
    knJHA,
    knNYA,
    knTTA,
    knTTHA,
    knDDA,
    knDDHA,
    knNNA,
    knTA,
    knTHA,
    knDA,
    knDHA,
    knNA,
    knPA,
    knPHA,
    knBA,
    knBHA,
    knMA,
    knYA,
    knRA,
    knLA,
    knVA,
    knSHA,
    knSSA,
    knSA,
    knHA,
    knRRA,
    knLLA,
    knLLLA,
    knVisarga,
    knVirama,
    knNukta,
    knKAc2,
    knKHAc2,
    knGAc2,
    knGHAc2,
    knNGAc2,
    knCAc2,
    knCHAc2,
    knJAc2,
    knJHAc2,
    knNYAc2,
    knTTAc2,
    knTTHAc2,
    knDDAc2,
    knDDHAc2,
    knNNAc2,
    knTAc2,
    knTHAc2,
    knDAc2,
    knDHAc2,
    knNAc2,
    knPAc2,
    knPHAc2,
    knBAc2,
    knBHAc2,
    knMAc2,
    knYAc2,
    knRAc2,
    knLAc2,
    knVAc2,
    knSHAc2,
    knSSAc2,
    knSAc2,
    knHAc2,
    knRRAc2,
    knLLAc2,
    knLLLAc2,
    knKAA,
    "knKA.base",
    knKHAA,
    knGAA,
    "knGA.base",
    knGHAA,
    knNGAA,
    knCAA,
    "knCA.base",
    knCHAA,
    "knCHA.base",
    knJAA,
    "knJA.base",
    knJHAA,
    knNYAA,
    knTTAA,
    knTTHAA,
    "knTTHA.base",
    knDDAA,
    "knDDA.base",
    knDDHAA,
    "knDDHA.base",
    knNNAA,
    knTAA,
    "knTA.base",
    knTHAA,
    "knTHA.base",
    knDAA,
    "knDA.base",
    knDHAA,
    "knDHA.base",
    knNAA,
    "knNA.base",
    knPAA,
    knPHAA,
    knBAA,
    knBHAA,
    "knBHA.base",
    knMAA,
    knYAA,
    knRAA,
    "knRA.base",
    knLAA,
    knVAA,
    "knVA.base",
    knSHAA,
    "knSHA.base",
    knSSAA,
    "knSSA.base",
    knSAA,
    knHAA,
    knRRAA,
    knLLAA,
    "knLLA.base",
    knLLLAA,
    knKI,
    knKHI,
    knGI,

glyphs = (
{
glyphname = knA;
lastChange = "2015-08-27 17:15:05 +0000";
layers = (
{
layerId = "888EDFF5-A106-43F1-8E82-892DE62A2556";
name = Light;
paths = (
{
closed = 1;
nodes = (
"389 -9 CURVE",
"593 -9 OFFCURVE",
"750 124 OFFCURVE",
"750 339 CURVE SMOOTH",
"750 466 OFFCURVE",
"681 556 OFFCURVE",
"576 556 CURVE SMOOTH",
"504 556 OFFCURVE",
"442 494 OFFCURVE",
"442 421 CURVE SMOOTH",
"442 334 OFFCURVE",
"507 291 OFFCURVE",
"570 285 CURVE",
"592 306 LINE",
"529 316 OFFCURVE",
"500 371 OFFCURVE",
"500 414 CURVE SMOOTH",
"500 465 OFFCURVE",
"529 504 OFFCURVE",
"580 504 CURVE SMOOTH",
"644 504 OFFCURVE",
"687 438 OFFCURVE",
"687 343 CURVE SMOOTH",
"687 157 OFFCURVE",
"566 43 OFFCURVE",
"388 43 CURVE",
"228 43 OFFCURVE",
"89 156 OFFCURVE",
"89 340 CURVE SMOOTH",
"89 363 OFFCURVE",
"93 389 OFFCURVE",
"101 416 CURVE",
"84 411 LINE",
"85 333 OFFCURVE",
"139 277 OFFCURVE",
"214 277 CURVE SMOOTH",
"303 277 OFFCURVE",
"355 342 OFFCURVE",
"355 419 CURVE SMOOTH",
"355 490 OFFCURVE",
"304 556 OFFCURVE",
"215 556 CURVE SMOOTH",
"111 556 OFFCURVE",
"38 451 OFFCURVE",
"38 325 CURVE SMOOTH",
"38 121 OFFCURVE",
"200 -9 OFFCURVE"
);
},
{
closed = 1;
nodes = (
"210 329 CURVE SMOOTH",
"156 329 OFFCURVE",
"124 368 OFFCURVE",
"124 416 CURVE SMOOTH",
"124 457 OFFCURVE",
"156 503 OFFCURVE",
"210 503 CURVE SMOOTH",
"264 503 OFFCURVE",
"294 465 OFFCURVE",
"294 419 CURVE SMOOTH",
"294 372 OFFCURVE",
"265 329 OFFCURVE"
);
},
{
closed = 1;
nodes = (
"337 252 LINE",
"592 252 LINE",
"592 306 LINE",
"337 306 LINE"
);
}
);
width = 787;
},
{
layerId = "A41B5407-ACAD-4F97-B91E-44FCF58F9670";
name = Bold;
paths = (
{
closed = 1;
nodes = (
"441 -11 CURVE SMOOTH",
"638 -11 OFFCURVE",
"853 117 OFFCURVE",
"853 348 CURVE SMOOTH",
"853 460 OFFCURVE",
"785 586 OFFCURVE",
"633 586 CURVE SMOOTH",
"519 586 OFFCURVE",
"461 517 OFFCURVE",
"461 444 CURVE SMOOTH",
"461 379 OFFCURVE",
"511 335 OFFCURVE",
"579 330 CURVE",
"655 357 LINE",
"614 362 OFFCURVE",
"589 390 OFFCURVE",
"589 425 CURVE SMOOTH",
"589 458 OFFCURVE",
"608 483 OFFCURVE",
"642 483 CURVE SMOOTH",
"689 483 OFFCURVE",
"714 432 OFFCURVE",
"714 369 CURVE SMOOTH",
"714 228 OFFCURVE",
"621 104 OFFCURVE",
"441 104 CURVE SMOOTH",
"304 104 OFFCURVE",
"163 178 OFFCURVE",
"163 311 CURVE SMOOTH",
"163 321 OFFCURVE",
"166 333 OFFCURVE",
"172 345 CURVE",
"150 341 LINE",
"157 284 OFFCURVE",
"219 262 OFFCURVE",
"268 262 CURVE SMOOTH",
"360 262 OFFCURVE",
"418 330 OFFCURVE",
"418 421 CURVE SMOOTH",
"418 502 OFFCURVE",
"359 586 OFFCURVE",
"250 586 CURVE SMOOTH",
"98 586 OFFCURVE",
"30 450 OFFCURVE",
"30 330 CURVE SMOOTH",
"30 111 OFFCURVE",
"235 -11 OFFCURVE"
);
},
{
closed = 1;
nodes = (
"234 360 CURVE SMOOTH",
"200 360 OFFCURVE",
"181 384 OFFCURVE",
"181 416 CURVE SMOOTH",
"181 445 OFFCURVE",
"200 474 OFFCURVE",
"231 474 CURVE SMOOTH",
"267 474 OFFCURVE",
"284 449 OFFCURVE",
"284 418 CURVE SMOOTH",
"284 387 OFFCURVE",
"269 360 OFFCURVE"
);
},
{
closed = 1;
nodes = (
"428 245 LINE",
"655 245 LINE",
"655 357 LINE",
"428 357 LINE"
);
}
);
width = 883;
}
);
unicode = 0C85;
},
{
glyphname = knAA;
lastChange = "2015-08-27 17:15:05 +0000";
layers = (
{
layerId = "888EDFF5-A106-43F1-8E82-892DE62A2556";
name = Light;
paths = (
{
closed = 1;
nodes = (
"368 -9 CURVE SMOOTH",
"527 -9 OFFCURVE",
"646 80 OFFCURVE",
"646 203 CURVE SMOOTH",
"646 302 OFFCURVE",
"512 341 OFFCURVE",
"512 430 CURVE SMOOTH",
"512 470 OFFCURVE",
"538 504 OFFCURVE",
"584 504 CURVE SMOOTH",
"633 504 OFFCURVE",
"663 467 OFFCURVE",
"663 418 CURVE SMOOTH",
"663 349 OFFCURVE",
"612 305 OFFCURVE",
"527 305 CURVE SMOOTH",
"337 305 LINE",
"337 252 LINE",
"526 252 LINE SMOOTH",
"652 252 OFFCURVE",
"722 326 OFFCURVE",
"722 418 CURVE SMOOTH",
"722 496 OFFCURVE",
"666 556 OFFCURVE",
"585 556 CURVE SMOOTH",
"508 556 OFFCURVE",
"454 503 OFFCURVE",
"454 430 CURVE SMOOTH",
"454 313 OFFCURVE",
"583 289 OFFCURVE",
"583 203 CURVE SMOOTH",
"583 107 OFFCURVE",
"499 43 OFFCURVE",
"370 43 CURVE SMOOTH",
"209 43 OFFCURVE",
"89 156 OFFCURVE",
"89 340 CURVE SMOOTH",
"89 362 OFFCURVE",
"93 390 OFFCURVE",
"101 417 CURVE",
"84 411 LINE",
"85 333 OFFCURVE",
"139 277 OFFCURVE",
"214 277 CURVE SMOOTH",
"303 277 OFFCURVE",
"355 342 OFFCURVE",
"355 419 CURVE SMOOTH",
"355 490 OFFCURVE",
"304 556 OFFCURVE",
"215 556 CURVE SMOOTH",
"111 556 OFFCURVE",
"38 451 OFFCURVE",
"38 326 CURVE SMOOTH",
"38 122 OFFCURVE",
"181 -9 OFFCURVE"
);
},
{
closed = 1;
nodes = (
"210 329 CURVE SMOOTH",
"156 329 OFFCURVE",
"124 368 OFFCURVE",
"124 416 CURVE SMOOTH",
"124 457 OFFCURVE",
"156 503 OFFCURVE",
"210 503 CURVE SMOOTH",
"264 503 OFFCURVE",
"294 465 OFFCURVE",
"294 419 CURVE SMOOTH",
"294 372 OFFCURVE",
"265 329 OFFCURVE"
);
}
);
width = 753;
},
{
layerId = "A41B5407-ACAD-4F97-B91E-44FCF58F9670";
name = Bold;
paths = (
{
closed = 1;
nodes = (
"419 -11 CURVE SMOOTH",
"593 -11 OFFCURVE",
"744 79 OFFCURVE",
"744 224 CURVE SMOOTH",
"744 342 OFFCURVE",
"603 366 OFFCURVE",
"603 440 CURVE SMOOTH",
"603 467 OFFCURVE",
"620 483 OFFCURVE",
"643 483 CURVE SMOOTH",
"671 483 OFFCURVE",
"687 461 OFFCURVE",
"687 435 CURVE SMOOTH",
"687 390 OFFCURVE",
"656 350 OFFCURVE",
"579 350 CURVE SMOOTH",
"428 350 LINE",
"428 245 LINE",
"572 245 LINE SMOOTH",
"717 245 OFFCURVE",
"815 321 OFFCURVE",
"815 433 CURVE SMOOTH",
"815 512 OFFCURVE",
"755 586 OFFCURVE",
"638 586 CURVE SMOOTH",
"536 586 OFFCURVE",
"477 520 OFFCURVE",
"477 442 CURVE SMOOTH",
"477 323 OFFCURVE",
"609 299 OFFCURVE",
"609 224 CURVE SMOOTH",
"609 154 OFFCURVE",
"537 104 OFFCURVE",
"420 104 CURVE SMOOTH",
"290 104 OFFCURVE",
"163 182 OFFCURVE",
"163 298 CURVE SMOOTH",
"163 313 OFFCURVE",
"168 342 OFFCURVE",
"173 358 CURVE",
"148 341 LINE",
"155 284 OFFCURVE",
"219 262 OFFCURVE",
"268 262 CURVE SMOOTH",
"360 262 OFFCURVE",
"418 330 OFFCURVE",
"418 421 CURVE SMOOTH",
"418 502 OFFCURVE",
"359 586 OFFCURVE",
"250 586 CURVE SMOOTH",
"101 586 OFFCURVE",
"30 456 OFFCURVE",
"30 335 CURVE SMOOTH",
"30 125 OFFCURVE",
"197 -11 OFFCURVE"
);
},
{
closed = 1;
nodes = (
"234 360 CURVE SMOOTH",
"200 360 OFFCURVE",
"181 384 OFFCURVE",
"181 416 CURVE SMOOTH",
"181 445 OFFCURVE",
"200 474 OFFCURVE",
"231 474 CURVE SMOOTH",
"267 474 OFFCURVE",
"284 449 OFFCURVE",
"284 418 CURVE SMOOTH",
"284 387 OFFCURVE",
"269 360 OFFCURVE"
);
}
);
width = 845;
}
);
unicode = 0C86;
},
{
glyphname = knI;
lastChange = "2015-08-27 17:15:05 +0000";
layers = (
{
layerId = "888EDFF5-A106-43F1-8E82-892DE62A2556";
name = Light;
paths = (
{
closed = 1;
nodes = (
"601 -10 LINE",
"556 156 OFFCURVE",
"424 249 OFFCURVE",
"311 249 CURVE SMOOTH",
"208 249 OFFCURVE",
"149 194 OFFCURVE",
"149 119 CURVE SMOOTH",
"149 38 OFFCURVE",
"224 -9 OFFCURVE",
"312 -9 CURVE SMOOTH",
"495 -9 OFFCURVE",
"605 162 OFFCURVE",
"605 343 CURVE SMOOTH",
"605 454 OFFCURVE",
"553 556 OFFCURVE",
"441 556 CURVE SMOOTH",
"372 556 OFFCURVE",
"322 509 OFFCURVE",
"314 445 CURVE",
"306 508 OFFCURVE",
"257 556 OFFCURVE",
"184 556 CURVE SMOOTH",
"84 556 OFFCURVE",
"28 488 OFFCURVE",
"28 396 CURVE SMOOTH",
"28 374 OFFCURVE",
"31 348 OFFCURVE",
"39 323 CURVE",
"101 323 LINE",
"93 349 OFFCURVE",
"89 375 OFFCURVE",
"89 398 CURVE SMOOTH",
"89 456 OFFCURVE",
"118 503 OFFCURVE",
"186 503 CURVE SMOOTH",
"249 503 OFFCURVE",
"283 450 OFFCURVE",
"283 389 CURVE SMOOTH",
"283 352 LINE",
"345 352 LINE",
"345 387 LINE SMOOTH",
"345 452 OFFCURVE",
"376 503 OFFCURVE",
"439 503 CURVE SMOOTH",
"526 503 OFFCURVE",
"544 399 OFFCURVE",
"544 336 CURVE SMOOTH",
"544 184 OFFCURVE",
"460 43 OFFCURVE",
"311 43 CURVE SMOOTH",
"256 43 OFFCURVE",
"212 69 OFFCURVE",
"212 118 CURVE SMOOTH",
"212 165 OFFCURVE",
"243 197 OFFCURVE",
"310 197 CURVE SMOOTH",
"388 197 OFFCURVE",
"499 134 OFFCURVE",
"541 -10 CURVE"
);
}
);
width = 644;
},
{
layerId = "A41B5407-ACAD-4F97-B91E-44FCF58F9670";
name = Bold;
paths = (
{
closed = 1;
nodes = (
"710 -20 LINE",
"668 157 OFFCURVE",
"546 302 OFFCURVE",
"371 302 CURVE SMOOTH",
"246 302 OFFCURVE",
"162 235 OFFCURVE",
"162 144 CURVE SMOOTH",
"162 34 OFFCURVE",
"264 -12 OFFCURVE",
"372 -12 CURVE SMOOTH",
"552 -12 OFFCURVE",
"705 166 OFFCURVE",
"705 350 CURVE SMOOTH",
"705 478 OFFCURVE",
"645 587 OFFCURVE",
"506 587 CURVE SMOOTH",
"425 587 OFFCURVE",
"369 533 OFFCURVE",
"359 463 CURVE",
"351 531 OFFCURVE",
"293 587 OFFCURVE",
"200 587 CURVE SMOOTH",
"86 587 OFFCURVE",
"20 507 OFFCURVE",
"20 420 CURVE SMOOTH",
"20 383 OFFCURVE",
"29 348 OFFCURVE",
"43 317 CURVE",
"181 317 LINE",
"168 342 OFFCURVE",
"159 372 OFFCURVE",
"159 400 CURVE SMOOTH",
"159 439 OFFCURVE",
"180 471 OFFCURVE",
"219 471 CURVE SMOOTH",
"270 471 OFFCURVE",
"288 427 OFFCURVE",
"288 377 CURVE SMOOTH",
"288 356 LINE",
"430 356 LINE",
"430 377 LINE SMOOTH",
"430 427 OFFCURVE",
"444 471 OFFCURVE",
"496 471 CURVE SMOOTH",
"551 471 OFFCURVE",
"567 415 OFFCURVE",
"567 352 CURVE SMOOTH",
"567 234 OFFCURVE",
"498 101 OFFCURVE",
"367 101 CURVE SMOOTH",
"333 101 OFFCURVE",
"300 113 OFFCURVE",
"300 144 CURVE SMOOTH",
"300 175 OFFCURVE",
"327 190 OFFCURVE",
"363 190 CURVE SMOOTH",
"481 190 OFFCURVE",
"537 95 OFFCURVE",
"565 -20 CURVE"
);
}
);
width = 750;
}
);
unicode = 0C87;
},
{
glyphname = knII;
lastChange = "2015-08-27 17:15:05 +0000";
layers = (
{
layerId = "888EDFF5-A106-43F1-8E82-892DE62A2556";
name = Light;
paths = (
{
closed = 1;
nodes = (
"750 29 CURVE SMOOTH",
"834 29 OFFCURVE",
"876 81 OFFCURVE",
"876 144 CURVE SMOOTH",
"876 267 OFFCURVE",
"697 289 OFFCURVE",
"697 396 CURVE SMOOTH",
"697 439 OFFCURVE",
"726 464 OFFCURVE",
"764 464 CURVE SMOOTH",
"807 464 OFFCURVE",
"835 436 OFFCURVE",
"835 397 CURVE SMOOTH",
"835 336 OFFCURVE",
"789 298 OFFCURVE",
"681 298 CURVE SMOOTH",
"28 298 LINE",
"28 244 LINE",
"677 244 LINE SMOOTH",
"817 244 OFFCURVE",
"896 302 OFFCURVE",
"896 392 CURVE SMOOTH",
"896 466 OFFCURVE",
"839 516 OFFCURVE",
"763 516 CURVE SMOOTH",
"689 516 OFFCURVE",
"636 469 OFFCURVE",
"636 397 CURVE SMOOTH",
"636 272 OFFCURVE",
"814 240 OFFCURVE",
"814 149 CURVE SMOOTH",
"814 107 OFFCURVE",
"790 82 OFFCURVE",
"744 82 CURVE SMOOTH",
"700 82 OFFCURVE",
"662 97 OFFCURVE",
"630 114 CURVE",
"630 59 LINE",
"665 40 OFFCURVE",
"702 29 OFFCURVE"
);
},
{
closed = 1;
nodes = (
"93 492 LINE",
"476 492 LINE SMOOTH",
"549 492 OFFCURVE",
"583 523 OFFCURVE",
"583 577 CURVE SMOOTH",
"583 590 OFFCURVE",
"581 602 OFFCURVE",
"577 615 CURVE",
"518 615 LINE",
"520 606 OFFCURVE",
"521 598 OFFCURVE",
"521 591 CURVE SMOOTH",
"521 560 OFFCURVE",
"500 546 OFFCURVE",
"460 546 CURVE SMOOTH",
"93 546 LINE"
);
},
{
closed = 1;
nodes = (
"338 -9 CURVE SMOOTH",
"476 -9 OFFCURVE",
"575 98 OFFCURVE",
"575 272 CURVE SMOOTH",
"575 439 OFFCURVE",
"478 538 OFFCURVE",
"338 538 CURVE SMOOTH",
"199 538 OFFCURVE",
"101 439 OFFCURVE",
"101 271 CURVE SMOOTH",
"101 98 OFFCURVE",
"199 -9 OFFCURVE"
);
},
{
closed = 1;
nodes = (
"338 43 CURVE SMOOTH",
"239 43 OFFCURVE",
"164 132 OFFCURVE",
"164 271 CURVE SMOOTH",
"164 407 OFFCURVE",
"239 492 OFFCURVE",
"338 492 CURVE SMOOTH",
"437 492 OFFCURVE",
"512 407 OFFCURVE",
"512 270 CURVE SMOOTH",
"512 131 OFFCURVE",
"437 43 OFFCURVE"
);
}
);
width = 934;
},
{
layerId = "A41B5407-ACAD-4F97-B91E-44FCF58F9670";
name = Bold;
paths = (
{
closed = 1;
nodes = (
"862 18 CURVE SMOOTH",
"957 18 OFFCURVE",
"1032 67 OFFCURVE",
"1032 164 CURVE SMOOTH",
"1032 291 OFFCURVE",
"836 316 OFFCURVE",
"836 405 CURVE SMOOTH",
"836 429 OFFCURVE",
"854 449 OFFCURVE",
"879 449 CURVE SMOOTH",
"910 449 OFFCURVE",
"925 425 OFFCURVE",
"925 401 CURVE SMOOTH",
"925 350 OFFCURVE",
"884 333 OFFCURVE",
"792 333 CURVE SMOOTH",
"20 333 LINE",
"20 231 LINE",
"787 231 LINE SMOOTH",
"924 231 OFFCURVE",
"1047 274 OFFCURVE",
"1047 404 CURVE SMOOTH",
"1047 486 OFFCURVE",
"981 559 OFFCURVE",
"878 559 CURVE SMOOTH",
"781 559 OFFCURVE",
"718 494 OFFCURVE",
"718 415 CURVE SMOOTH",
"718 268 OFFCURVE",
"897 249 OFFCURVE",
"897 177 CURVE SMOOTH",
"897 154 OFFCURVE",
"878 136 OFFCURVE",
"839 136 CURVE SMOOTH",
"803 136 OFFCURVE",
"766 148 OFFCURVE",
"731 167 CURVE",
"731 44 LINE",
"763 28 OFFCURVE",
"821 18 OFFCURVE"
);
},
{
closed = 1;
nodes = (
"94 464 LINE",
"512 464 LINE SMOOTH",
"615 464 OFFCURVE",
"676 503 OFFCURVE",
"676 585 CURVE SMOOTH",
"676 606 OFFCURVE",
"671 627 OFFCURVE",
"662 649 CURVE",
"540 649 LINE",
"544 639 OFFCURVE",
"546 629 OFFCURVE",
"546 619 CURVE SMOOTH",
"546 589 OFFCURVE",
"523 576 OFFCURVE",
"483 576 CURVE SMOOTH",
"94 576 LINE"
);
},
{
closed = 1;
nodes = (
"383 -8 CURVE SMOOTH",
"561 -8 OFFCURVE",
"661 115 OFFCURVE",
"661 283 CURVE SMOOTH",
"661 417 OFFCURVE",
"584 542 OFFCURVE",
"383 542 CURVE SMOOTH",
"192 542 OFFCURVE",
"104 417 OFFCURVE",
"104 274 CURVE SMOOTH",
"104 112 OFFCURVE",
"201 -8 OFFCURVE"
);
},
{
closed = 1;
nodes = (
"384 105 CURVE SMOOTH",
"299 105 OFFCURVE",
"256 179 OFFCURVE",
"256 280 CURVE SMOOTH",
"256 371 OFFCURVE",
"295 464 OFFCURVE",
"382 464 CURVE SMOOTH",
"475 464 OFFCURVE",
"509 369 OFFCURVE",
"509 278 CURVE SMOOTH",
"509 177 OFFCURVE",
"469 105 OFFCURVE"
);
}
);
width = 1077;
}
);
unicode = 0C88;
},
{
glyphname = knU;
lastChange = "2015-08-27 17:15:05 +0000";
layers = (
{
layerId = "888EDFF5-A106-43F1-8E82-892DE62A2556";
name = Light;
paths = (
{
closed = 1;
nodes = (
"758 485 LINE",
"849 485 OFFCURVE",
"901 393 OFFCURVE",
"901 272 CURVE SMOOTH",
"901 127 OFFCURVE",
"859 43 OFFCURVE",
"782 43 CURVE SMOOTH",
"709 43 OFFCURVE",
"686 94 OFFCURVE",
"686 165 CURVE SMOOTH",
"686 250 OFFCURVE",
"712 314 OFFCURVE",
"712 403 CURVE SMOOTH",
"712 489 OFFCURVE",
"664 556 OFFCURVE",
"563 556 CURVE SMOOTH",
"467 556 OFFCURVE",
"411 490 OFFCURVE",
"411 403 CURVE SMOOTH",
"411 315 OFFCURVE",
"430 272 OFFCURVE",
"430 189 CURVE SMOOTH",
"430 99 OFFCURVE",
"373 43 OFFCURVE",
"293 43 CURVE SMOOTH",
"171 43 OFFCURVE",
"101 150 OFFCURVE",
"101 286 CURVE SMOOTH",
"101 323 OFFCURVE",
"111 372 OFFCURVE",
"119 414 CURVE",
"100 415 LINE",
"100 333 OFFCURVE",
"152 277 OFFCURVE",
"230 277 CURVE SMOOTH",
"310 277 OFFCURVE",
"368 341 OFFCURVE",
"368 418 CURVE SMOOTH",
"368 492 OFFCURVE",
"311 556 OFFCURVE",
"230 556 CURVE SMOOTH",
"102 556 OFFCURVE",
"47 427 OFFCURVE",
"47 286 CURVE SMOOTH",
"47 126 OFFCURVE",
"130 -9 OFFCURVE",
"293 -9 CURVE SMOOTH",
"408 -9 OFFCURVE",
"492 69 OFFCURVE",
"492 182 CURVE SMOOTH",
"492 264 OFFCURVE",
"472 327 OFFCURVE",
"472 401 CURVE SMOOTH",
"472 466 OFFCURVE",
"510 503 OFFCURVE",
"564 503 CURVE SMOOTH",
"619 503 OFFCURVE",
"651 465 OFFCURVE",
"651 401 CURVE SMOOTH",
"651 325 OFFCURVE",
"624 242 OFFCURVE",
"624 159 CURVE SMOOTH",
"624 63 OFFCURVE",
"672 -9 OFFCURVE",
"784 -9 CURVE SMOOTH",
"898 -9 OFFCURVE",
"963 101 OFFCURVE",
"963 271 CURVE SMOOTH",
"963 427 OFFCURVE",
"889 546 OFFCURVE",
"758 546 CURVE"
);
},
{
closed = 1;
nodes = (
"227 329 CURVE SMOOTH",
"172 329 OFFCURVE",
"139 368 OFFCURVE",
"139 413 CURVE SMOOTH",
"139 462 OFFCURVE",
"177 503 OFFCURVE",
"224 503 CURVE SMOOTH",
"274 503 OFFCURVE",
"305 465 OFFCURVE",
"305 417 CURVE SMOOTH",
"305 370 OFFCURVE",
"276 329 OFFCURVE"
);
}
);
width = 1010;
},
{
layerId = "A41B5407-ACAD-4F97-B91E-44FCF58F9670";
name = Bold;
paths = (
{
closed = 1;
nodes = (
"884 446 LINE",
"965 446 OFFCURVE",
"994 366 OFFCURVE",
"994 266 CURVE SMOOTH",
"994 185 OFFCURVE",
"968 98 OFFCURVE",
"895 98 CURVE SMOOTH",
"842 98 OFFCURVE",
"820 132 OFFCURVE",
"820 186 CURVE SMOOTH",
"820 255 OFFCURVE",
"845 308 OFFCURVE",
"845 398 CURVE SMOOTH",
"845 497 OFFCURVE",
"796 587 OFFCURVE",
"642 587 CURVE SMOOTH",
"515 587 OFFCURVE",
"453 501 OFFCURVE",
"453 393 CURVE SMOOTH",
"453 333 OFFCURVE",
"465 275 OFFCURVE",
"465 237 CURVE SMOOTH",
"465 150 OFFCURVE",
"406 106 OFFCURVE",
"336 106 CURVE SMOOTH",
"224 106 OFFCURVE",
"177 196 OFFCURVE",
"177 289 CURVE SMOOTH",
"177 318 OFFCURVE",
"178 347 OFFCURVE",
"181 374 CURVE",
"153 366 LINE",
"166 298 OFFCURVE",
"206 262 OFFCURVE",
"276 262 CURVE SMOOTH",
"367 262 OFFCURVE",
"424 331 OFFCURVE",
"424 421 CURVE SMOOTH",
"424 501 OFFCURVE",
"370 586 OFFCURVE",
"258 586 CURVE SMOOTH",
"106 586 OFFCURVE",
"40 440 OFFCURVE",
"40 311 CURVE SMOOTH",
"40 111 OFFCURVE",
"148 -10 OFFCURVE",
"336 -10 CURVE SMOOTH",
"493 -10 OFFCURVE",
"603 73 OFFCURVE",
"603 227 CURVE SMOOTH",
"603 277 OFFCURVE",
"591 347 OFFCURVE",
"591 389 CURVE SMOOTH",
"591 441 OFFCURVE",
"614 471 OFFCURVE",
"652 471 CURVE SMOOTH",
"693 471 OFFCURVE",
"707 435 OFFCURVE",
"707 391 CURVE SMOOTH",
"707 310 OFFCURVE",
"680 263 OFFCURVE",
"680 179 CURVE SMOOTH",
"680 45 OFFCURVE",
"766 -12 OFFCURVE",
"893 -12 CURVE SMOOTH",
"1049 -12 OFFCURVE",
"1136 99 OFFCURVE",
"1136 270 CURVE SMOOTH",
"1136 478 OFFCURVE",
"1039 580 OFFCURVE",
"884 580 CURVE"
);
},
{
closed = 1;
nodes = (
"242 360 CURVE SMOOTH",
"207 360 OFFCURVE",
"186 382 OFFCURVE",
"186 416 CURVE SMOOTH",
"186 447 OFFCURVE",
"206 474 OFFCURVE",
"239 474 CURVE SMOOTH",
"276 474 OFFCURVE",
"295 449 OFFCURVE",
"295 418 CURVE SMOOTH",
"295 387 OFFCURVE",
"277 360 OFFCURVE"
);
}
);
width = 1176;
}
);
unicode = 0C89;
},
{
glyphname = knUU;
lastChange = "2015-08-27 17:15:05 +0000";
layers = (
{
layerId = "888EDFF5-A106-43F1-8E82-892DE62A2556";
name = Light;
paths = (
{
closed = 1;
nodes = (
"227 329 CURVE SMOOTH",
"172 329 OFFCURVE",
"139 368 OFFCURVE",
"139 413 CURVE SMOOTH",
"139 462 OFFCURVE",
"177 503 OFFCURVE",
"224 503 CURVE SMOOTH",
"274 503 OFFCURVE",
"305 465 OFFCURVE",
"305 417 CURVE SMOOTH",
"305 370 OFFCURVE",
"276 329 OFFCURVE"
);
},
{
closed = 1;
nodes = (
"966 127 CURVE SMOOTH",
"966 52 OFFCURVE",
"1023 -9 OFFCURVE",
"1106 -9 CURVE SMOOTH",
"1232 -9 OFFCURVE",
"1288 119 OFFCURVE",
"1288 260 CURVE SMOOTH",
"1288 419 OFFCURVE",
"1205 556 OFFCURVE",
"1041 556 CURVE SMOOTH",
"924 556 OFFCURVE",
"842 476 OFFCURVE",
"842 364 CURVE SMOOTH",
"842 282 OFFCURVE",
"861 220 OFFCURVE",
"861 145 CURVE SMOOTH",
"861 81 OFFCURVE",
"824 43 OFFCURVE",
"770 43 CURVE SMOOTH",
"714 43 OFFCURVE",
"682 81 OFFCURVE",
"682 145 CURVE SMOOTH",
"682 234 OFFCURVE",
"712 316 OFFCURVE",
"712 403 CURVE SMOOTH",
"712 489 OFFCURVE",
"664 556 OFFCURVE",
"563 556 CURVE SMOOTH",
"467 556 OFFCURVE",
"411 490 OFFCURVE",
"411 403 CURVE SMOOTH",
"411 315 OFFCURVE",
"430 272 OFFCURVE",
"430 189 CURVE SMOOTH",
"430 99 OFFCURVE",
"373 43 OFFCURVE",
"293 43 CURVE SMOOTH",
"171 43 OFFCURVE",
"101 150 OFFCURVE",
"101 286 CURVE SMOOTH",
"101 323 OFFCURVE",
"111 372 OFFCURVE",
"119 414 CURVE",
"100 415 LINE",
"100 333 OFFCURVE",
"152 277 OFFCURVE",
"230 277 CURVE SMOOTH",
"310 277 OFFCURVE",
"368 341 OFFCURVE",
"368 418 CURVE SMOOTH",
"368 492 OFFCURVE",
"311 556 OFFCURVE",
"230 556 CURVE SMOOTH",
"102 556 OFFCURVE",
"47 427 OFFCURVE",
"47 286 CURVE SMOOTH",
"47 126 OFFCURVE",
"130 -9 OFFCURVE",
"293 -9 CURVE SMOOTH",
"408 -9 OFFCURVE",
"492 69 OFFCURVE",
"492 182 CURVE SMOOTH",
"492 264 OFFCURVE",
"472 327 OFFCURVE",
"472 401 CURVE SMOOTH",
"472 466 OFFCURVE",
"510 503 OFFCURVE",
"564 503 CURVE SMOOTH",
"619 503 OFFCURVE",
"651 465 OFFCURVE",
"651 401 CURVE SMOOTH",
"651 312 OFFCURVE",
"621 231 OFFCURVE",
"621 144 CURVE SMOOTH",
"621 55 OFFCURVE",
"671 -9 OFFCURVE",
"770 -9 CURVE SMOOTH",
"867 -9 OFFCURVE",
"922 57 OFFCURVE",
"922 143 CURVE SMOOTH",
"922 232 OFFCURVE",
"903 273 OFFCURVE",
"903 358 CURVE SMOOTH",
"903 447 OFFCURVE",
"960 503 OFFCURVE",
"1041 503 CURVE SMOOTH",
"1163 503 OFFCURVE",
"1234 397 OFFCURVE",
"1234 259 CURVE SMOOTH",
"1234 177 OFFCURVE",
"1208 43 OFFCURVE",
"1110 43 CURVE SMOOTH",
"1060 43 OFFCURVE",
"1029 79 OFFCURVE",
"1029 128 CURVE SMOOTH",
"1029 183 OFFCURVE",
"1067 211 OFFCURVE",
"1116 211 CURVE SMOOTH",
"1130 211 OFFCURVE",
"1147 208 OFFCURVE",
"1164 203 CURVE",
"1164 256 LINE",
"1145 261 OFFCURVE",
"1126 264 OFFCURVE",
"1108 264 CURVE SMOOTH",
"1032 264 OFFCURVE",
"967 217 OFFCURVE"
);
}
);
width = 1335;
},
{
layerId = "A41B5407-ACAD-4F97-B91E-44FCF58F9670";
name = Bold;
paths = (
{
closed = 1;
nodes = (
"242 360 CURVE SMOOTH",
"207 360 OFFCURVE",
"186 382 OFFCURVE",
"186 416 CURVE SMOOTH",
"186 447 OFFCURVE",
"206 474 OFFCURVE",
"239 474 CURVE SMOOTH",
"276 474 OFFCURVE",
"295 449 OFFCURVE",
"295 418 CURVE SMOOTH",
"295 387 OFFCURVE",
"277 360 OFFCURVE"
);
},
{
closed = 1;
nodes = (
"1120 155 CURVE SMOOTH",
"1120 70 OFFCURVE",
"1184 -10 OFFCURVE",
"1305 -10 CURVE SMOOTH",
"1443 -10 OFFCURVE",
"1510 122 OFFCURVE",
"1510 261 CURVE SMOOTH",
"1510 436 OFFCURVE",
"1416 586 OFFCURVE",
"1202 586 CURVE SMOOTH",
"1023 586 OFFCURVE",
"929 481 OFFCURVE",
"929 337 CURVE SMOOTH",
"929 277 OFFCURVE",
"943 241 OFFCURVE",
"943 186 CURVE SMOOTH",
"943 134 OFFCURVE",
"926 98 OFFCURVE",
"883 98 CURVE SMOOTH",
"836 98 OFFCURVE",
"820 132 OFFCURVE",
"820 186 CURVE SMOOTH",
"820 255 OFFCURVE",
"847 308 OFFCURVE",
"847 398 CURVE SMOOTH",
"847 497 OFFCURVE",
"796 587 OFFCURVE",
"642 587 CURVE SMOOTH",
"524 587 OFFCURVE",
"453 501 OFFCURVE",
"453 393 CURVE SMOOTH",
"453 333 OFFCURVE",
"465 275 OFFCURVE",
"465 237 CURVE SMOOTH",
"465 150 OFFCURVE",
"406 106 OFFCURVE",
"336 106 CURVE SMOOTH",
"224 106 OFFCURVE",
"177 196 OFFCURVE",
"177 289 CURVE SMOOTH",
"177 318 OFFCURVE",
"178 347 OFFCURVE",
"181 374 CURVE",
"153 366 LINE",
"166 298 OFFCURVE",
"206 262 OFFCURVE",
"276 262 CURVE SMOOTH",
"367 262 OFFCURVE",
"424 331 OFFCURVE",
"424 421 CURVE SMOOTH",
"424 501 OFFCURVE",
"370 586 OFFCURVE",
"258 586 CURVE SMOOTH",
"106 586 OFFCURVE",
"40 440 OFFCURVE",
"40 311 CURVE SMOOTH",
"40 111 OFFCURVE",
"148 -10 OFFCURVE",
"336 -10 CURVE SMOOTH",
"493 -10 OFFCURVE",
"603 73 OFFCURVE",
"603 227 CURVE SMOOTH",
"603 277 OFFCURVE",
"591 347 OFFCURVE",
"591 389 CURVE SMOOTH",
"591 441 OFFCURVE",
"614 471 OFFCURVE",
"652 471 CURVE SMOOTH",
"693 471 OFFCURVE",
"709 435 OFFCURVE",
"709 391 CURVE SMOOTH",
"709 310 OFFCURVE",
"680 263 OFFCURVE",
"680 179 CURVE SMOOTH",
"680 45 OFFCURVE",
"762 -12 OFFCURVE",
"883 -12 CURVE SMOOTH",
"1018 -12 OFFCURVE",
"1080 66 OFFCURVE",
"1080 171 CURVE SMOOTH",
"1080 248 OFFCURVE",
"1064 277 OFFCURVE",
"1064 336 CURVE SMOOTH",
"1064 412 OFFCURVE",
"1113 472 OFFCURVE",
"1209 472 CURVE SMOOTH",
"1318 472 OFFCURVE",
"1380 392 OFFCURVE",
"1380 264 CURVE SMOOTH",
"1380 156 OFFCURVE",
"1345 102 OFFCURVE",
"1300 102 CURVE SMOOTH",
"1266 102 OFFCURVE",
"1247 126 OFFCURVE",
"1247 156 CURVE SMOOTH",
"1247 186 OFFCURVE",
"1268 206 OFFCURVE",
"1300 206 CURVE SMOOTH",
"1310 206 OFFCURVE",
"1318 204 OFFCURVE",
"1325 201 CURVE",
"1325 311 LINE",
"1309 315 OFFCURVE",
"1292 316 OFFCURVE",
"1278 316 CURVE SMOOTH",
"1185 316 OFFCURVE",
"1120 255 OFFCURVE"
);
}
);
width = 1550;
}
);
unicode = 0C8A;
},
{
glyphname = knvR;
lastChange = "2015-08-27 17:15:05 +0000";
layers = (
{
layerId = "888EDFF5-A106-43F1-8E82-892DE62A2556";
name = Light;
paths = (
{
closed = 1;
nodes = (
"205 -9 CURVE SMOOTH",
"387 -9 OFFCURVE",
"512 148 OFFCURVE",
"512 330 CURVE SMOOTH",
"512 464 OFFCURVE",
"434 556 OFFCURVE",
"325 556 CURVE SMOOTH",
"242 556 OFFCURVE",
"186 507 OFFCURVE",
"186 438 CURVE SMOOTH",
"186 374 OFFCURVE",
"237 330 OFFCURVE",
"303 330 CURVE SMOOTH",
"339 330 OFFCURVE",
"362 334 OFFCURVE",
"391 348 CURVE",
"391 399 LINE",
"365 389 OFFCURVE",
"341 383 OFFCURVE",
"318 383 CURVE SMOOTH",
"273 383 OFFCURVE",
"248 405 OFFCURVE",
"248 441 CURVE SMOOTH",
"248 476 OFFCURVE",
"274 503 OFFCURVE",
"324 503 CURVE SMOOTH",
"396 503 OFFCURVE",
"451 433 OFFCURVE",
"451 331 CURVE SMOOTH",
"451 179 OFFCURVE",
"351 43 OFFCURVE",
"207 43 CURVE SMOOTH",
"137 43 OFFCURVE",
"90 69 OFFCURVE",
"90 116 CURVE SMOOTH",
"90 153 OFFCURVE",
"118 182 OFFCURVE",
"169 182 CURVE SMOOTH",
"289 182 OFFCURVE",
"378 -9 OFFCURVE",
"558 -9 CURVE SMOOTH",
"700 -9 OFFCURVE",
"784 95 OFFCURVE",
"784 256 CURVE SMOOTH",
"784 420 OFFCURVE",
"710 519 OFFCURVE",
"559 519 CURVE",
"559 492 LINE",
"665 484 OFFCURVE",
"721 393 OFFCURVE",
"721 258 CURVE SMOOTH",
"721 131 OFFCURVE",
"661 45 OFFCURVE",
"556 45 CURVE SMOOTH",
"409 45 OFFCURVE",
"319 235 OFFCURVE",
"159 235 CURVE SMOOTH",
"84 235 OFFCURVE",
"28 183 OFFCURVE",
"28 118 CURVE SMOOTH",
"28 38 OFFCURVE",
"97 -9 OFFCURVE"
);
},
{
closed = 1;
nodes = (
"559 492 LINE",
"667 492 LINE SMOOTH",
"741 492 OFFCURVE",
"774 523 OFFCURVE",
"774 577 CURVE SMOOTH",
"774 590 OFFCURVE",
"772 602 OFFCURVE",
"769 615 CURVE",
"711 615 LINE",
"713 606 OFFCURVE",
"714 598 OFFCURVE",
"714 591 CURVE SMOOTH",
"714 560 OFFCURVE",
"693 546 OFFCURVE",
"652 546 CURVE SMOOTH",
"559 546 LINE"
);
},
{
closed = 1;
nodes = (
"737 248 LINE",
"738 92 OFFCURVE",
"805 -10 OFFCURVE",
"931 -10 CURVE SMOOTH",
"1041 -10 OFFCURVE",
"1126 76 OFFCURVE",
"1126 261 CURVE SMOOTH",
"1126 411 OFFCURVE",
"1028 546 OFFCURVE",
"860 546 CURVE",
"860 491 LINE",
"979 491 OFFCURVE",
"1064 389 OFFCURVE",
"1064 255 CURVE SMOOTH",
"1064 113 OFFCURVE",
"999 42 OFFCURVE",
"927 42 CURVE SMOOTH",
"842 42 OFFCURVE",
"784 116 OFFCURVE",
"784 250 CURVE"
);
}
);
width = 1174;
},
{
layerId = "A41B5407-ACAD-4F97-B91E-44FCF58F9670";
name = Bold;
paths = (
{
closed = 1;
nodes = (
"240 -10 CURVE SMOOTH",
"466 -10 OFFCURVE",
"597 162 OFFCURVE",
"597 331 CURVE SMOOTH",
"597 478 OFFCURVE",
"503 586 OFFCURVE",
"373 586 CURVE SMOOTH",
"263 586 OFFCURVE",
"200 520 OFFCURVE",
"200 442 CURVE SMOOTH",
"200 360 OFFCURVE",
"268 316 OFFCURVE",
"340 316 CURVE SMOOTH",
"371 316 OFFCURVE",
"399 321 OFFCURVE",
"423 335 CURVE",
"423 431 LINE",
"406 419 OFFCURVE",
"389 413 OFFCURVE",
"368 413 CURVE SMOOTH",
"342 413 OFFCURVE",
"324 421 OFFCURVE",
"324 441 CURVE SMOOTH",
"324 462 OFFCURVE",
"340 474 OFFCURVE",
"373 474 CURVE SMOOTH",
"435 474 OFFCURVE",
"467 413 OFFCURVE",
"467 339 CURVE SMOOTH",
"467 207 OFFCURVE",
"393 102 OFFCURVE",
"242 102 CURVE SMOOTH",
"193 102 OFFCURVE",
"152 115 OFFCURVE",
"152 151 CURVE SMOOTH",
"152 174 OFFCURVE",
"170 192 OFFCURVE",
"202 192 CURVE SMOOTH",
"325 192 OFFCURVE",
"437 -9 OFFCURVE",
"626 -9 CURVE SMOOTH",
"792 -9 OFFCURVE",
"901 97 OFFCURVE",
"901 269 CURVE SMOOTH",
"901 436 OFFCURVE",
"803 515 OFFCURVE",
"627 515 CURVE",
"627 464 LINE",
"716 464 OFFCURVE",
"759 370 OFFCURVE",
"759 272 CURVE SMOOTH",
"759 189 OFFCURVE",
"720 117 OFFCURVE",
"618 117 CURVE SMOOTH",
"464 117 OFFCURVE",
"376 308 OFFCURVE",
"185 308 CURVE SMOOTH",
"86 308 OFFCURVE",
"20 245 OFFCURVE",
"20 153 CURVE SMOOTH",
"20 58 OFFCURVE",
"101 -10 OFFCURVE"
);
},
{
closed = 1;
nodes = (
"627 464 LINE",
"750 464 LINE SMOOTH",
"853 464 OFFCURVE",
"914 503 OFFCURVE",
"914 585 CURVE SMOOTH",
"914 606 OFFCURVE",
"909 627 OFFCURVE",
"900 649 CURVE",
"778 649 LINE",
"782 639 OFFCURVE",
"784 629 OFFCURVE",
"784 619 CURVE SMOOTH",
"784 589 OFFCURVE",
"761 576 OFFCURVE",
"721 576 CURVE SMOOTH",
"627 576 LINE"
);
},
{
closed = 1;
nodes = (
"819 237 LINE",
"823 97 OFFCURVE",
"881 -10 OFFCURVE",
"1024 -10 CURVE SMOOTH",
"1179 -10 OFFCURVE",
"1259 119 OFFCURVE",
"1259 274 CURVE SMOOTH",
"1259 446 OFFCURVE",
"1181 576 OFFCURVE",
"964 576 CURVE",
"964 461 LINE",
"1082 461 OFFCURVE",
"1118 370 OFFCURVE",
"1118 273 CURVE SMOOTH",
"1118 172 OFFCURVE",
"1083 106 OFFCURVE",
"1008 106 CURVE SMOOTH",
"917 106 OFFCURVE",
"901 211 OFFCURVE",
"901 272 CURVE"
);
}
);
width = 1299;
}
);
unicode = 0C8B;
},
{
glyphname = knvL;
lastChange = "2015-08-27 17:15:05 +0000";
layers = (
{
layerId = "888EDFF5-A106-43F1-8E82-892DE62A2556";
name = Light;
paths = (
{
closed = 1;
nodes = (
"627 -9 CURVE SMOOTH",
"748 -9 OFFCURVE",
"820 101 OFFCURVE",
"820 268 CURVE SMOOTH",
"820 438 OFFCURVE",
"755 539 OFFCURVE",
"629 546 CURVE",
"629 485 LINE",
"718 477 OFFCURVE",
"758 400 OFFCURVE",
"758 271 CURVE SMOOTH",
"758 133 OFFCURVE",
"711 43 OFFCURVE",
"627 43 CURVE SMOOTH",
"554 43 OFFCURVE",
"518 92 OFFCURVE",
"518 165 CURVE SMOOTH",
"518 250 OFFCURVE",
"573 314 OFFCURVE",
"573 403 CURVE SMOOTH",
"573 490 OFFCURVE",
"520 556 OFFCURVE",
"426 556 CURVE SMOOTH",
"350 556 OFFCURVE",
"306 503 OFFCURVE",
"304 445 CURVE",
"299 503 OFFCURVE",
"244 556 OFFCURVE",
"176 556 CURVE SMOOTH",
"80 556 OFFCURVE",
"28 486 OFFCURVE",
"28 401 CURVE SMOOTH",
"28 374 OFFCURVE",
"33 346 OFFCURVE",
"43 318 CURVE",
"106 318 LINE",
"96 343 OFFCURVE",
"91 370 OFFCURVE",
"91 397 CURVE SMOOTH",
"91 454 OFFCURVE",
"116 503 OFFCURVE",
"176 503 CURVE SMOOTH",
"238 503 OFFCURVE",
"272 454 OFFCURVE",
"272 381 CURVE SMOOTH",
"272 340 LINE",
"334 340 LINE",
"334 390 LINE SMOOTH",
"334 453 OFFCURVE",
"366 503 OFFCURVE",
"425 503 CURVE SMOOTH",
"479 503 OFFCURVE",
"511 466 OFFCURVE",
"511 402 CURVE SMOOTH",
"511 326 OFFCURVE",
"456 242 OFFCURVE",
"456 159 CURVE SMOOTH",
"456 61 OFFCURVE",
"516 -9 OFFCURVE"
);
}
);
width = 866;
},
{
layerId = "A41B5407-ACAD-4F97-B91E-44FCF58F9670";
name = Bold;
paths = (
{
closed = 1;
nodes = (
"714 -12 CURVE SMOOTH",
"890 -12 OFFCURVE",
"987 99 OFFCURVE",
"987 287 CURVE SMOOTH",
"987 478 OFFCURVE",
"890 580 OFFCURVE",
"735 580 CURVE",
"735 446 LINE",
"816 446 OFFCURVE",
"845 382 OFFCURVE",
"845 279 CURVE SMOOTH",
"845 185 OFFCURVE",
"809 98 OFFCURVE",
"727 98 CURVE SMOOTH",
"663 98 OFFCURVE",
"636 132 OFFCURVE",
"636 186 CURVE SMOOTH",
"636 255 OFFCURVE",
"689 318 OFFCURVE",
"689 408 CURVE SMOOTH",
"689 507 OFFCURVE",
"628 587 OFFCURVE",
"514 587 CURVE SMOOTH",
"423 587 OFFCURVE",
"367 531 OFFCURVE",
"359 463 CURVE",
"351 531 OFFCURVE",
"293 587 OFFCURVE",
"200 587 CURVE SMOOTH",
"86 587 OFFCURVE",
"20 507 OFFCURVE",
"20 420 CURVE SMOOTH",
"20 383 OFFCURVE",
"27 343 OFFCURVE",
"41 312 CURVE",
"179 312 LINE",
"166 337 OFFCURVE",
"159 372 OFFCURVE",
"159 400 CURVE SMOOTH",
"159 439 OFFCURVE",
"180 471 OFFCURVE",
"219 471 CURVE SMOOTH",
"270 471 OFFCURVE",
"288 427 OFFCURVE",
"288 377 CURVE SMOOTH",
"288 349 LINE",
"430 349 LINE",
"430 377 LINE SMOOTH",
"430 428 OFFCURVE",
"447 471 OFFCURVE",
"493 471 CURVE SMOOTH",
"530 471 OFFCURVE",
"551 445 OFFCURVE",
"551 401 CURVE SMOOTH",
"551 320 OFFCURVE",
"496 253 OFFCURVE",
"496 169 CURVE SMOOTH",
"496 45 OFFCURVE",
"587 -12 OFFCURVE"
);
}
);
width = 1027;
}
);
unicode = 0C8C;
},
{
glyphname = knE;
lastChange = "2015-08-27 17:15:05 +0000";
layers = (
{
layerId = "888EDFF5-A106-43F1-8E82-892DE62A2556";
name = Light;
paths = (
{
closed = 1;
nodes = (
"320 209 LINE",
"320 165 LINE SMOOTH",
"320 94 OFFCURVE",
"275 43 OFFCURVE",
"212 43 CURVE SMOOTH",
"139 43 OFFCURVE",
"99 93 OFFCURVE",
"99 157 CURVE SMOOTH",
"99 230 OFFCURVE",
"149 272 OFFCURVE",
"213 272 CURVE SMOOTH",
"222 272 OFFCURVE",
"232 271 OFFCURVE",
"242 269 CURVE",
"242 326 LINE",
"232 328 OFFCURVE",
"219 329 OFFCURVE",
"210 329 CURVE SMOOTH",
"112 329 OFFCURVE",
"38 260 OFFCURVE",
"38 156 CURVE SMOOTH",
"38 60 OFFCURVE",
"104 -9 OFFCURVE",
"212 -9 CURVE SMOOTH",
"287 -9 OFFCURVE",
"341 30 OFFCURVE",
"352 99 CURVE",
"362 30 OFFCURVE",
"418 -9 OFFCURVE",
"491 -9 CURVE SMOOTH",
"598 -9 OFFCURVE",
"667 77 OFFCURVE",
"667 198 CURVE SMOOTH",
"667 405 OFFCURVE",
"500 550 OFFCURVE",
"257 550 CURVE SMOOTH",
"243 550 OFFCURVE",
"231 550 OFFCURVE",
"219 549 CURVE",
"219 497 LINE",
"231 498 OFFCURVE",
"246 498 OFFCURVE",
"257 498 CURVE SMOOTH",
"464 498 OFFCURVE",
"605 372 OFFCURVE",
"605 198 CURVE SMOOTH",
"605 104 OFFCURVE",
"560 43 OFFCURVE",
"491 43 CURVE SMOOTH",
"421 43 OFFCURVE",
"382 98 OFFCURVE",
"382 165 CURVE SMOOTH",
"382 209 LINE"
);
}
);
width = 704;
},
{
layerId = "A41B5407-ACAD-4F97-B91E-44FCF58F9670";
name = Bold;
paths = (
{
closed = 1;
nodes = (
"324 246 LINE",
"324 210 LINE SMOOTH",
"324 147 OFFCURVE",
"296 106 OFFCURVE",
"245 106 CURVE SMOOTH",
"202 106 OFFCURVE",
"172 132 OFFCURVE",
"172 184 CURVE SMOOTH",
"172 224 OFFCURVE",
"196 257 OFFCURVE",
"241 257 CURVE SMOOTH",
"248 257 OFFCURVE",
"256 256 OFFCURVE",
"263 254 CURVE",
"263 364 LINE",
"245 369 OFFCURVE",
"224 371 OFFCURVE",
"206 371 CURVE SMOOTH",
"103 371 OFFCURVE",
"30 295 OFFCURVE",
"30 184 CURVE SMOOTH",
"30 69 OFFCURVE",
"106 -10 OFFCURVE",
"233 -10 CURVE SMOOTH",
"318 -10 OFFCURVE",
"380 38 OFFCURVE",
"395 114 CURVE",
"407 37 OFFCURVE",
"469 -10 OFFCURVE",
"555 -10 CURVE SMOOTH",
"679 -10 OFFCURVE",
"758 83 OFFCURVE",
"758 202 CURVE SMOOTH",
"758 454 OFFCURVE",
"547 588 OFFCURVE",
"285 588 CURVE SMOOTH",
"276 588 OFFCURVE",
"266 588 OFFCURVE",
"257 587 CURVE",
"257 473 LINE",
"261 473 OFFCURVE",
"277 474 OFFCURVE",
"287 474 CURVE SMOOTH",
"478 474 OFFCURVE",
"616 384 OFFCURVE",
"616 206 CURVE SMOOTH",
"616 151 OFFCURVE",
"592 106 OFFCURVE",
"542 106 CURVE SMOOTH",
"492 106 OFFCURVE",
"466 150 OFFCURVE",
"466 210 CURVE SMOOTH",
"466 246 LINE"
);
}
);
width = 788;
}
);
unicode = 0C8E;
},
{
glyphname = knEE;
lastChange = "2015-08-27 17:15:05 +0000";
layers = (
{
layerId = "888EDFF5-A106-43F1-8E82-892DE62A2556";
name = Light;
paths = (
{
closed = 1;
nodes = (
"205 -9 CURVE SMOOTH",
"281 -9 OFFCURVE",
"335 30 OFFCURVE",
"346 99 CURVE",
"356 30 OFFCURVE",
"411 -9 OFFCURVE",
"485 -9 CURVE SMOOTH",
"592 -9 OFFCURVE",
"652 84 OFFCURVE",
"652 211 CURVE SMOOTH",
"652 354 OFFCURVE",
"570 497 OFFCURVE",
"446 546 CURVE",
"425 481 OFFCURVE",
"375 431 OFFCURVE",
"295 431 CURVE SMOOTH",
"227 431 OFFCURVE",
"177 456 OFFCURVE",
"177 523 CURVE SMOOTH",
"177 530 OFFCURVE",
"178 539 OFFCURVE",
"180 546 CURVE",
"118 546 LINE",
"116 536 OFFCURVE",
"115 525 OFFCURVE",
"115 517 CURVE SMOOTH",
"115 424 OFFCURVE",
"192 379 OFFCURVE",
"294 379 CURVE SMOOTH",
"383 379 OFFCURVE",
"448 427 OFFCURVE",
"478 491 CURVE",
"432 482 LINE",
"524 449 OFFCURVE",
"590 337 OFFCURVE",
"590 208 CURVE SMOOTH",
"590 108 OFFCURVE",
"551 43 OFFCURVE",
"484 43 CURVE SMOOTH",
"414 43 OFFCURVE",
"376 98 OFFCURVE",
"376 165 CURVE SMOOTH",
"376 209 LINE",
"315 209 LINE",
"315 165 LINE SMOOTH",
"315 94 OFFCURVE",
"268 43 OFFCURVE",
"205 43 CURVE SMOOTH",
"139 43 OFFCURVE",
"99 83 OFFCURVE",
"99 143 CURVE SMOOTH",
"99 203 OFFCURVE",
"143 244 OFFCURVE",
"206 244 CURVE SMOOTH",
"217 244 OFFCURVE",
"225 243 OFFCURVE",
"235 241 CURVE",
"235 298 LINE",
"225 300 OFFCURVE",
"214 301 OFFCURVE",
"203 301 CURVE SMOOTH",
"105 301 OFFCURVE",
"38 236 OFFCURVE",
"38 142 CURVE SMOOTH",
"38 54 OFFCURVE",
"102 -9 OFFCURVE"
);
}
);
width = 690;
},
{
layerId = "A41B5407-ACAD-4F97-B91E-44FCF58F9670";
name = Bold;
paths = (
{
closed = 1;
nodes = (
"233 -10 CURVE SMOOTH",
"318 -10 OFFCURVE",
"380 38 OFFCURVE",
"395 114 CURVE",
"407 37 OFFCURVE",
"469 -10 OFFCURVE",
"555 -10 CURVE SMOOTH",
"696 -10 OFFCURVE",
"756 118 OFFCURVE",
"756 239 CURVE SMOOTH",
"756 394 OFFCURVE",
"667 523 OFFCURVE",
"494 583 CURVE",
"475 524 OFFCURVE",
"427 474 OFFCURVE",
"349 474 CURVE SMOOTH",
"284 474 OFFCURVE",
"240 504 OFFCURVE",
"240 563 CURVE SMOOTH",
"240 567 OFFCURVE",
"240 571 OFFCURVE",
"241 576 CURVE",
"118 576 LINE",
"116 565 OFFCURVE",
"115 553 OFFCURVE",
"115 542 CURVE SMOOTH",
"115 417 OFFCURVE",
"221 361 OFFCURVE",
"333 361 CURVE SMOOTH",
"423 361 OFFCURVE",
"502 398 OFFCURVE",
"543 464 CURVE",
"486 445 LINE",
"569 412 OFFCURVE",
"614 332 OFFCURVE",
"614 238 CURVE SMOOTH",
"614 165 OFFCURVE",
"595 106 OFFCURVE",
"539 106 CURVE SMOOTH",
"491 106 OFFCURVE",
"466 151 OFFCURVE",
"466 210 CURVE SMOOTH",
"466 246 LINE",
"324 246 LINE",
"324 210 LINE SMOOTH",
"324 144 OFFCURVE",
"293 106 OFFCURVE",
"237 106 CURVE SMOOTH",
"199 106 OFFCURVE",
"172 128 OFFCURVE",
"172 165 CURVE SMOOTH",
"172 203 OFFCURVE",
"199 227 OFFCURVE",
"231 227 CURVE SMOOTH",
"246 227 OFFCURVE",
"253 226 OFFCURVE",
"260 224 CURVE",
"260 336 LINE",
"242 340 OFFCURVE",
"225 342 OFFCURVE",
"209 342 CURVE SMOOTH",
"106 342 OFFCURVE",
"30 283 OFFCURVE",
"30 172 CURVE SMOOTH",
"30 62 OFFCURVE",
"106 -10 OFFCURVE"
);
}
);
width = 786;
}
);
unicode = 0C8F;
},
{
glyphname = knAI;
lastChange = "2015-08-27 17:15:05 +0000";
layers = (
{
layerId = "888EDFF5-A106-43F1-8E82-892DE62A2556";
name = Light;
paths = (
{
closed = 1;
nodes = (
"96 478 LINE",
"129 493 OFFCURVE",
"163 501 OFFCURVE",
"199 501 CURVE SMOOTH",
"274 501 OFFCURVE",
"315 448 OFFCURVE",
"315 360 CURVE",
"376 360 LINE",
"376 379 LINE SMOOTH",
"376 446 OFFCURVE",
"410 503 OFFCURVE",
"475 503 CURVE SMOOTH",
"560 503 OFFCURVE",
"593 406 OFFCURVE",
"593 274 CURVE SMOOTH",
"593 138 OFFCURVE",
"561 43 OFFCURVE",
"478 43 CURVE SMOOTH",
"411 43 OFFCURVE",
"376 98 OFFCURVE",
"376 165 CURVE SMOOTH",
"376 209 LINE",
"315 209 LINE",
"315 165 LINE SMOOTH",
"315 94 OFFCURVE",
"268 43 OFFCURVE",
"201 43 CURVE SMOOTH",
"137 43 OFFCURVE",
"99 86 OFFCURVE",
"99 144 CURVE SMOOTH",
"99 200 OFFCURVE",
"133 245 OFFCURVE",
"191 245 CURVE SMOOTH",
"200 245 OFFCURVE",
"210 244 OFFCURVE",
"220 242 CURVE",
"220 299 LINE",
"210 301 OFFCURVE",
"198 302 OFFCURVE",
"188 302 CURVE SMOOTH",
"97 302 OFFCURVE",
"38 235 OFFCURVE",
"38 145 CURVE SMOOTH",
"38 57 OFFCURVE",
"102 -9 OFFCURVE",
"201 -9 CURVE SMOOTH",
"279 -9 OFFCURVE",
"334 35 OFFCURVE",
"346 99 CURVE",
"355 33 OFFCURVE",
"408 -9 OFFCURVE",
"479 -9 CURVE SMOOTH",
"598 -9 OFFCURVE",
"655 106 OFFCURVE",
"655 275 CURVE SMOOTH",
"655 438 OFFCURVE",
"597 556 OFFCURVE",
"477 556 CURVE SMOOTH",
"406 556 OFFCURVE",
"357 509 OFFCURVE",
"346 449 CURVE",
"331 507 OFFCURVE",
"278 554 OFFCURVE",
"202 554 CURVE SMOOTH",
"161 554 OFFCURVE",
"126 546 OFFCURVE",
"96 533 CURVE"
);
}
);
width = 702;
},
{
layerId = "A41B5407-ACAD-4F97-B91E-44FCF58F9670";
name = Bold;
paths = (
{
closed = 1;
nodes = (
"92 442 LINE",
"125 458 OFFCURVE",
"166 469 OFFCURVE",
"203 469 CURVE SMOOTH",
"267 469 OFFCURVE",
"307 437 OFFCURVE",
"318 371 CURVE",
"460 371 LINE",
"460 388 LINE SMOOTH",
"460 437 OFFCURVE",
"484 470 OFFCURVE",
"525 470 CURVE SMOOTH",
"603 470 OFFCURVE",
"616 383 OFFCURVE",
"616 281 CURVE SMOOTH",
"616 185 OFFCURVE",
"601 106 OFFCURVE",
"539 106 CURVE SMOOTH",
"492 106 OFFCURVE",
"466 150 OFFCURVE",
"466 210 CURVE SMOOTH",
"466 246 LINE",
"324 246 LINE",
"324 210 LINE SMOOTH",
"324 147 OFFCURVE",
"296 106 OFFCURVE",
"241 106 CURVE SMOOTH",
"199 106 OFFCURVE",
"172 129 OFFCURVE",
"172 171 CURVE SMOOTH",
"172 211 OFFCURVE",
"196 237 OFFCURVE",
"232 237 CURVE SMOOTH",
"246 237 OFFCURVE",
"251 236 OFFCURVE",
"260 234 CURVE",
"260 346 LINE",
"242 350 OFFCURVE",
"225 352 OFFCURVE",
"209 352 CURVE SMOOTH",
"106 352 OFFCURVE",
"30 291 OFFCURVE",
"30 176 CURVE SMOOTH",
"30 61 OFFCURVE",
"106 -10 OFFCURVE",
"233 -10 CURVE SMOOTH",
"318 -10 OFFCURVE",
"380 38 OFFCURVE",
"395 114 CURVE",
"407 37 OFFCURVE",
"469 -10 OFFCURVE",
"555 -10 CURVE SMOOTH",
"691 -10 OFFCURVE",
"758 114 OFFCURVE",
"758 281 CURVE SMOOTH",
"758 455 OFFCURVE",
"699 586 OFFCURVE",
"542 586 CURVE SMOOTH",
"460 586 OFFCURVE",
"402 541 OFFCURVE",
"389 472 CURVE",
"367 546 OFFCURVE",
"296 585 OFFCURVE",
"211 585 CURVE SMOOTH",
"169 585 OFFCURVE",
"123 575 OFFCURVE",
"92 563 CURVE"
);
}
);
width = 798;
}
);
unicode = 0C90;
},
{
glyphname = knO;
lastChange = "2015-08-27 17:15:05 +0000";
layers = (
{
layerId = "888EDFF5-A106-43F1-8E82-892DE62A2556";
name = Light;
paths = (
{
closed = 1;
nodes = (
"205 -9 CURVE SMOOTH",
"286 -9 OFFCURVE",
"341 30 OFFCURVE",
"357 99 CURVE",
"368 30 OFFCURVE",
"420 -9 OFFCURVE",
"495 -9 CURVE SMOOTH",
"603 -9 OFFCURVE",
"668 72 OFFCURVE",
"668 176 CURVE SMOOTH",
"668 286 OFFCURVE",
"607 358 OFFCURVE",
"500 358 CURVE SMOOTH",
"490 358 OFFCURVE",
"478 357 OFFCURVE",
"467 356 CURVE",
"467 299 LINE",
"477 301 OFFCURVE",
"487 302 OFFCURVE",
"496 302 CURVE SMOOTH",
"572 302 OFFCURVE",
"607 244 OFFCURVE",
"607 176 CURVE SMOOTH",
"607 107 OFFCURVE",
"570 43 OFFCURVE",
"495 43 CURVE SMOOTH",
"429 43 OFFCURVE",
"389 94 OFFCURVE",
"389 165 CURVE",
"389 209 LINE",
"327 209 LINE",
"327 165 LINE",
"327 96 OFFCURVE",
"281 43 OFFCURVE",
"209 43 CURVE SMOOTH",
"145 43 OFFCURVE",
"110 79 OFFCURVE",
"110 132 CURVE SMOOTH",
"110 260 OFFCURVE",
"334 276 OFFCURVE",
"334 423 CURVE SMOOTH",
"334 492 OFFCURVE",
"288 557 OFFCURVE",
"201 557 CURVE SMOOTH",
"115 557 OFFCURVE",
"64 500 OFFCURVE",
"64 423 CURVE SMOOTH",
"64 409 OFFCURVE",
"66 394 OFFCURVE",
"70 379 CURVE",
"129 379 LINE",
"126 394 OFFCURVE",
"124 407 OFFCURVE",
"124 420 CURVE SMOOTH",
"124 476 OFFCURVE",
"158 504 OFFCURVE",
"201 504 CURVE SMOOTH",
"248 504 OFFCURVE",
"272 471 OFFCURVE",
"272 422 CURVE SMOOTH",
"272 307 OFFCURVE",
"47 293 OFFCURVE",
"47 132 CURVE SMOOTH",
"47 47 OFFCURVE",
"112 -9 OFFCURVE"
);
}
);
width = 706;
},
{
layerId = "A41B5407-ACAD-4F97-B91E-44FCF58F9670";
name = Bold;
paths = (
{
closed = 1;
nodes = (
"236 -10 CURVE",
"333 -10 OFFCURVE",
"407 33 OFFCURVE",
"420 114 CURVE",
"431 39 OFFCURVE",
"493 -10 OFFCURVE",
"578 -10 CURVE SMOOTH",
"714 -10 OFFCURVE",
"785 95 OFFCURVE",
"785 215 CURVE SMOOTH",
"785 338 OFFCURVE",
"713 433 OFFCURVE",
"586 433 CURVE SMOOTH",
"564 433 OFFCURVE",
"545 430 OFFCURVE",
"528 425 CURVE",
"528 313 LINE",
"539 316 OFFCURVE",
"550 318 OFFCURVE",
"560 318 CURVE SMOOTH",
"619 318 OFFCURVE",
"643 272 OFFCURVE",
"643 216 CURVE SMOOTH",
"643 153 OFFCURVE",
"622 106 OFFCURVE",
"567 106 CURVE SMOOTH",
"519 106 OFFCURVE",
"491 147 OFFCURVE",
"491 210 CURVE SMOOTH",
"491 251 LINE",
"349 251 LINE",
"349 210 LINE SMOOTH",
"349 144 OFFCURVE",
"313 106 OFFCURVE",
"250 106 CURVE SMOOTH",
"216 106 OFFCURVE",
"181 120 OFFCURVE",
"181 160 CURVE SMOOTH",
"181 250 OFFCURVE",
"406 276 OFFCURVE",
"406 427 CURVE SMOOTH",
"406 527 OFFCURVE",
"329 587 OFFCURVE",
"232 587 CURVE SMOOTH",
"115 587 OFFCURVE",
"54 517 OFFCURVE",
"54 430 CURVE SMOOTH",
"54 414 OFFCURVE",
"56 401 OFFCURVE",
"60 384 CURVE",
"192 384 LINE",
"189 396 OFFCURVE",
"187 406 OFFCURVE",
"187 418 CURVE SMOOTH",
"187 447 OFFCURVE",
"200 470 OFFCURVE",
"232 470 CURVE SMOOTH",
"259 470 OFFCURVE",
"275 450 OFFCURVE",
"275 423 CURVE SMOOTH",
"275 334 OFFCURVE",
"40 318 OFFCURVE",
"40 154 CURVE SMOOTH",
"40 53 OFFCURVE",
"119 -10 OFFCURVE"
);
}
);
width = 815;
}
);
unicode = 0C92;
},
{
glyphname = knOO;
lastChange = "2015-08-27 17:15:05 +0000";
layers = (
{
layerId = "888EDFF5-A106-43F1-8E82-892DE62A2556";
name = Light;
paths = (
{
closed = 1;
nodes = (
"205 -9 CURVE SMOOTH",
"286 -9 OFFCURVE",
"341 30 OFFCURVE",
"357 99 CURVE",
"368 30 OFFCURVE",
"420 -9 OFFCURVE",
"495 -9 CURVE SMOOTH",
"603 -9 OFFCURVE",
"668 72 OFFCURVE",
"668 176 CURVE SMOOTH",
"668 286 OFFCURVE",
"607 358 OFFCURVE",
"500 358 CURVE SMOOTH",
"490 358 OFFCURVE",
"478 357 OFFCURVE",
"467 356 CURVE",
"467 299 LINE",
"477 301 OFFCURVE",
"487 302 OFFCURVE",
"496 302 CURVE SMOOTH",
"572 302 OFFCURVE",
"607 244 OFFCURVE",
"607 176 CURVE SMOOTH",
"607 107 OFFCURVE",
"570 43 OFFCURVE",
"495 43 CURVE SMOOTH",
"429 43 OFFCURVE",
"389 94 OFFCURVE",
"389 165 CURVE",
"389 209 LINE",
"327 209 LINE",
"327 165 LINE",
"327 96 OFFCURVE",
"281 43 OFFCURVE",
"209 43 CURVE SMOOTH",
"145 43 OFFCURVE",
"110 79 OFFCURVE",
"110 132 CURVE SMOOTH",
"110 260 OFFCURVE",
"334 276 OFFCURVE",
"334 423 CURVE SMOOTH",
"334 492 OFFCURVE",
"288 557 OFFCURVE",
"201 557 CURVE SMOOTH",
"115 557 OFFCURVE",
"64 500 OFFCURVE",
"64 423 CURVE SMOOTH",
"64 409 OFFCURVE",
"66 394 OFFCURVE",
"70 379 CURVE",
"129 379 LINE",
"126 394 OFFCURVE",
"124 407 OFFCURVE",
"124 420 CURVE SMOOTH",
"124 476 OFFCURVE",
"158 504 OFFCURVE",
"201 504 CURVE SMOOTH",
"248 504 OFFCURVE",
"272 471 OFFCURVE",
"272 422 CURVE SMOOTH",
"272 307 OFFCURVE",
"47 293 OFFCURVE",
"47 132 CURVE SMOOTH",
"47 47 OFFCURVE",
"112 -9 OFFCURVE"
);
},
{
closed = 1;
nodes = (
"294 523 LINE",
"253 556 OFFCURVE",
"239 584 OFFCURVE",
"239 614 CURVE SMOOTH",
"239 642 OFFCURVE",
"255 662 OFFCURVE",
"284 662 CURVE SMOOTH",
"294 662 OFFCURVE",
"305 661 OFFCURVE",
"315 656 CURVE",
"315 709 LINE",
"302 714 OFFCURVE",
"288 716 OFFCURVE",
"276 716 CURVE SMOOTH",
"217 716 OFFCURVE",
"180 676 OFFCURVE",
"180 629 CURVE SMOOTH",
"180 578 OFFCURVE",
"217 542 OFFCURVE",
"267 521 CURVE"
);
}
);
width = 706;
},
{
layerId = "A41B5407-ACAD-4F97-B91E-44FCF58F9670";
name = Bold;
paths = (
{
closed = 1;
nodes = (
"236 -10 CURVE",
"333 -10 OFFCURVE",
"407 33 OFFCURVE",
"420 114 CURVE",
"431 39 OFFCURVE",
"493 -10 OFFCURVE",
"578 -10 CURVE SMOOTH",
"714 -10 OFFCURVE",
"785 95 OFFCURVE",
"785 215 CURVE SMOOTH",
"785 338 OFFCURVE",
"713 433 OFFCURVE",
"586 433 CURVE SMOOTH",
"564 433 OFFCURVE",
"545 430 OFFCURVE",
"528 425 CURVE",
"528 313 LINE",
"539 316 OFFCURVE",
"550 318 OFFCURVE",
"560 318 CURVE SMOOTH",
"619 318 OFFCURVE",
"643 272 OFFCURVE",
"643 216 CURVE SMOOTH",
"643 153 OFFCURVE",
"622 106 OFFCURVE",
"567 106 CURVE SMOOTH",
"519 106 OFFCURVE",
"491 147 OFFCURVE",
"491 210 CURVE SMOOTH",
"491 251 LINE",
"349 251 LINE",
"349 210 LINE SMOOTH",
"349 144 OFFCURVE",
"313 106 OFFCURVE",
"250 106 CURVE SMOOTH",
"216 106 OFFCURVE",
"181 120 OFFCURVE",
"181 160 CURVE SMOOTH",
"181 250 OFFCURVE",
"406 276 OFFCURVE",
"406 427 CURVE SMOOTH",
"406 527 OFFCURVE",
"329 587 OFFCURVE",
"232 587 CURVE SMOOTH",
"115 587 OFFCURVE",
"54 517 OFFCURVE",
"54 430 CURVE SMOOTH",
"54 414 OFFCURVE",
"56 401 OFFCURVE",
"60 384 CURVE",
"192 384 LINE",
"189 396 OFFCURVE",
"187 406 OFFCURVE",
"187 418 CURVE SMOOTH",
"187 447 OFFCURVE",
"200 470 OFFCURVE",
"232 470 CURVE SMOOTH",
"259 470 OFFCURVE",
"275 450 OFFCURVE",
"275 423 CURVE SMOOTH",
"275 334 OFFCURVE",
"40 318 OFFCURVE",
"40 154 CURVE SMOOTH",
"40 53 OFFCURVE",
"119 -10 OFFCURVE"
);
},
{
closed = 1;
nodes = (
"348 551 LINE",
"330 565 OFFCURVE",
"316 586 OFFCURVE",
"316 613 CURVE SMOOTH",
"316 638 OFFCURVE",
"331 659 OFFCURVE",
"359 659 CURVE SMOOTH",
"367 659 OFFCURVE",
"376 658 OFFCURVE",
"386 654 CURVE",
"386 767 LINE",
"367 773 OFFCURVE",
"346 776 OFFCURVE",
"327 776 CURVE SMOOTH",
"257 776 OFFCURVE",
"194 739 OFFCURVE",
"194 666 CURVE SMOOTH",
"194 619 OFFCURVE",
"228 573 OFFCURVE",
"278 545 CURVE"
);
}
);
width = 815;
}
);
unicode = 0C93;
},
{
glyphname = knAU;
lastChange = "2015-08-27 17:15:05 +0000";
layers = (
{
layerId = "888EDFF5-A106-43F1-8E82-892DE62A2556";
name = Light;
paths = (
{
closed = 1;
nodes = (
"204 -9 CURVE SMOOTH",
"285 -9 OFFCURVE",
"343 30 OFFCURVE",
"358 99 CURVE",
"369 30 OFFCURVE",
"421 -9 OFFCURVE",
"505 -9 CURVE SMOOTH",
"607 -9 OFFCURVE",
"673 59 OFFCURVE",
"673 154 CURVE SMOOTH",
"673 246 OFFCURVE",
"613 308 OFFCURVE",
"526 308 CURVE SMOOTH",
"505 308 OFFCURVE",
"489 305 OFFCURVE",
"473 300 CURVE",
"473 243 LINE",
"489 249 OFFCURVE",
"504 252 OFFCURVE",
"524 252 CURVE SMOOTH",
"573 252 OFFCURVE",
"611 218 OFFCURVE",
"611 155 CURVE SMOOTH",
"611 90 OFFCURVE",
"572 43 OFFCURVE",
"506 43 CURVE SMOOTH",
"433 43 OFFCURVE",
"391 94 OFFCURVE",
"391 165 CURVE",
"391 209 LINE",
"328 209 LINE",
"328 165 LINE",
"328 96 OFFCURVE",
"280 43 OFFCURVE",
"209 43 CURVE SMOOTH",
"145 43 OFFCURVE",
"110 79 OFFCURVE",
"110 132 CURVE SMOOTH",
"110 263 OFFCURVE",
"334 265 OFFCURVE",
"334 415 CURVE SMOOTH",
"334 484 OFFCURVE",
"280 537 OFFCURVE",
"200 537 CURVE SMOOTH",
"120 537 OFFCURVE",
"66 489 OFFCURVE",
"66 413 CURVE SMOOTH",
"66 401 OFFCURVE",
"67 388 OFFCURVE",
"70 375 CURVE",
"129 375 LINE",
"126 387 OFFCURVE",
"125 398 OFFCURVE",
"125 409 CURVE SMOOTH",
"125 457 OFFCURVE",
"150 488 OFFCURVE",
"201 488 CURVE SMOOTH",
"246 488 OFFCURVE",
"274 455 OFFCURVE",
"274 414 CURVE SMOOTH",
"274 298 OFFCURVE",
"47 293 OFFCURVE",
"47 132 CURVE SMOOTH",
"47 47 OFFCURVE",
"112 -9 OFFCURVE"
);
},
{
closed = 1;
nodes = (
"560 389 CURVE SMOOTH",
"640 389 OFFCURVE",
"702 449 OFFCURVE",
"702 540 CURVE SMOOTH",
"702 619 OFFCURVE",
"650 708 OFFCURVE",
"509 708 CURVE SMOOTH",
"56 708 LINE",
"56 654 LINE",
"508 654 LINE SMOOTH",
"606 654 OFFCURVE",
"642 597 OFFCURVE",
"642 540 CURVE SMOOTH",
"642 487 OFFCURVE",
"616 440 OFFCURVE",
"562 440 CURVE SMOOTH",
"519 440 OFFCURVE",
"497 463 OFFCURVE",
"497 493 CURVE SMOOTH",
"497 523 OFFCURVE",
"518 544 OFFCURVE",
"548 544 CURVE SMOOTH",
"560 544 OFFCURVE",
"569 542 OFFCURVE",
"579 540 CURVE",
"579 590 LINE",
"565 594 OFFCURVE",
"554 595 OFFCURVE",
"540 595 CURVE SMOOTH",
"485 595 OFFCURVE",
"437 557 OFFCURVE",
"437 493 CURVE SMOOTH",
"437 430 OFFCURVE",
"488 389 OFFCURVE"
);
},
{
closed = 1;
nodes = (
"54 546 LINE",
"54 493 LINE",
"265 493 LINE SMOOTH",
"338 493 OFFCURVE",
"394 524 OFFCURVE",
"394 593 CURVE SMOOTH",
"394 662 OFFCURVE",
"328 684 OFFCURVE",
"257 684 CURVE",
"246 654 LINE",
"305 654 OFFCURVE",
"333 638 OFFCURVE",
"333 600 CURVE SMOOTH",
"333 562 OFFCURVE",
"305 546 OFFCURVE",
"246 546 CURVE SMOOTH"
);
}
);
width = 740;
},
{
layerId = "A41B5407-ACAD-4F97-B91E-44FCF58F9670";
name = Bold;
paths = (
{
closed = 1;
nodes = (
"231 -10 CURVE SMOOTH",
"328 -10 OFFCURVE",
"392 33 OFFCURVE",
"405 114 CURVE",
"416 39 OFFCURVE",
"478 -10 OFFCURVE",
"570 -10 CURVE SMOOTH",
"680 -10 OFFCURVE",
"770 55 OFFCURVE",
"770 175 CURVE SMOOTH",
"770 257 OFFCURVE",
"718 330 OFFCURVE",
"609 330 CURVE SMOOTH",
"585 330 OFFCURVE",
"567 328 OFFCURVE",
"549 323 CURVE",
"549 211 LINE",
"558 213 OFFCURVE",
"567 214 OFFCURVE",
"575 214 CURVE SMOOTH",
"612 214 OFFCURVE",
"628 194 OFFCURVE",
"628 163 CURVE SMOOTH",
"628 129 OFFCURVE",
"602 106 OFFCURVE",
"564 106 CURVE SMOOTH",
"502 106 OFFCURVE",
"476 148 OFFCURVE",
"476 210 CURVE SMOOTH",
"476 251 LINE",
"334 251 LINE",
"334 210 LINE SMOOTH",
"334 144 OFFCURVE",
"301 106 OFFCURVE",
"245 106 CURVE SMOOTH",
"211 106 OFFCURVE",
"181 120 OFFCURVE",
"181 160 CURVE SMOOTH",
"181 250 OFFCURVE",
"401 276 OFFCURVE",
"401 427 CURVE SMOOTH",
"401 511 OFFCURVE",
"335 557 OFFCURVE",
"227 557 CURVE SMOOTH",
"119 557 OFFCURVE",
"62 500 OFFCURVE",
"62 430 CURVE SMOOTH",
"62 414 OFFCURVE",
"64 401 OFFCURVE",
"68 384 CURVE",
"190 384 LINE",
"187 396 OFFCURVE",
"185 406 OFFCURVE",
"185 418 CURVE SMOOTH",
"185 447 OFFCURVE",
"199 470 OFFCURVE",
"229 470 CURVE SMOOTH",
"255 470 OFFCURVE",
"270 452 OFFCURVE",
"270 425 CURVE SMOOTH",
"270 334 OFFCURVE",
"40 318 OFFCURVE",
"40 154 CURVE SMOOTH",
"40 53 OFFCURVE",
"114 -10 OFFCURVE"
);
},
{
closed = 1;
nodes = (
"631 360 CURVE SMOOTH",
"748 360 OFFCURVE",
"819 450 OFFCURVE",
"819 556 CURVE SMOOTH",
"819 712 OFFCURVE",
"693 773 OFFCURVE",
"564 773 CURVE SMOOTH",
"49 773 LINE",
"49 661 LINE",
"557 661 LINE SMOOTH",
"650 661 OFFCURVE",
"692 616 OFFCURVE",
"692 550 CURVE SMOOTH",
"692 503 OFFCURVE",
"670 466 OFFCURVE",
"628 466 CURVE SMOOTH",
"606 466 OFFCURVE",
"591 476 OFFCURVE",
"591 494 CURVE SMOOTH",
"591 513 OFFCURVE",
"605 523 OFFCURVE",
"621 523 CURVE SMOOTH",
"629 523 OFFCURVE",
"634 522 OFFCURVE",
"638 521 CURVE",
"638 614 LINE",
"626 619 OFFCURVE",
"612 620 OFFCURVE",
"599 620 CURVE SMOOTH",
"531 620 OFFCURVE",
"473 574 OFFCURVE",
"473 498 CURVE SMOOTH",
"473 415 OFFCURVE",
"534 360 OFFCURVE"
);
},
{
closed = 1;
nodes = (
"49 585 LINE",
"49 484 LINE",
"282 484 LINE SMOOTH",
"374 484 OFFCURVE",
"448 520 OFFCURVE",
"448 596 CURVE SMOOTH",
"448 682 OFFCURVE",
"358 699 OFFCURVE",
"262 699 CURVE",
"255 661 LINE",
"303 661 OFFCURVE",
"324 648 OFFCURVE",
"324 623 CURVE SMOOTH",
"324 597 OFFCURVE",
"303 585 OFFCURVE",
"265 585 CURVE SMOOTH"
);
}
);
width = 849;
}
);
unicode = 0C94;
},
{
glyphname = knmAA;
lastChange = "2015-08-27 17:15:05 +0000";
layers = (
{
layerId = "888EDFF5-A106-43F1-8E82-892DE62A2556";
name = Light;
paths = (
{
closed = 1;
nodes = (
"315 127 CURVE SMOOTH",
"315 52 OFFCURVE",
"372 -9 OFFCURVE",
"455 -9 CURVE SMOOTH",
"575 -9 OFFCURVE",
"628 108 OFFCURVE",
"628 236 CURVE SMOOTH",
"628 406 OFFCURVE",
"528 546 OFFCURVE",
"335 546 CURVE SMOOTH",
"100 546 LINE",
"100 492 LINE",
"334 492 LINE SMOOTH",
"485 492 OFFCURVE",
"572 387 OFFCURVE",
"572 230 CURVE SMOOTH",
"572 150 OFFCURVE",
"546 43 OFFCURVE",
"459 43 CURVE SMOOTH",
"409 43 OFFCURVE",
"378 79 OFFCURVE",
"378 128 CURVE SMOOTH",
"378 183 OFFCURVE",
"416 211 OFFCURVE",
"465 211 CURVE SMOOTH",
"479 211 OFFCURVE",
"496 208 OFFCURVE",
"513 203 CURVE",
"513 256 LINE",
"494 261 OFFCURVE",
"475 264 OFFCURVE",
"457 264 CURVE SMOOTH",
"381 264 OFFCURVE",
"316 217 OFFCURVE"
);
}
);
width = 653;
},
{
layerId = "A41B5407-ACAD-4F97-B91E-44FCF58F9670";
name = Bold;
paths = (
{
closed = 1;
nodes = (
"298 155 CURVE SMOOTH",
"298 70 OFFCURVE",
"362 -10 OFFCURVE",
"483 -10 CURVE SMOOTH",
"621 -10 OFFCURVE",
"688 112 OFFCURVE",
"688 242 CURVE SMOOTH",
"688 417 OFFCURVE",
"577 576 OFFCURVE",
"360 576 CURVE SMOOTH",
"95 576 LINE",
"95 464 LINE",
"348 464 LINE SMOOTH",
"478 464 OFFCURVE",
"558 380 OFFCURVE",
"558 246 CURVE SMOOTH",
"558 150 OFFCURVE",
"523 102 OFFCURVE",
"478 102 CURVE SMOOTH",
"444 102 OFFCURVE",
"425 126 OFFCURVE",
"425 156 CURVE SMOOTH",
"425 186 OFFCURVE",
"446 206 OFFCURVE",
"478 206 CURVE SMOOTH",
"488 206 OFFCURVE",
"496 204 OFFCURVE",
"503 201 CURVE",
"503 311 LINE",
"487 315 OFFCURVE",
"470 316 OFFCURVE",
"456 316 CURVE SMOOTH",
"363 316 OFFCURVE",
"298 255 OFFCURVE"
);
}
);
width = 748;
}
);
unicode = 0CBE;
},
{
glyphname = knmI;
lastChange = "2015-08-27 17:15:05 +0000";
layers = (
{
layerId = "888EDFF5-A106-43F1-8E82-892DE62A2556";
name = Light;
paths = (
{
closed = 1;
nodes = (
"231 660 CURVE SMOOTH",
"194 660 OFFCURVE",
"167 682 OFFCURVE",
"167 715 CURVE SMOOTH",
"167 746 OFFCURVE",
"195 769 OFFCURVE",
"232 769 CURVE SMOOTH",
"276 769 OFFCURVE",
"299 743 OFFCURVE",
"299 714 CURVE SMOOTH",
"299 681 OFFCURVE",
"270 660 OFFCURVE"
);
},
{
closed = 1;
nodes = (
"51 538 CURVE",
"51 485 LINE",
"88 466 OFFCURVE",
"132 455 OFFCURVE",
"180 455 CURVE SMOOTH",
"303 455 OFFCURVE",
"375 550 OFFCURVE",
"375 652 CURVE SMOOTH",
"375 748 OFFCURVE",
"317 820 OFFCURVE",
"224 820 CURVE SMOOTH",
"148 820 OFFCURVE",
"106 771 OFFCURVE",
"106 712 CURVE SMOOTH",
"106 649 OFFCURVE",
"166 609 OFFCURVE",
"223 609 CURVE SMOOTH",
"274 609 OFFCURVE",
"319 633 OFFCURVE",
"332 680 CURVE",
"314 689 LINE",
"317 677 OFFCURVE",
"318 664 OFFCURVE",
"318 652 CURVE SMOOTH",
"318 570 OFFCURVE",
"270 510 OFFCURVE",
"173 510 CURVE SMOOTH",
"131 510 OFFCURVE",
"92 519 OFFCURVE"
);
}
);
width = 387;
},
{
layerId = "A41B5407-ACAD-4F97-B91E-44FCF58F9670";
name = Bold;
paths = (
{
closed = 1;
nodes = (
"240 707 CURVE SMOOTH",
"214 707 OFFCURVE",
"195 723 OFFCURVE",
"195 747 CURVE SMOOTH",
"195 772 OFFCURVE",
"214 788 OFFCURVE",
"240 788 CURVE SMOOTH",
"266 788 OFFCURVE",
"285 770 OFFCURVE",
"285 747 CURVE SMOOTH",
"285 724 OFFCURVE",
"266 707 OFFCURVE"
);
},
{
closed = 1;
nodes = (
"43 604 CURVE",
"43 496 LINE",
"82 474 OFFCURVE",
"132 461 OFFCURVE",
"195 461 CURVE SMOOTH",
"330 461 OFFCURVE",
"427 554 OFFCURVE",
"427 681 CURVE SMOOTH",
"427 788 OFFCURVE",
"361 886 OFFCURVE",
"232 886 CURVE SMOOTH",
"138 886 OFFCURVE",
"77 825 OFFCURVE",
"77 752 CURVE SMOOTH",
"77 669 OFFCURVE",
"141 622 OFFCURVE",
"215 622 CURVE SMOOTH",
"272 622 OFFCURVE",
"315 650 OFFCURVE",
"322 698 CURVE",
"312 719 LINE",
"315 710 OFFCURVE",
"317 691 OFFCURVE",
"317 682 CURVE SMOOTH",
"317 605 OFFCURVE",
"264 566 OFFCURVE",
"196 566 CURVE SMOOTH",
"140 566 OFFCURVE",
"86 582 OFFCURVE"
);
}
);
width = 457;
}
);
unicode = 0CBF;
},
{
glyphname = knmII;
lastChange = "2015-08-27 17:15:05 +0000";
layers = (
{
components = (
{
name = knLengthmark;
transform = "{1, 0, 0, 1, 330, 0}";
}
);
layerId = "888EDFF5-A106-43F1-8E82-892DE62A2556";
name = Light;
paths = (
{
closed = 1;
nodes = (
"260 660 CURVE SMOOTH",
"223 660 OFFCURVE",
"196 682 OFFCURVE",
"196 715 CURVE SMOOTH",
"196 746 OFFCURVE",
"224 769 OFFCURVE",
"261 769 CURVE SMOOTH",
"304 769 OFFCURVE",
"328 743 OFFCURVE",
"328 714 CURVE SMOOTH",
"328 681 OFFCURVE",
"298 660 OFFCURVE"
);
},
{
closed = 1;
nodes = (
"79 538 CURVE",
"79 485 LINE",
"116 466 OFFCURVE",
"161 455 OFFCURVE",
"208 455 CURVE SMOOTH",
"332 455 OFFCURVE",
"403 550 OFFCURVE",
"403 652 CURVE SMOOTH",
"403 748 OFFCURVE",
"346 820 OFFCURVE",
"253 820 CURVE SMOOTH",
"177 820 OFFCURVE",
"135 771 OFFCURVE",
"135 712 CURVE SMOOTH",
"135 649 OFFCURVE",
"194 609 OFFCURVE",
"251 609 CURVE SMOOTH",
"302 609 OFFCURVE",
"347 633 OFFCURVE",
"360 680 CURVE",
"342 689 LINE",
"345 677 OFFCURVE",
"346 664 OFFCURVE",
"346 652 CURVE SMOOTH",
"346 570 OFFCURVE",
"298 510 OFFCURVE",
"202 510 CURVE SMOOTH",
"160 510 OFFCURVE",
"120 519 OFFCURVE"
);
}
);
width = 733;
},
{
components = (
{
name = knLengthmark;
transform = "{1, 0, 0, 1, 340, 0}";
}
);
layerId = "A41B5407-ACAD-4F97-B91E-44FCF58F9670";
name = Bold;
paths = (
{
closed = 1;
nodes = (
"240 707 CURVE SMOOTH",
"214 707 OFFCURVE",
"195 723 OFFCURVE",
"195 747 CURVE SMOOTH",
"195 772 OFFCURVE",
"214 788 OFFCURVE",
"240 788 CURVE SMOOTH",
"266 788 OFFCURVE",
"285 770 OFFCURVE",
"285 747 CURVE SMOOTH",
"285 724 OFFCURVE",
"266 707 OFFCURVE"
);
},
{
closed = 1;
nodes = (
"43 604 CURVE",
"43 496 LINE",
"82 474 OFFCURVE",
"132 461 OFFCURVE",
"195 461 CURVE SMOOTH",
"330 461 OFFCURVE",
"427 554 OFFCURVE",
"427 681 CURVE SMOOTH",
"427 788 OFFCURVE",
"361 886 OFFCURVE",
"232 886 CURVE SMOOTH",
"138 886 OFFCURVE",
"77 825 OFFCURVE",
"77 752 CURVE SMOOTH",
"77 669 OFFCURVE",
"141 622 OFFCURVE",
"215 622 CURVE SMOOTH",
"272 622 OFFCURVE",
"315 650 OFFCURVE",
"322 698 CURVE",
"312 719 LINE",
"315 710 OFFCURVE",
"317 691 OFFCURVE",
"317 682 CURVE SMOOTH",
"317 605 OFFCURVE",
"264 566 OFFCURVE",
"196 566 CURVE SMOOTH",
"140 566 OFFCURVE",
"86 582 OFFCURVE"
);
}
);
width = 787;
}
);
unicode = 0CC0;
},
{
glyphname = knLengthmark;
lastChange = "2015-08-27 17:15:05 +0000";
layers = (
{
layerId = "888EDFF5-A106-43F1-8E82-892DE62A2556";
name = Light;
paths = (
{
closed = 1;
nodes = (
"327 0 LINE",
"327 6 LINE",
"189 97 OFFCURVE",
"119 215 OFFCURVE",
"119 342 CURVE SMOOTH",
"119 367 OFFCURVE",
"123 390 OFFCURVE",
"127 414 CURVE",
"107 416 LINE",
"107 333 OFFCURVE",
"159 277 OFFCURVE",
"237 277 CURVE SMOOTH",
"317 277 OFFCURVE",
"375 342 OFFCURVE",
"375 418 CURVE SMOOTH",
"375 493 OFFCURVE",
"318 556 OFFCURVE",
"236 556 CURVE SMOOTH",
"107 556 OFFCURVE",
"65 437 OFFCURVE",
"65 342 CURVE SMOOTH",
"65 198 OFFCURVE",
"141 76 OFFCURVE",
"251 0 CURVE"
);
},
{
closed = 1;
nodes = (
"233 329 CURVE SMOOTH",
"179 329 OFFCURVE",
"147 368 OFFCURVE",
"147 413 CURVE SMOOTH",
"147 462 OFFCURVE",
"183 503 OFFCURVE",
"231 503 CURVE SMOOTH",
"282 503 OFFCURVE",
"313 465 OFFCURVE",
"313 417 CURVE SMOOTH",
"313 370 OFFCURVE",
"283 329 OFFCURVE"
);
}
);
width = 398;
},
{
layerId = "A41B5407-ACAD-4F97-B91E-44FCF58F9670";
name = Bold;
paths = (
{
closed = 1;
nodes = (
"386 0 LINE",
"386 9 LINE",
"253 99 OFFCURVE",
"170 204 OFFCURVE",
"170 322 CURVE SMOOTH",
"170 338 OFFCURVE",
"171 356 OFFCURVE",
"174 374 CURVE",
"144 368 LINE",
"144 298 OFFCURVE",
"203 262 OFFCURVE",
"268 262 CURVE SMOOTH",
"364 262 OFFCURVE",
"423 332 OFFCURVE",
"423 421 CURVE SMOOTH",
"423 511 OFFCURVE",
"358 586 OFFCURVE",
"246 586 CURVE SMOOTH",
"112 586 OFFCURVE",
"40 466 OFFCURVE",
"40 332 CURVE SMOOTH",
"40 189 OFFCURVE",
"110 69 OFFCURVE",
"220 0 CURVE"
);
},
{
closed = 1;
nodes = (
"240 360 CURVE SMOOTH",
"205 360 OFFCURVE",
"184 382 OFFCURVE",
"184 416 CURVE SMOOTH",
"184 447 OFFCURVE",
"204 474 OFFCURVE",
"237 474 CURVE SMOOTH",
"274 474 OFFCURVE",
"293 449 OFFCURVE",
"293 418 CURVE SMOOTH",
"293 387 OFFCURVE",
"275 360 OFFCURVE"
);
}
);
width = 433;
}
);
unicode = 0CD5;
},
{
glyphname = knmU;
lastChange = "2015-08-27 17:15:05 +0000";
layers = (
{
layerId = "888EDFF5-A106-43F1-8E82-892DE62A2556";
name = Light;
paths = (
{
closed = 1;
nodes = (
"-79 155 LINE",
"-79 55 OFFCURVE",
"-19 -10 OFFCURVE",
"95 -10 CURVE SMOOTH",
"216 -10 OFFCURVE",
"309 76 OFFCURVE",
"309 261 CURVE SMOOTH",
"309 411 OFFCURVE",
"211 546 OFFCURVE",
"43 546 CURVE",
"43 491 LINE",
"162 491 OFFCURVE",
"247 389 OFFCURVE",
"247 255 CURVE SMOOTH",
"247 113 OFFCURVE",
"174 42 OFFCURVE",
"92 42 CURVE SMOOTH",
"19 42 OFFCURVE",
"-34 81 OFFCURVE",
"-34 155 CURVE"
);
}
);
width = 356;
},
{
layerId = "A41B5407-ACAD-4F97-B91E-44FCF58F9670";
name = Bold;
paths = (
{
closed = 1;
nodes = (
"-109 193 LINE",
"-109 64 OFFCURVE",
"-50 -11 OFFCURVE",
"85 -11 CURVE SMOOTH",
"254 -11 OFFCURVE",
"342 112 OFFCURVE",
"342 274 CURVE SMOOTH",
"342 446 OFFCURVE",
"264 576 OFFCURVE",
"47 576 CURVE",
"47 461 LINE",
"165 461 OFFCURVE",
"201 370 OFFCURVE",
"201 273 CURVE SMOOTH",
"201 167 OFFCURVE",
"158 105 OFFCURVE",
"75 105 CURVE SMOOTH",
"21 105 OFFCURVE",
"-25 137 OFFCURVE",
"-25 193 CURVE"
);
}
);
width = 382;
}
);
unicode = 0CC1;
},
{
glyphname = knmUU;
lastChange = "2015-08-27 17:15:05 +0000";
layers = (
{
layerId = "888EDFF5-A106-43F1-8E82-892DE62A2556";
name = Light;
paths = (
{
closed = 1;
nodes = (
"-79 155 LINE",
"-79 58 OFFCURVE",
"-40 -9 OFFCURVE",
"59 -9 CURVE SMOOTH",
"155 -9 OFFCURVE",
"207 57 OFFCURVE",
"207 143 CURVE SMOOTH",
"207 232 OFFCURVE",
"189 273 OFFCURVE",
"189 358 CURVE SMOOTH",
"189 447 OFFCURVE",
"245 503 OFFCURVE",
"326 503 CURVE SMOOTH",
"448 503 OFFCURVE",
"519 397 OFFCURVE",
"519 259 CURVE SMOOTH",
"519 177 OFFCURVE",
"493 43 OFFCURVE",
"395 43 CURVE SMOOTH",
"345 43 OFFCURVE",
"314 79 OFFCURVE",
"314 128 CURVE SMOOTH",
"315 183 OFFCURVE",
"352 211 OFFCURVE",
"401 211 CURVE SMOOTH",
"416 211 OFFCURVE",
"432 208 OFFCURVE",
"449 203 CURVE",
"449 256 LINE",
"430 261 OFFCURVE",
"411 264 OFFCURVE",
"393 264 CURVE SMOOTH",
"317 264 OFFCURVE",
"252 217 OFFCURVE",
"251 127 CURVE SMOOTH",
"251 52 OFFCURVE",
"309 -9 OFFCURVE",
"391 -9 CURVE SMOOTH",
"517 -9 OFFCURVE",
"573 119 OFFCURVE",
"573 260 CURVE SMOOTH",
"573 419 OFFCURVE",
"490 556 OFFCURVE",
"326 556 CURVE SMOOTH",
"209 556 OFFCURVE",
"127 476 OFFCURVE",
"127 364 CURVE SMOOTH",
"127 282 OFFCURVE",
"146 220 OFFCURVE",
"146 145 CURVE SMOOTH",
"146 81 OFFCURVE",
"110 43 OFFCURVE",
"55 43 CURVE SMOOTH",
"-1 43 OFFCURVE",
"-34 79 OFFCURVE",
"-34 155 CURVE"
);
}
);
width = 620;
},
{
layerId = "A41B5407-ACAD-4F97-B91E-44FCF58F9670";
name = Bold;
paths = (
{
closed = 1;
nodes = (
"-109 191 LINE",
"-109 41 OFFCURVE",
"-40 -13 OFFCURVE",
"61 -13 CURVE SMOOTH",
"177 -13 OFFCURVE",
"231 72 OFFCURVE",
"231 171 CURVE SMOOTH",
"231 248 OFFCURVE",
"219 277 OFFCURVE",
"219 336 CURVE SMOOTH",
"219 412 OFFCURVE",
"268 472 OFFCURVE",
"364 472 CURVE SMOOTH",
"473 472 OFFCURVE",
"535 392 OFFCURVE",
"535 264 CURVE SMOOTH",
"535 156 OFFCURVE",
"500 102 OFFCURVE",
"455 102 CURVE SMOOTH",
"421 102 OFFCURVE",
"402 126 OFFCURVE",
"402 156 CURVE SMOOTH",
"402 186 OFFCURVE",
"423 206 OFFCURVE",
"455 206 CURVE SMOOTH",
"465 206 OFFCURVE",
"473 204 OFFCURVE",
"480 201 CURVE",
"480 311 LINE",
"464 315 OFFCURVE",
"447 316 OFFCURVE",
"433 316 CURVE SMOOTH",
"340 316 OFFCURVE",
"275 255 OFFCURVE",
"275 155 CURVE SMOOTH",
"275 70 OFFCURVE",
"339 -10 OFFCURVE",
"460 -10 CURVE SMOOTH",
"598 -10 OFFCURVE",
"665 122 OFFCURVE",
"665 261 CURVE SMOOTH",
"665 436 OFFCURVE",
"571 586 OFFCURVE",
"357 586 CURVE SMOOTH",
"178 586 OFFCURVE",
"84 481 OFFCURVE",
"84 337 CURVE SMOOTH",
"84 277 OFFCURVE",
"98 241 OFFCURVE",
"98 186 CURVE SMOOTH",
"98 134 OFFCURVE",
"81 98 OFFCURVE",
"38 98 CURVE SMOOTH",
"-9 98 OFFCURVE",
"-25 137 OFFCURVE",
"-25 191 CURVE"
);
}
);
width = 705;
}
);
unicode = 0CC2;
},
{
glyphname = knmE;
lastChange = "2015-08-27 17:15:05 +0000";
layers = (
{
layerId = "888EDFF5-A106-43F1-8E82-892DE62A2556";
name = Light;
paths = (
{
closed = 1;
nodes = (
"-180 492 LINE",
"139 492 LINE SMOOTH",
"222 492 OFFCURVE",
"271 537 OFFCURVE",
"271 607 CURVE SMOOTH",
"271 666 OFFCURVE",
"232 717 OFFCURVE",
"158 717 CURVE SMOOTH",
"144 717 OFFCURVE",
"127 716 OFFCURVE",
"113 712 CURVE",
"113 661 LINE",
"126 663 OFFCURVE",
"138 664 OFFCURVE",
"148 664 CURVE SMOOTH",
"190 664 OFFCURVE",
"210 643 OFFCURVE",
"210 607 CURVE SMOOTH",
"210 570 OFFCURVE",
"188 546 OFFCURVE",
"130 546 CURVE SMOOTH",
"-180 546 LINE"
);
}
);
width = 281;
},
{
layerId = "A41B5407-ACAD-4F97-B91E-44FCF58F9670";
name = Bold;
paths = (
{
closed = 1;
nodes = (
"-230 464 LINE",
"141 464 LINE SMOOTH",
"268 464 OFFCURVE",
"342 527 OFFCURVE",
"342 630 CURVE SMOOTH",
"342 709 OFFCURVE",
"288 780 OFFCURVE",
"188 780 CURVE SMOOTH",
"157 780 OFFCURVE",
"129 775 OFFCURVE",
"105 765 CURVE",
"105 655 LINE",
"121 662 OFFCURVE",
"140 665 OFFCURVE",
"155 665 CURVE SMOOTH",
"187 665 OFFCURVE",
"202 646 OFFCURVE",
"202 622 CURVE SMOOTH",
"202 592 OFFCURVE",
"179 576 OFFCURVE",
"139 576 CURVE SMOOTH",
"-230 576 LINE"
);
}
);
width = 0;
}
);
unicode = 0CC6;
},
{
glyphname = knmEE;
lastChange = "2015-08-27 17:15:05 +0000";
layers = (
{
components = (
{
name = knLengthmark;
transform = "{1, 0, 0, 1, 239, 0}";
}
);
layerId = "888EDFF5-A106-43F1-8E82-892DE62A2556";
name = Light;
paths = (
{
closed = 1;
nodes = (
"-171 492 LINE",
"175 492 LINE SMOOTH",
"259 492 OFFCURVE",
"307 537 OFFCURVE",
"307 607 CURVE SMOOTH",
"307 666 OFFCURVE",
"268 717 OFFCURVE",
"193 717 CURVE SMOOTH",
"179 717 OFFCURVE",
"163 716 OFFCURVE",
"149 712 CURVE",
"149 661 LINE",
"161 663 OFFCURVE",
"174 664 OFFCURVE",
"185 664 CURVE SMOOTH",
"225 664 OFFCURVE",
"245 643 OFFCURVE",
"245 607 CURVE SMOOTH",
"245 570 OFFCURVE",
"223 546 OFFCURVE",
"165 546 CURVE SMOOTH",
"-171 546 LINE"
);
}
);
width = 640;
},
{
components = (
{
name = knLengthmark;
transform = "{1, 0, 0, 1, 446, 0}";
}
);
layerId = "A41B5407-ACAD-4F97-B91E-44FCF58F9670";
name = Bold;
paths = (
{
closed = 1;
nodes = (
"-50 464 LINE",
"321 464 LINE SMOOTH",
"448 464 OFFCURVE",
"522 527 OFFCURVE",
"522 630 CURVE SMOOTH",
"522 709 OFFCURVE",
"468 780 OFFCURVE",
"368 780 CURVE SMOOTH",
"337 780 OFFCURVE",
"309 775 OFFCURVE",
"285 765 CURVE",
"285 655 LINE",
"301 662 OFFCURVE",
"320 665 OFFCURVE",
"335 665 CURVE SMOOTH",
"367 665 OFFCURVE",
"382 646 OFFCURVE",
"382 622 CURVE SMOOTH",
"382 592 OFFCURVE",
"359 576 OFFCURVE",
"319 576 CURVE SMOOTH",
"-50 576 LINE"
);
}
);
width = 913;
}
);
unicode = 0CC7;
},
{
glyphname = knmO;
lastChange = "2015-08-27 17:15:05 +0000";
layers = (
{
components = (
{
name = knmUU;
transform = "{1, 0, 0, 1, 94, 0}";
}
);
layerId = "888EDFF5-A106-43F1-8E82-892DE62A2556";
name = Light;
paths = (
{
closed = 1;
nodes = (
"-152 492 LINE",
"111 492 LINE SMOOTH",
"194 492 OFFCURVE",
"243 537 OFFCURVE",
"243 607 CURVE SMOOTH",
"243 666 OFFCURVE",
"204 717 OFFCURVE",
"129 717 CURVE SMOOTH",
"116 717 OFFCURVE",
"99 716 OFFCURVE",
"84 712 CURVE",
"84 661 LINE",
"98 663 OFFCURVE",
"110 664 OFFCURVE",
"120 664 CURVE SMOOTH",
"162 664 OFFCURVE",
"181 643 OFFCURVE",
"181 607 CURVE SMOOTH",
"181 570 OFFCURVE",
"159 546 OFFCURVE",
"101 546 CURVE SMOOTH",
"-152 546 LINE"
);
}
);
width = 715;
},
{
components = (
{
name = knmUU;
transform = "{1, 0, 0, 1, 120, 0}";
}
);
layerId = "A41B5407-ACAD-4F97-B91E-44FCF58F9670";
name = Bold;
paths = (
{
closed = 1;
nodes = (
"-230 464 LINE",
"53 464 LINE SMOOTH",
"180 464 OFFCURVE",
"254 527 OFFCURVE",
"254 630 CURVE SMOOTH",
"254 709 OFFCURVE",
"200 780 OFFCURVE",
"100 780 CURVE SMOOTH",
"69 780 OFFCURVE",
"41 775 OFFCURVE",
"17 765 CURVE",
"17 655 LINE",
"33 662 OFFCURVE",
"52 665 OFFCURVE",
"67 665 CURVE SMOOTH",
"99 665 OFFCURVE",
"114 646 OFFCURVE",
"114 622 CURVE SMOOTH",
"114 592 OFFCURVE",
"91 576 OFFCURVE",
"51 576 CURVE SMOOTH",
"-230 576 LINE"
);
}
);
width = 825;
}
);
unicode = 0CCA;
},
{
glyphname = knmOO;
lastChange = "2015-08-27 17:15:05 +0000";
layers = (
{
components = (
{
name = knLengthmark;
transform = "{1, 0, 0, 1, 704, 0}";
},
{
name = knmUU;
transform = "{1, 0, 0, 1, 94, 0}";
}
);
layerId = "888EDFF5-A106-43F1-8E82-892DE62A2556";
name = Light;
paths = (
{
closed = 1;
nodes = (
"-152 492 LINE",
"111 492 LINE SMOOTH",
"194 492 OFFCURVE",
"243 537 OFFCURVE",
"243 607 CURVE SMOOTH",
"243 666 OFFCURVE",
"204 717 OFFCURVE",
"129 717 CURVE SMOOTH",
"116 717 OFFCURVE",
"99 716 OFFCURVE",
"84 712 CURVE",
"84 661 LINE",
"98 663 OFFCURVE",
"110 664 OFFCURVE",
"120 664 CURVE SMOOTH",
"162 664 OFFCURVE",
"181 643 OFFCURVE",
"181 607 CURVE SMOOTH",
"181 570 OFFCURVE",
"159 546 OFFCURVE",
"101 546 CURVE SMOOTH",
"-152 546 LINE"
);
}
);
width = 1107;
},
{
components = (
{
name = knmUU;
transform = "{1, 0, 0, 1, 119, 0}";
},
{
name = knLengthmark;
transform = "{1, 0, 0, 1, 808, 0}";
}
);
layerId = "A41B5407-ACAD-4F97-B91E-44FCF58F9670";
name = Bold;
paths = (
{
closed = 1;
nodes = (
"-230 464 LINE",
"53 464 LINE SMOOTH",
"180 464 OFFCURVE",
"254 527 OFFCURVE",
"254 630 CURVE SMOOTH",
"254 709 OFFCURVE",
"200 780 OFFCURVE",
"100 780 CURVE SMOOTH",
"69 780 OFFCURVE",
"41 775 OFFCURVE",
"17 765 CURVE",
"17 655 LINE",
"33 662 OFFCURVE",
"52 665 OFFCURVE",
"67 665 CURVE SMOOTH",
"99 665 OFFCURVE",
"114 646 OFFCURVE",
"114 622 CURVE SMOOTH",
"114 592 OFFCURVE",
"91 576 OFFCURVE",
"51 576 CURVE SMOOTH",
"-230 576 LINE"
);
}
);
width = 1275;
}
);
unicode = 0CCB;
},
{
glyphname = knmAU;
lastChange = "2015-08-27 17:15:05 +0000";
layers = (
{
layerId = "888EDFF5-A106-43F1-8E82-892DE62A2556";
name = Light;
paths = (
{
closed = 1;
nodes = (
"637 304 CURVE SMOOTH",
"723 304 OFFCURVE",
"786 364 OFFCURVE",
"786 491 CURVE SMOOTH",
"786 622 OFFCURVE",
"693 717 OFFCURVE",
"569 717 CURVE SMOOTH",
"233 717 LINE",
"233 663 LINE",
"553 663 LINE SMOOTH",
"666 663 OFFCURVE",
"725 593 OFFCURVE",
"725 490 CURVE SMOOTH",
"725 404 OFFCURVE",
"689 356 OFFCURVE",
"637 356 CURVE SMOOTH",
"597 356 OFFCURVE",
"571 376 OFFCURVE",
"571 414 CURVE SMOOTH",
"571 451 OFFCURVE",
"595 477 OFFCURVE",
"634 477 CURVE SMOOTH",
"644 477 OFFCURVE",
"652 476 OFFCURVE",
"662 473 CURVE",
"662 525 LINE",
"650 528 OFFCURVE",
"639 529 OFFCURVE",
"625 529 CURVE SMOOTH",
"560 529 OFFCURVE",
"510 485 OFFCURVE",
"510 418 CURVE SMOOTH",
"510 350 OFFCURVE",
"565 304 OFFCURVE"
);
},
{
closed = 1;
nodes = (
"136 546 LINE",
"136 492 LINE",
"346 492 LINE SMOOTH",
"419 492 OFFCURVE",
"476 528 OFFCURVE",
"476 598 CURVE SMOOTH",
"476 667 OFFCURVE",
"409 692 OFFCURVE",
"339 692 CURVE",
"327 663 LINE",
"386 663 OFFCURVE",
"414 642 OFFCURVE",
"414 605 CURVE SMOOTH",
"414 566 OFFCURVE",
"386 546 OFFCURVE",
"327 546 CURVE SMOOTH"
);
}
);
width = 805;
},
{
layerId = "A41B5407-ACAD-4F97-B91E-44FCF58F9670";
name = Bold;
paths = (
{
closed = 1;
nodes = (
"710 280 CURVE SMOOTH",
"827 280 OFFCURVE",
"903 363 OFFCURVE",
"903 507 CURVE SMOOTH",
"903 657 OFFCURVE",
"807 773 OFFCURVE",
"625 773 CURVE SMOOTH",
"240 773 LINE",
"240 661 LINE",
"608 661 LINE SMOOTH",
"725 661 OFFCURVE",
"777 597 OFFCURVE",
"777 501 CURVE SMOOTH",
"777 436 OFFCURVE",
"752 386 OFFCURVE",
"704 386 CURVE SMOOTH",
"678 386 OFFCURVE",
"662 401 OFFCURVE",
"662 423 CURVE SMOOTH",
"662 448 OFFCURVE",
"680 463 OFFCURVE",
"704 463 CURVE SMOOTH",
"710 463 OFFCURVE",
"718 463 OFFCURVE",
"724 461 CURVE",
"724 555 LINE",
"710 558 OFFCURVE",
"694 559 OFFCURVE",
"681 559 CURVE SMOOTH",
"601 559 OFFCURVE",
"544 503 OFFCURVE",
"544 424 CURVE SMOOTH",
"544 333 OFFCURVE",
"628 280 OFFCURVE"
);
},
{
closed = 1;
nodes = (
"110 576 LINE",
"110 464 LINE",
"334 464 LINE SMOOTH",
"426 464 OFFCURVE",
"504 504 OFFCURVE",
"504 591 CURVE SMOOTH",
"504 681 OFFCURVE",
"410 699 OFFCURVE",
"314 699 CURVE",
"307 661 LINE",
"355 661 OFFCURVE",
"376 646 OFFCURVE",
"376 618 CURVE SMOOTH",
"376 589 OFFCURVE",
"355 576 OFFCURVE",
"317 576 CURVE SMOOTH"
);
}
);
width = 923;
}
);
unicode = 0CCC;
},
{
glyphname = knKA;
lastChange = "2015-08-27 17:15:05 +0000";
layers = (
{
layerId = "888EDFF5-A106-43F1-8E82-892DE62A2556";
name = Light;
paths = (
{
closed = 1;
nodes = (
"270 -9 CURVE SMOOTH",
"402 -9 OFFCURVE",
"491 67 OFFCURVE",
"491 177 CURVE SMOOTH",
"491 287 OFFCURVE",
"400 352 OFFCURVE",
"270 352 CURVE SMOOTH",
"139 352 OFFCURVE",
"49 284 OFFCURVE",
"49 169 CURVE SMOOTH",
"49 62 OFFCURVE",
"139 -9 OFFCURVE"
);
},
{
closed = 1;
nodes = (
"270 43 CURVE SMOOTH",
"174 43 OFFCURVE",
"110 96 OFFCURVE",
"110 177 CURVE SMOOTH",
"110 252 OFFCURVE",
"174 313 OFFCURVE",
"270 313 CURVE SMOOTH",
"366 313 OFFCURVE",
"430 253 OFFCURVE",
"430 180 CURVE SMOOTH",
"430 98 OFFCURVE",
"366 43 OFFCURVE"
);
},
{
closed = 1;
nodes = (
"38 312 LINE",
"209 312 LINE",
"267 330 LINE",
"333 312 LINE",
"506 312 LINE",
"506 366 LINE",
"38 366 LINE"
);
},
{
closed = 1;
nodes = (
"237 350 LINE",
"299 350 LINE",
"299 515 LINE",
"237 515 LINE"
);
},
{
closed = 1;
nodes = (
"38 492 LINE",
"399 492 LINE SMOOTH",
"473 492 OFFCURVE",
"506 523 OFFCURVE",
"506 577 CURVE SMOOTH",
"506 590 OFFCURVE",
"504 602 OFFCURVE",
"500 615 CURVE",
"442 615 LINE",
"444 606 OFFCURVE",
"445 598 OFFCURVE",
"445 591 CURVE SMOOTH",
"445 560 OFFCURVE",
"424 546 OFFCURVE",
"384 546 CURVE SMOOTH",
"38 546 LINE"
);
}
);
width = 544;
},
{
layerId = "A41B5407-ACAD-4F97-B91E-44FCF58F9670";
name = Bold;
paths = (
{
closed = 1;
nodes = (
"317 -10 CURVE SMOOTH",
"489 -10 OFFCURVE",
"589 76 OFFCURVE",
"589 177 CURVE SMOOTH",
"589 286 OFFCURVE",
"461 336 OFFCURVE",
"317 336 CURVE SMOOTH",
"162 336 OFFCURVE",
"45 277 OFFCURVE",
"45 169 CURVE SMOOTH",
"45 47 OFFCURVE",
"151 -10 OFFCURVE"
);
},
{
closed = 1;
nodes = (
"317 105 CURVE SMOOTH",
"233 105 OFFCURVE",
"187 134 OFFCURVE",
"187 196 CURVE SMOOTH",
"187 257 OFFCURVE",
"235 294 OFFCURVE",
"317 294 CURVE SMOOTH",
"402 294 OFFCURVE",
"447 256 OFFCURVE",
"447 199 CURVE SMOOTH",
"447 143 OFFCURVE",
"399 105 OFFCURVE"
);
},
{
closed = 1;
nodes = (
"30 274 LINE",
"191 274 LINE",
"314 312 LINE",
"453 274 LINE",
"604 274 LINE",
"604 386 LINE",
"30 386 LINE"
);
},
{
closed = 1;
nodes = (
"244 359 LINE",
"386 359 LINE",
"386 477 LINE",
"244 477 LINE"
);
},
{
closed = 1;
nodes = (
"30 464 LINE",
"445 464 LINE SMOOTH",
"548 464 OFFCURVE",
"609 503 OFFCURVE",
"609 585 CURVE SMOOTH",
"609 606 OFFCURVE",
"604 627 OFFCURVE",
"595 649 CURVE",
"473 649 LINE",
"477 639 OFFCURVE",
"479 629 OFFCURVE",
"479 619 CURVE SMOOTH",
"479 589 OFFCURVE",
"456 576 OFFCURVE",
"416 576 CURVE SMOOTH",
"30 576 LINE"
);
}
);
width = 639;
}
);
unicode = 0C95;
},
{
glyphname = knKHA;
lastChange = "2015-08-27 17:15:05 +0000";
layers = (
{
layerId = "888EDFF5-A106-43F1-8E82-892DE62A2556";
name = Light;
paths = (
{
closed = 1;
nodes = (
"205 -9 CURVE SMOOTH",
"387 -9 OFFCURVE",
"512 148 OFFCURVE",
"512 330 CURVE SMOOTH",
"512 464 OFFCURVE",
"434 556 OFFCURVE",
"325 556 CURVE SMOOTH",
"242 556 OFFCURVE",
"186 507 OFFCURVE",
"186 438 CURVE SMOOTH",
"186 374 OFFCURVE",
"237 330 OFFCURVE",
"303 330 CURVE SMOOTH",
"339 330 OFFCURVE",
"362 334 OFFCURVE",
"391 348 CURVE",
"391 399 LINE",
"365 389 OFFCURVE",
"341 383 OFFCURVE",
"318 383 CURVE SMOOTH",
"273 383 OFFCURVE",
"248 405 OFFCURVE",
"248 441 CURVE SMOOTH",
"248 476 OFFCURVE",
"274 503 OFFCURVE",
"324 503 CURVE SMOOTH",
"396 503 OFFCURVE",
"451 433 OFFCURVE",
"451 331 CURVE SMOOTH",
"451 179 OFFCURVE",
"351 43 OFFCURVE",
"207 43 CURVE SMOOTH",
"137 43 OFFCURVE",
"90 69 OFFCURVE",
"90 116 CURVE SMOOTH",
"90 153 OFFCURVE",
"118 182 OFFCURVE",
"169 182 CURVE SMOOTH",
"289 182 OFFCURVE",
"378 -9 OFFCURVE",
"558 -9 CURVE SMOOTH",
"701 -9 OFFCURVE",
"793 101 OFFCURVE",
"793 277 CURVE SMOOTH",
"793 436 OFFCURVE",
"706 543 OFFCURVE",
"567 546 CURVE",
"567 490 LINE",
"675 482 OFFCURVE",
"731 402 OFFCURVE",
"731 273 CURVE SMOOTH",
"731 133 OFFCURVE",
"662 45 OFFCURVE",
"556 45 CURVE SMOOTH",
"409 45 OFFCURVE",
"319 235 OFFCURVE",
"159 235 CURVE SMOOTH",
"84 235 OFFCURVE",
"28 183 OFFCURVE",
"28 118 CURVE SMOOTH",
"28 38 OFFCURVE",
"97 -9 OFFCURVE"
);
}
);
width = 839;
},
{
layerId = "A41B5407-ACAD-4F97-B91E-44FCF58F9670";
name = Bold;
paths = (
{
closed = 1;
nodes = (
"240 -10 CURVE SMOOTH",
"466 -10 OFFCURVE",
"597 162 OFFCURVE",
"597 331 CURVE SMOOTH",
"597 478 OFFCURVE",
"503 586 OFFCURVE",
"373 586 CURVE SMOOTH",
"263 586 OFFCURVE",
"200 520 OFFCURVE",
"200 442 CURVE SMOOTH",
"200 360 OFFCURVE",
"268 316 OFFCURVE",
"340 316 CURVE SMOOTH",
"371 316 OFFCURVE",
"399 321 OFFCURVE",
"423 335 CURVE",
"423 431 LINE",
"406 419 OFFCURVE",
"389 413 OFFCURVE",
"368 413 CURVE SMOOTH",
"342 413 OFFCURVE",
"324 421 OFFCURVE",
"324 441 CURVE SMOOTH",
"324 462 OFFCURVE",
"340 474 OFFCURVE",
"373 474 CURVE SMOOTH",
"435 474 OFFCURVE",
"467 413 OFFCURVE",
"467 339 CURVE SMOOTH",
"467 207 OFFCURVE",
"393 102 OFFCURVE",
"242 102 CURVE SMOOTH",
"193 102 OFFCURVE",
"152 115 OFFCURVE",
"152 151 CURVE SMOOTH",
"152 174 OFFCURVE",
"170 192 OFFCURVE",
"202 192 CURVE SMOOTH",
"325 192 OFFCURVE",
"437 -9 OFFCURVE",
"626 -9 CURVE SMOOTH",
"792 -9 OFFCURVE",
"901 104 OFFCURVE",
"901 287 CURVE SMOOTH",
"901 448 OFFCURVE",
"819 575 OFFCURVE",
"632 575 CURVE",
"632 460 LINE",
"726 452 OFFCURVE",
"759 377 OFFCURVE",
"759 289 CURVE SMOOTH",
"759 194 OFFCURVE",
"720 117 OFFCURVE",
"618 117 CURVE SMOOTH",
"464 117 OFFCURVE",
"376 308 OFFCURVE",
"185 308 CURVE SMOOTH",
"86 308 OFFCURVE",
"20 245 OFFCURVE",
"20 153 CURVE SMOOTH",
"20 58 OFFCURVE",
"101 -10 OFFCURVE"
);
}
);
width = 941;
}
);
unicode = 0C96;
},
{
glyphname = knGA;
lastChange = "2015-08-27 17:15:05 +0000";
layers = (
{
layerId = "888EDFF5-A106-43F1-8E82-892DE62A2556";
name = Light;
paths = (
{
closed = 1;
nodes = (
"141 1 LINE",
"120 67 OFFCURVE",
"110 148 OFFCURVE",
"110 222 CURVE SMOOTH",
"110 367 OFFCURVE",
"155 492 OFFCURVE",
"259 492 CURVE SMOOTH",
"362 492 OFFCURVE",
"407 367 OFFCURVE",
"407 222 CURVE SMOOTH",
"407 148 OFFCURVE",
"396 66 OFFCURVE",
"375 0 CURVE",
"441 0 LINE",
"459 67 OFFCURVE",
"470 149 OFFCURVE",
"470 222 CURVE SMOOTH",
"470 397 OFFCURVE",
"403 540 OFFCURVE",
"259 540 CURVE SMOOTH",
"115 540 OFFCURVE",
"46 397 OFFCURVE",
"46 222 CURVE SMOOTH",
"46 149 OFFCURVE",
"56 68 OFFCURVE",
"76 1 CURVE"
);
},
{
closed = 1;
nodes = (
"38 492 LINE",
"396 492 LINE SMOOTH",
"469 492 OFFCURVE",
"503 523 OFFCURVE",
"503 577 CURVE SMOOTH",
"503 590 OFFCURVE",
"500 602 OFFCURVE",
"496 615 CURVE",
"438 615 LINE",
"440 606 OFFCURVE",
"441 598 OFFCURVE",
"441 591 CURVE SMOOTH",
"441 560 OFFCURVE",
"421 546 OFFCURVE",
"380 546 CURVE SMOOTH",
"38 546 LINE"
);
}
);
width = 540;
},
{
layerId = "A41B5407-ACAD-4F97-B91E-44FCF58F9670";
name = Bold;
paths = (
{
closed = 1;
nodes = (
"207 0 LINE",
"189 58 OFFCURVE",
"178 121 OFFCURVE",
"178 206 CURVE SMOOTH",
"178 322 OFFCURVE",
"199 464 OFFCURVE",
"292 464 CURVE",
"384 464 OFFCURVE",
"406 322 OFFCURVE",
"406 206 CURVE SMOOTH",
"406 121 OFFCURVE",
"395 58 OFFCURVE",
"377 0 CURVE",
"526 0 LINE",
"540 51 OFFCURVE",
"549 115 OFFCURVE",
"549 181 CURVE SMOOTH",
"549 353 OFFCURVE",
"496 540 OFFCURVE",
"292 540 CURVE",
"88 540 OFFCURVE",
"35 353 OFFCURVE",
"35 181 CURVE SMOOTH",
"35 115 OFFCURVE",
"44 51 OFFCURVE",
"58 0 CURVE"
);
},
{
closed = 1;
nodes = (
"30 464 LINE",
"405 464 LINE SMOOTH",
"508 464 OFFCURVE",
"569 503 OFFCURVE",
"569 585 CURVE SMOOTH",
"569 606 OFFCURVE",
"564 627 OFFCURVE",
"555 649 CURVE",
"433 649 LINE",
"437 639 OFFCURVE",
"439 629 OFFCURVE",
"439 619 CURVE SMOOTH",
"439 589 OFFCURVE",
"416 576 OFFCURVE",
"376 576 CURVE SMOOTH",
"30 576 LINE"
);
}
);
width = 599;
}
);
unicode = 0C97;
},
{
glyphname = knGHA;
lastChange = "2015-08-27 17:15:05 +0000";
layers = (
{
layerId = "888EDFF5-A106-43F1-8E82-892DE62A2556";
name = Light;
paths = (
{
closed = 1;
nodes = (
"211 -9 CURVE SMOOTH",
"289 -9 OFFCURVE",
"345 30 OFFCURVE",
"355 99 CURVE",
"366 30 OFFCURVE",
"418 -9 OFFCURVE",
"492 -9 CURVE",
"595 -9 OFFCURVE",
"665 61 OFFCURVE",
"665 183 CURVE SMOOTH",
"665 288 OFFCURVE",
"599 362 OFFCURVE",
"511 362 CURVE SMOOTH",
"500 362 OFFCURVE",
"489 361 OFFCURVE",
"478 359 CURVE",
"478 302 LINE",
"488 304 OFFCURVE",
"497 305 OFFCURVE",
"507 305 CURVE SMOOTH",
"564 305 OFFCURVE",
"603 259 OFFCURVE",
"603 185 CURVE SMOOTH",
"603 94 OFFCURVE",
"558 43 OFFCURVE",
"492 43 CURVE SMOOTH",
"422 43 OFFCURVE",
"386 98 OFFCURVE",
"386 165 CURVE SMOOTH",
"386 209 LINE",
"324 209 LINE",
"324 165 LINE SMOOTH",
"324 92 OFFCURVE",
"279 43 OFFCURVE",
"211 43 CURVE SMOOTH",
"138 43 OFFCURVE",
"99 93 OFFCURVE",
"99 156 CURVE SMOOTH",
"99 222 OFFCURVE",
"137 267 OFFCURVE",
"195 267 CURVE SMOOTH",
"204 267 OFFCURVE",
"214 266 OFFCURVE",
"224 265 CURVE",
"224 321 LINE",
"214 323 OFFCURVE",
"201 325 OFFCURVE",
"192 325 CURVE SMOOTH",
"102 325 OFFCURVE",
"38 252 OFFCURVE",
"38 155 CURVE SMOOTH",
"38 60 OFFCURVE",
"103 -9 OFFCURVE"
);
},
{
closed = 1;
nodes = (
"313 -185 LINE",
"400 -185 LINE",
"400 -171 LINE",
"370 5 LINE",
"343 5 LINE",
"313 -171 LINE"
);
},
{
closed = 1;
nodes = (
"355 319 CURVE SMOOTH",
"386 319 OFFCURVE",
"407 342 OFFCURVE",
"407 371 CURVE SMOOTH",
"407 402 OFFCURVE",
"386 424 OFFCURVE",
"355 424 CURVE SMOOTH",
"326 424 OFFCURVE",
"303 402 OFFCURVE",
"303 371 CURVE SMOOTH",
"303 342 OFFCURVE",
"326 319 OFFCURVE"
);
},
{
closed = 1;
nodes = (
"60 492 LINE",
"531 492 LINE SMOOTH",
"605 492 OFFCURVE",
"638 523 OFFCURVE",
"638 577 CURVE SMOOTH",
"638 590 OFFCURVE",
"636 602 OFFCURVE",
"632 615 CURVE",
"575 615 LINE",
"577 606 OFFCURVE",
"578 598 OFFCURVE",
"578 591 CURVE SMOOTH",
"578 560 OFFCURVE",
"557 546 OFFCURVE",
"516 546 CURVE SMOOTH",
"60 546 LINE"
);
},
{
closed = 1;
nodes = (
"687 273 CURVE SMOOTH",
"742 273 OFFCURVE",
"776 308 OFFCURVE",
"776 356 CURVE SMOOTH",
"776 374 OFFCURVE",
"772 395 OFFCURVE",
"760 416 CURVE",
"699 416 LINE",
"712 396 OFFCURVE",
"716 378 OFFCURVE",
"716 360 CURVE SMOOTH",
"716 337 OFFCURVE",
"699 319 OFFCURVE",
"669 319 CURVE SMOOTH",
"631 319 OFFCURVE",
"610 331 OFFCURVE",
"569 350 CURVE",
"563 337 LINE",
"601 298 OFFCURVE",
"629 273 OFFCURVE"
);
}
);
width = 795;
},
{
layerId = "A41B5407-ACAD-4F97-B91E-44FCF58F9670";
name = Bold;
paths = (
{
closed = 1;
nodes = (
"233 -10 CURVE SMOOTH",
"318 -10 OFFCURVE",
"380 38 OFFCURVE",
"395 114 CURVE",
"407 35 OFFCURVE",
"475 -10 OFFCURVE",
"558 -10 CURVE SMOOTH",
"685 -10 OFFCURVE",
"757 89 OFFCURVE",
"757 200 CURVE SMOOTH",
"757 315 OFFCURVE",
"681 393 OFFCURVE",
"578 393 CURVE SMOOTH",
"562 393 OFFCURVE",
"545 391 OFFCURVE",
"527 387 CURVE",
"527 275 LINE",
"534 277 OFFCURVE",
"541 278 OFFCURVE",
"548 278 CURVE SMOOTH",
"592 278 OFFCURVE",
"615 248 OFFCURVE",
"615 200 CURVE SMOOTH",
"615 151 OFFCURVE",
"592 106 OFFCURVE",
"542 106 CURVE",
"488 106 OFFCURVE",
"466 151 OFFCURVE",
"466 210 CURVE SMOOTH",
"466 246 LINE",
"324 246 LINE",
"324 210 LINE SMOOTH",
"324 147 OFFCURVE",
"296 106 OFFCURVE",
"245 106 CURVE SMOOTH",
"202 106 OFFCURVE",
"172 132 OFFCURVE",
"172 184 CURVE SMOOTH",
"172 226 OFFCURVE",
"199 257 OFFCURVE",
"239 257 CURVE SMOOTH",
"246 257 OFFCURVE",
"253 256 OFFCURVE",
"260 254 CURVE",
"260 366 LINE",
"242 370 OFFCURVE",
"225 372 OFFCURVE",
"209 372 CURVE SMOOTH",
"106 372 OFFCURVE",
"30 299 OFFCURVE",
"30 184 CURVE SMOOTH",
"30 69 OFFCURVE",
"106 -10 OFFCURVE"
);
},
{
closed = 1;
nodes = (
"317 -186 LINE",
"471 -186 LINE",
"471 -171 LINE",
"427 14 LINE",
"361 14 LINE",
"317 -171 LINE"
);
},
{
closed = 1;
nodes = (
"396 289 CURVE SMOOTH",
"437 289 OFFCURVE",
"468 320 OFFCURVE",
"468 361 CURVE SMOOTH",
"468 402 OFFCURVE",
"437 433 OFFCURVE",
"396 433 CURVE SMOOTH",
"355 433 OFFCURVE",
"324 402 OFFCURVE",
"324 361 CURVE SMOOTH",
"324 320 OFFCURVE",
"355 289 OFFCURVE"
);
},
{
closed = 1;
nodes = (
"44 464 LINE",
"576 464 LINE SMOOTH",
"679 464 OFFCURVE",
"740 503 OFFCURVE",
"740 585 CURVE SMOOTH",
"740 606 OFFCURVE",
"735 627 OFFCURVE",
"726 649 CURVE",
"604 649 LINE",
"608 639 OFFCURVE",
"610 629 OFFCURVE",
"610 619 CURVE SMOOTH",
"610 589 OFFCURVE",
"587 576 OFFCURVE",
"547 576 CURVE SMOOTH",
"44 576 LINE"
);
},
{
closed = 1;
nodes = (
"783 269 CURVE SMOOTH",
"849 269 OFFCURVE",
"887 313 OFFCURVE",
"887 375 CURVE SMOOTH",
"887 399 OFFCURVE",
"880 427 OFFCURVE",
"866 448 CURVE",
"750 448 LINE",
"759 434 OFFCURVE",
"765 414 OFFCURVE",
"765 399 CURVE SMOOTH",
"765 369 OFFCURVE",
"746 355 OFFCURVE",
"720 355 CURVE SMOOTH",
"698 355 OFFCURVE",
"681 363 OFFCURVE",
"660 374 CURVE",
"648 365 LINE",
"672 321 OFFCURVE",
"719 269 OFFCURVE"
);
}
);
width = 907;
}
);
unicode = 0C98;
},
{
glyphname = knNGA;
lastChange = "2015-08-27 17:15:05 +0000";
layers = (
{
layerId = "888EDFF5-A106-43F1-8E82-892DE62A2556";
name = Light;
paths = (
{
closed = 1;
nodes = (
"209 -9 CURVE SMOOTH",
"288 -9 OFFCURVE",
"355 32 OFFCURVE",
"370 99 CURVE",
"379 35 OFFCURVE",
"432 -9 OFFCURVE",
"520 -9 CURVE SMOOTH",
"623 -9 OFFCURVE",
"686 61 OFFCURVE",
"686 157 CURVE SMOOTH",
"686 187 OFFCURVE",
"681 210 OFFCURVE",
"675 228 CURVE",
"612 228 LINE",
"619 211 OFFCURVE",
"625 188 OFFCURVE",
"625 160 CURVE SMOOTH",
"625 98 OFFCURVE",
"593 43 OFFCURVE",
"517 43 CURVE SMOOTH",
"442 43 OFFCURVE",
"401 92 OFFCURVE",
"401 165 CURVE",
"401 208 LINE",
"339 208 LINE",
"339 165 LINE",
"339 96 OFFCURVE",
"284 43 OFFCURVE",
"214 43 CURVE SMOOTH",
"148 43 OFFCURVE",
"110 79 OFFCURVE",
"110 132 CURVE SMOOTH",
"110 260 OFFCURVE",
"328 284 OFFCURVE",
"328 426 CURVE SMOOTH",
"328 494 OFFCURVE",
"283 557 OFFCURVE",
"196 557 CURVE SMOOTH",
"111 557 OFFCURVE",
"60 500 OFFCURVE",
"60 424 CURVE SMOOTH",
"60 410 OFFCURVE",
"61 395 OFFCURVE",
"65 380 CURVE",
"125 380 LINE",
"121 394 OFFCURVE",
"119 407 OFFCURVE",
"119 420 CURVE SMOOTH",
"119 476 OFFCURVE",
"153 504 OFFCURVE",
"196 504 CURVE SMOOTH",
"242 504 OFFCURVE",
"268 472 OFFCURVE",
"268 424 CURVE SMOOTH",
"268 315 OFFCURVE",
"47 287 OFFCURVE",
"47 132 CURVE SMOOTH",
"47 47 OFFCURVE",
"115 -9 OFFCURVE"
);
},
{
closed = 1;
nodes = (
"487 265 CURVE SMOOTH",
"516 265 OFFCURVE",
"539 286 OFFCURVE",
"539 317 CURVE SMOOTH",
"539 346 OFFCURVE",
"516 369 OFFCURVE",
"487 369 CURVE SMOOTH",
"457 369 OFFCURVE",
"435 346 OFFCURVE",
"435 317 CURVE SMOOTH",
"435 286 OFFCURVE",
"457 265 OFFCURVE"
);
},
{
closed = 1;
nodes = (
"268 311 LINE",
"406 422 LINE SMOOTH",
"440 450 OFFCURVE",
"508 504 OFFCURVE",
"564 504 CURVE SMOOTH",
"607 504 OFFCURVE",
"627 475 OFFCURVE",
"627 439 CURVE SMOOTH",
"627 423 OFFCURVE",
"624 405 OFFCURVE",
"617 386 CURVE",
"679 386 LINE",
"685 403 OFFCURVE",
"687 422 OFFCURVE",
"687 440 CURVE SMOOTH",
"687 509 OFFCURVE",
"648 557 OFFCURVE",
"567 557 CURVE SMOOTH",
"488 557 OFFCURVE",
"430 510 OFFCURVE",
"367 458 CURVE SMOOTH",
"286 392 LINE"
);
}
);
width = 724;
},
{
layerId = "A41B5407-ACAD-4F97-B91E-44FCF58F9670";
name = Bold;
paths = (
{
closed = 1;
nodes = (
"236 -10 CURVE SMOOTH",
"333 -10 OFFCURVE",
"407 33 OFFCURVE",
"420 114 CURVE",
"431 39 OFFCURVE",
"490 -10 OFFCURVE",
"597 -10 CURVE SMOOTH",
"714 -10 OFFCURVE",
"785 61 OFFCURVE",
"785 154 CURVE SMOOTH",
"785 182 OFFCURVE",
"779 214 OFFCURVE",
"767 240 CURVE",
"629 240 LINE",
"642 219 OFFCURVE",
"646 196 OFFCURVE",
"646 174 CURVE SMOOTH",
"646 138 OFFCURVE",
"629 106 OFFCURVE",
"580 106 CURVE SMOOTH",
"519 106 OFFCURVE",
"491 147 OFFCURVE",
"491 210 CURVE SMOOTH",
"491 231 LINE",
"349 231 LINE",
"349 210 LINE SMOOTH",
"349 144 OFFCURVE",
"313 106 OFFCURVE",
"250 106 CURVE SMOOTH",
"216 106 OFFCURVE",
"181 120 OFFCURVE",
"181 160 CURVE SMOOTH",
"181 260 OFFCURVE",
"386 296 OFFCURVE",
"386 437 CURVE SMOOTH",
"386 529 OFFCURVE",
"309 587 OFFCURVE",
"222 587 CURVE SMOOTH",
"112 587 OFFCURVE",
"52 525 OFFCURVE",
"52 443 CURVE SMOOTH",
"52 425 OFFCURVE",
"54 406 OFFCURVE",
"60 389 CURVE",
"192 389 LINE",
"187 400 OFFCURVE",
"184 413 OFFCURVE",
"184 425 CURVE SMOOTH",
"184 449 OFFCURVE",
"195 470 OFFCURVE",
"221 470 CURVE SMOOTH",
"245 470 OFFCURVE",
"255 455 OFFCURVE",
"255 433 CURVE SMOOTH",
"255 351 OFFCURVE",
"40 308 OFFCURVE",
"40 154 CURVE SMOOTH",
"40 53 OFFCURVE",
"119 -10 OFFCURVE"
);
},
{
closed = 1;
nodes = (
"541 260 CURVE SMOOTH",
"582 260 OFFCURVE",
"613 291 OFFCURVE",
"613 332 CURVE SMOOTH",
"613 373 OFFCURVE",
"582 404 OFFCURVE",
"541 404 CURVE SMOOTH",
"500 404 OFFCURVE",
"469 373 OFFCURVE",
"469 332 CURVE SMOOTH",
"469 291 OFFCURVE",
"500 260 OFFCURVE"
);
},
{
closed = 1;
nodes = (
"303 299 LINE",
"440 398 LINE SMOOTH",
"504 444 OFFCURVE",
"555 470 OFFCURVE",
"597 470 CURVE SMOOTH",
"635 470 OFFCURVE",
"654 452 OFFCURVE",
"654 420 CURVE SMOOTH",
"654 410 OFFCURVE",
"651 397 OFFCURVE",
"648 388 CURVE",
"783 388 LINE",
"789 405 OFFCURVE",
"791 433 OFFCURVE",
"791 448 CURVE SMOOTH",
"791 533 OFFCURVE",
"721 586 OFFCURVE",
"622 586 CURVE SMOOTH",
"552 586 OFFCURVE",
"490 559 OFFCURVE",
"428 517 CURVE SMOOTH",
"340 457 LINE"
);
}
);
width = 821;
}
);
unicode = 0C99;
},
{
glyphname = knCA;
lastChange = "2015-08-27 17:15:05 +0000";
layers = (
{
layerId = "888EDFF5-A106-43F1-8E82-892DE62A2556";
name = Light;
paths = (
{
closed = 1;
nodes = (
"199 -9 CURVE SMOOTH",
"280 -9 OFFCURVE",
"338 30 OFFCURVE",
"354 99 CURVE",
"365 30 OFFCURVE",
"417 -9 OFFCURVE",
"492 -9 CURVE SMOOTH",
"597 -9 OFFCURVE",
"663 60 OFFCURVE",
"663 163 CURVE SMOOTH",
"663 268 OFFCURVE",
"569 334 OFFCURVE",
"462 334 CURVE SMOOTH",
"452 334 OFFCURVE",
"440 334 OFFCURVE",
"430 332 CURVE",
"424 310 LINE",
"534 310 OFFCURVE",
"602 252 OFFCURVE",
"602 165 CURVE SMOOTH",
"602 93 OFFCURVE",
"566 43 OFFCURVE",
"492 43 CURVE SMOOTH",
"428 43 OFFCURVE",
"386 94 OFFCURVE",
"386 165 CURVE SMOOTH",
"386 209 LINE",
"324 209 LINE",
"324 165 LINE SMOOTH",
"324 96 OFFCURVE",
"275 43 OFFCURVE",
"204 43 CURVE SMOOTH",
"140 43 OFFCURVE",
"105 79 OFFCURVE",
"105 132 CURVE SMOOTH",
"105 265 OFFCURVE",
"329 276 OFFCURVE",
"329 423 CURVE SMOOTH",
"329 492 OFFCURVE",
"283 557 OFFCURVE",
"195 557 CURVE SMOOTH",
"110 557 OFFCURVE",
"58 500 OFFCURVE",
"58 423 CURVE SMOOTH",
"58 409 OFFCURVE",
"60 394 OFFCURVE",
"64 379 CURVE",
"124 379 LINE",
"121 394 OFFCURVE",
"119 407 OFFCURVE",
"119 420 CURVE SMOOTH",
"119 476 OFFCURVE",
"153 504 OFFCURVE",
"195 504 CURVE SMOOTH",
"242 504 OFFCURVE",
"269 471 OFFCURVE",
"269 422 CURVE SMOOTH",
"269 303 OFFCURVE",
"41 293 OFFCURVE",
"41 132 CURVE SMOOTH",
"41 47 OFFCURVE",
"107 -9 OFFCURVE"
);
},
{
closed = 1;
nodes = (
"424 492 LINE",
"567 492 LINE SMOOTH",
"641 492 OFFCURVE",
"674 523 OFFCURVE",
"674 577 CURVE SMOOTH",
"674 590 OFFCURVE",
"672 602 OFFCURVE",
"668 615 CURVE",
"610 615 LINE",
"612 606 OFFCURVE",
"613 598 OFFCURVE",
"613 591 CURVE SMOOTH",
"613 560 OFFCURVE",
"592 546 OFFCURVE",
"552 546 CURVE SMOOTH",
"424 546 LINE"
);
},
{
closed = 1;
nodes = (
"573 347 LINE",
"573 427 LINE",
"573 496 OFFCURVE",
"507 521 OFFCURVE",
"437 521 CURVE",
"425 492 LINE",
"485 492 OFFCURVE",
"513 471 OFFCURVE",
"513 433 CURVE",
"513 347 LINE"
);
},
{
closed = 1;
nodes = (
"424 310 LINE",
"670 310 LINE",
"670 364 LINE",
"424 364 LINE"
);
}
);
width = 724;
},
{
layerId = "A41B5407-ACAD-4F97-B91E-44FCF58F9670";
name = Bold;
paths = (
{
closed = 1;
nodes = (
"226 -10 CURVE SMOOTH",
"323 -10 OFFCURVE",
"397 33 OFFCURVE",
"410 114 CURVE",
"421 39 OFFCURVE",
"483 -10 OFFCURVE",
"578 -10 CURVE SMOOTH",
"701 -10 OFFCURVE",
"775 60 OFFCURVE",
"775 159 CURVE SMOOTH",
"775 267 OFFCURVE",
"675 316 OFFCURVE",
"562 316 CURVE SMOOTH",
"528 316 OFFCURVE",
"519 314 OFFCURVE",
"500 310 CURVE",
"500 279 LINE",
"564 279 OFFCURVE",
"634 260 OFFCURVE",
"634 181 CURVE SMOOTH",
"634 137 OFFCURVE",
"611 106 OFFCURVE",
"567 106 CURVE SMOOTH",
"509 106 OFFCURVE",
"481 147 OFFCURVE",
"481 210 CURVE SMOOTH",
"481 244 LINE",
"339 244 LINE",
"339 210 LINE SMOOTH",
"339 144 OFFCURVE",
"303 106 OFFCURVE",
"240 106 CURVE SMOOTH",
"206 106 OFFCURVE",
"171 120 OFFCURVE",
"171 160 CURVE SMOOTH",
"171 250 OFFCURVE",
"396 276 OFFCURVE",
"396 427 CURVE SMOOTH",
"396 527 OFFCURVE",
"319 587 OFFCURVE",
"222 587 CURVE SMOOTH",
"105 587 OFFCURVE",
"44 517 OFFCURVE",
"44 430 CURVE SMOOTH",
"44 414 OFFCURVE",
"46 401 OFFCURVE",
"50 384 CURVE",
"182 384 LINE",
"179 396 OFFCURVE",
"177 406 OFFCURVE",
"177 418 CURVE SMOOTH",
"177 447 OFFCURVE",
"190 470 OFFCURVE",
"222 470 CURVE SMOOTH",
"249 470 OFFCURVE",
"265 450 OFFCURVE",
"265 423 CURVE SMOOTH",
"265 334 OFFCURVE",
"30 318 OFFCURVE",
"30 154 CURVE SMOOTH",
"30 53 OFFCURVE",
"109 -10 OFFCURVE"
);
},
{
closed = 1;
nodes = (
"500 469 LINE",
"650 469 LINE SMOOTH",
"753 469 OFFCURVE",
"814 503 OFFCURVE",
"814 585 CURVE SMOOTH",
"814 606 OFFCURVE",
"809 627 OFFCURVE",
"800 649 CURVE",
"678 649 LINE",
"682 639 OFFCURVE",
"684 629 OFFCURVE",
"684 619 CURVE SMOOTH",
"684 589 OFFCURVE",
"661 576 OFFCURVE",
"621 576 CURVE SMOOTH",
"500 576 LINE"
);
},
{
closed = 1;
nodes = (
"704 286 LINE",
"704 399 LINE SMOOTH",
"704 489 OFFCURVE",
"610 507 OFFCURVE",
"514 507 CURVE",
"507 469 LINE",
"555 469 OFFCURVE",
"585 444 OFFCURVE",
"585 404 CURVE SMOOTH",
"585 286 LINE"
);
},
{
closed = 1;
nodes = (
"500 279 LINE",
"804 279 LINE",
"804 386 LINE",
"500 386 LINE"
);
}
);
width = 854;
}
);
unicode = 0C9A;
},
{
glyphname = knCHA;
lastChange = "2015-08-27 17:15:05 +0000";
layers = (
{
layerId = "888EDFF5-A106-43F1-8E82-892DE62A2556";
name = Light;
paths = (
{
closed = 1;
nodes = (
"248 -9 CURVE SMOOTH",
"319 -9 OFFCURVE",
"373 30 OFFCURVE",
"389 99 CURVE",
"399 30 OFFCURVE",
"452 -9 OFFCURVE",
"528 -9 CURVE SMOOTH",
"638 -9 OFFCURVE",
"718 77 OFFCURVE",
"718 234 CURVE SMOOTH",
"718 372 OFFCURVE",
"637 520 OFFCURVE",
"485 520 CURVE SMOOTH",
"472 520 OFFCURVE",
"464 518 OFFCURVE",
"451 516 CURVE",
"441 492 LINE",
"589 491 OFFCURVE",
"656 352 OFFCURVE",
"656 235 CURVE SMOOTH",
"656 108 OFFCURVE",
"602 43 OFFCURVE",
"527 43 CURVE SMOOTH",
"458 43 OFFCURVE",
"420 96 OFFCURVE",
"420 165 CURVE",
"420 208 LINE",
"358 208 LINE",
"358 165 LINE",
"358 97 OFFCURVE",
"311 43 OFFCURVE",
"245 43 CURVE SMOOTH",
"141 43 OFFCURVE",
"103 153 OFFCURVE",
"103 268 CURVE SMOOTH",
"103 314 OFFCURVE",
"113 372 OFFCURVE",
"122 414 CURVE",
"106 415 LINE",
"106 333 OFFCURVE",
"158 277 OFFCURVE",
"235 277 CURVE SMOOTH",
"316 277 OFFCURVE",
"373 341 OFFCURVE",
"373 418 CURVE SMOOTH",
"373 492 OFFCURVE",
"317 556 OFFCURVE",
"235 556 CURVE SMOOTH",
"116 556 OFFCURVE",
"47 417 OFFCURVE",
"47 266 CURVE SMOOTH",
"47 141 OFFCURVE",
"92 -9 OFFCURVE"
);
},
{
closed = 1;
nodes = (
"343 -186 LINE",
"430 -186 LINE",
"430 -172 LINE",
"400 4 LINE",
"373 4 LINE",
"343 -172 LINE"
);
},
{
closed = 1;
nodes = (
"233 329 CURVE SMOOTH",
"178 329 OFFCURVE",
"145 368 OFFCURVE",
"145 413 CURVE SMOOTH",
"145 462 OFFCURVE",
"182 503 OFFCURVE",
"230 503 CURVE SMOOTH",
"280 503 OFFCURVE",
"311 465 OFFCURVE",
"311 417 CURVE SMOOTH",
"311 370 OFFCURVE",
"282 329 OFFCURVE"
);
},
{
closed = 1;
nodes = (
"441 492 LINE",
"597 492 LINE SMOOTH",
"671 492 OFFCURVE",
"704 523 OFFCURVE",
"704 577 CURVE SMOOTH",
"704 590 OFFCURVE",
"702 602 OFFCURVE",
"699 615 CURVE",
"641 615 LINE",
"643 606 OFFCURVE",
"644 598 OFFCURVE",
"644 591 CURVE SMOOTH",
"644 560 OFFCURVE",
"623 546 OFFCURVE",
"582 546 CURVE SMOOTH",
"441 546 LINE"
);
}
);
width = 756;
},
{
layerId = "A41B5407-ACAD-4F97-B91E-44FCF58F9670";
name = Bold;
paths = (
{
closed = 1;
nodes = (
"278 -10 CURVE SMOOTH",
"367 -10 OFFCURVE",
"423 38 OFFCURVE",
"440 114 CURVE",
"452 37 OFFCURVE",
"514 -10 OFFCURVE",
"604 -10 CURVE SMOOTH",
"743 -10 OFFCURVE",
"817 108 OFFCURVE",
"817 242 CURVE SMOOTH",
"817 379 OFFCURVE",
"721 492 OFFCURVE",
"556 492 CURVE SMOOTH",
"534 492 OFFCURVE",
"511 489 OFFCURVE",
"489 485 CURVE",
"489 464 LINE",
"641 445 OFFCURVE",
"676 351 OFFCURVE",
"676 246 CURVE SMOOTH",
"676 177 OFFCURVE",
"651 106 OFFCURVE",
"589 106 CURVE SMOOTH",
"537 106 OFFCURVE",
"511 150 OFFCURVE",
"511 210 CURVE SMOOTH",
"511 236 LINE",
"369 236 LINE",
"369 210 LINE SMOOTH",
"369 147 OFFCURVE",
"343 106 OFFCURVE",
"286 106 CURVE SMOOTH",
"214 106 OFFCURVE",
"182 196 OFFCURVE",
"182 289 CURVE SMOOTH",
"182 318 OFFCURVE",
"185 347 OFFCURVE",
"191 374 CURVE",
"173 366 LINE",
"182 298 OFFCURVE",
"226 262 OFFCURVE",
"296 262 CURVE SMOOTH",
"387 262 OFFCURVE",
"444 331 OFFCURVE",
"444 421 CURVE SMOOTH",
"444 496 OFFCURVE",
"394 586 OFFCURVE",
"282 586 CURVE SMOOTH",
"112 586 OFFCURVE",
"40 414 OFFCURVE",
"40 284 CURVE SMOOTH",
"40 131 OFFCURVE",
"116 -10 OFFCURVE"
);
},
{
closed = 1;
nodes = (
"362 -196 LINE",
"516 -196 LINE",
"516 -181 LINE",
"472 4 LINE",
"406 4 LINE",
"362 -181 LINE"
);
},
{
closed = 1;
nodes = (
"262 360 CURVE SMOOTH",
"227 360 OFFCURVE",
"206 382 OFFCURVE",
"206 416 CURVE SMOOTH",
"206 447 OFFCURVE",
"226 474 OFFCURVE",
"259 474 CURVE SMOOTH",
"296 474 OFFCURVE",
"315 449 OFFCURVE",
"315 418 CURVE SMOOTH",
"315 387 OFFCURVE",
"297 360 OFFCURVE"
);
},
{
closed = 1;
nodes = (
"489 464 LINE",
"643 464 LINE SMOOTH",
"746 464 OFFCURVE",
"807 503 OFFCURVE",
"807 585 CURVE SMOOTH",
"807 606 OFFCURVE",
"802 627 OFFCURVE",
"793 649 CURVE",
"671 649 LINE",
"675 639 OFFCURVE",
"677 629 OFFCURVE",
"677 619 CURVE SMOOTH",
"677 589 OFFCURVE",
"654 576 OFFCURVE",
"614 576 CURVE SMOOTH",
"489 576 LINE"
);
}
);
width = 847;
}
);
unicode = 0C9B;
},
{
glyphname = knJA;
lastChange = "2015-08-27 17:15:05 +0000";
layers = (
{
layerId = "888EDFF5-A106-43F1-8E82-892DE62A2556";
name = Light;
paths = (
{
closed = 1;
nodes = (
"202 -9 CURVE SMOOTH",
"281 -9 OFFCURVE",
"341 25 OFFCURVE",
"359 99 CURVE",
"370 28 OFFCURVE",
"425 -9 OFFCURVE",
"499 -9 CURVE SMOOTH",
"596 -9 OFFCURVE",
"658 58 OFFCURVE",
"658 153 CURVE SMOOTH",
"658 192 OFFCURVE",
"650 216 OFFCURVE",
"637 248 CURVE",
"575 248 LINE",
"591 212 OFFCURVE",
"597 185 OFFCURVE",
"597 152 CURVE SMOOTH",
"597 88 OFFCURVE",
"559 43 OFFCURVE",
"496 43 CURVE SMOOTH",
"431 43 OFFCURVE",
"391 96 OFFCURVE",
"391 165 CURVE SMOOTH",
"391 208 LINE",
"329 208 LINE",
"329 165 LINE SMOOTH",
"329 90 OFFCURVE",
"276 43 OFFCURVE",
"206 43 CURVE SMOOTH",
"146 43 OFFCURVE",
"110 79 OFFCURVE",
"110 132 CURVE SMOOTH",
"110 268 OFFCURVE",
"331 276 OFFCURVE",
"331 422 CURVE",
"313 437 LINE",
"351 386 OFFCURVE",
"409 352 OFFCURVE",
"479 352 CURVE SMOOTH",
"563 352 OFFCURVE",
"620 399 OFFCURVE",
"620 480 CURVE SMOOTH",
"620 503 OFFCURVE",
"618 522 OFFCURVE",
"607 546 CURVE",
"546 546 LINE",
"556 522 OFFCURVE",
"559 503 OFFCURVE",
"559 482 CURVE SMOOTH",
"559 433 OFFCURVE",
"526 406 OFFCURVE",
"470 406 CURVE SMOOTH",
"354 406 OFFCURVE",
"323 557 OFFCURVE",
"201 557 CURVE SMOOTH",
"116 557 OFFCURVE",
"64 500 OFFCURVE",
"64 424 CURVE SMOOTH",
"64 410 OFFCURVE",
"66 395 OFFCURVE",
"70 380 CURVE",
"130 380 LINE",
"127 394 OFFCURVE",
"125 407 OFFCURVE",
"125 420 CURVE SMOOTH",
"125 476 OFFCURVE",
"159 504 OFFCURVE",
"201 504 CURVE SMOOTH",
"248 504 OFFCURVE",
"274 471 OFFCURVE",
"274 422 CURVE SMOOTH",
"274 303 OFFCURVE",
"47 293 OFFCURVE",
"47 132 CURVE SMOOTH",
"47 47 OFFCURVE",
"110 -9 OFFCURVE"
);
}
);
width = 695;
},
{
layerId = "A41B5407-ACAD-4F97-B91E-44FCF58F9670";
name = Bold;
paths = (
{
closed = 1;
nodes = (
"236 -10 CURVE SMOOTH",
"333 -10 OFFCURVE",
"407 33 OFFCURVE",
"420 114 CURVE",
"430 40 OFFCURVE",
"494 -10 OFFCURVE",
"585 -10 CURVE SMOOTH",
"707 -10 OFFCURVE",
"768 70 OFFCURVE",
"768 164 CURVE SMOOTH",
"768 198 OFFCURVE",
"759 236 OFFCURVE",
"743 270 CURVE",
"605 270 LINE",
"621 240 OFFCURVE",
"629 210 OFFCURVE",
"629 184 CURVE SMOOTH",
"629 143 OFFCURVE",
"614 106 OFFCURVE",
"566 106 CURVE SMOOTH",
"515 106 OFFCURVE",
"491 148 OFFCURVE",
"491 210 CURVE SMOOTH",
"491 231 LINE",
"349 231 LINE",
"349 210 LINE SMOOTH",
"349 142 OFFCURVE",
"308 106 OFFCURVE",
"244 106 CURVE SMOOTH",
"212 106 OFFCURVE",
"182 121 OFFCURVE",
"182 156 CURVE SMOOTH",
"182 240 OFFCURVE",
"397 296 OFFCURVE",
"397 410 CURVE",
"373 412 LINE",
"405 362 OFFCURVE",
"478 333 OFFCURVE",
"548 333 CURVE SMOOTH",
"647 333 OFFCURVE",
"723 392 OFFCURVE",
"723 485 CURVE SMOOTH",
"723 512 OFFCURVE",
"717 547 OFFCURVE",
"702 576 CURVE",
"575 576 LINE",
"585 557 OFFCURVE",
"590 536 OFFCURVE",
"590 515 CURVE SMOOTH",
"590 479 OFFCURVE",
"571 449 OFFCURVE",
"522 449 CURVE SMOOTH",
"405 449 OFFCURVE",
"374 587 OFFCURVE",
"237 587 CURVE SMOOTH",
"127 587 OFFCURVE",
"67 525 OFFCURVE",
"67 443 CURVE SMOOTH",
"67 425 OFFCURVE",
"69 406 OFFCURVE",
"75 389 CURVE",
"207 389 LINE",
"202 400 OFFCURVE",
"199 413 OFFCURVE",
"199 425 CURVE SMOOTH",
"199 449 OFFCURVE",
"210 470 OFFCURVE",
"236 470 CURVE SMOOTH",
"261 470 OFFCURVE",
"271 451 OFFCURVE",
"271 425 CURVE SMOOTH",
"271 343 OFFCURVE",
"40 308 OFFCURVE",
"40 154 CURVE SMOOTH",
"40 53 OFFCURVE",
"119 -10 OFFCURVE"
);
}
);
width = 798;
}
);
unicode = 0C9C;
},
{
glyphname = knJHA;
lastChange = "2015-08-27 17:15:05 +0000";
layers = (
{
layerId = "888EDFF5-A106-43F1-8E82-892DE62A2556";
name = Light;
paths = (
{
closed = 1;
nodes = (
"790 -186 LINE",
"877 -186 LINE",
"877 -172 LINE",
"847 4 LINE",
"820 4 LINE",
"790 -172 LINE"
);
},
{
closed = 1;
nodes = (
"38 492 LINE",
"418 492 LINE SMOOTH",
"491 492 OFFCURVE",
"525 523 OFFCURVE",
"525 577 CURVE SMOOTH",
"525 590 OFFCURVE",
"522 602 OFFCURVE",
"518 615 CURVE",
"460 615 LINE",
"462 606 OFFCURVE",
"463 598 OFFCURVE",
"463 591 CURVE SMOOTH",
"463 560 OFFCURVE",
"442 546 OFFCURVE",
"402 546 CURVE SMOOTH",
"38 546 LINE"
);
},
{
closed = 1;
nodes = (
"280 -9 CURVE SMOOTH",
"418 -9 OFFCURVE",
"516 98 OFFCURVE",
"516 272 CURVE SMOOTH",
"516 439 OFFCURVE",
"419 538 OFFCURVE",
"280 538 CURVE SMOOTH",
"140 538 OFFCURVE",
"43 439 OFFCURVE",
"43 271 CURVE SMOOTH",
"43 98 OFFCURVE",
"141 -9 OFFCURVE"
);
},
{
closed = 1;
nodes = (
"280 43 CURVE SMOOTH",
"181 43 OFFCURVE",
"106 132 OFFCURVE",
"106 271 CURVE SMOOTH",
"106 407 OFFCURVE",
"181 492 OFFCURVE",
"280 492 CURVE SMOOTH",
"379 492 OFFCURVE",
"454 407 OFFCURVE",
"454 270 CURVE SMOOTH",
"454 131 OFFCURVE",
"378 43 OFFCURVE"
);
},
{
closed = 1;
nodes = (
"469 269 LINE",
"470 100 OFFCURVE",
"536 -9 OFFCURVE",
"659 -9 CURVE SMOOTH",
"771 -9 OFFCURVE",
"858 72 OFFCURVE",
"858 262 CURVE SMOOTH",
"858 412 OFFCURVE",
"760 547 OFFCURVE",
"593 547 CURVE",
"593 492 LINE",
"712 492 OFFCURVE",
"796 390 OFFCURVE",
"796 256 CURVE SMOOTH",
"796 114 OFFCURVE",
"732 43 OFFCURVE",
"659 43 CURVE SMOOTH",
"574 43 OFFCURVE",
"516 123 OFFCURVE",
"516 270 CURVE"
);
},
{
closed = 1;
nodes = (
"811 259 LINE",
"811 91 OFFCURVE",
"878 -9 OFFCURVE",
"1001 -9 CURVE SMOOTH",
"1113 -9 OFFCURVE",
"1200 72 OFFCURVE",
"1200 262 CURVE SMOOTH",
"1200 412 OFFCURVE",
"1102 547 OFFCURVE",
"934 547 CURVE",
"934 492 LINE",
"1053 492 OFFCURVE",
"1138 390 OFFCURVE",
"1138 256 CURVE SMOOTH",
"1138 114 OFFCURVE",
"1073 43 OFFCURVE",
"1001 43 CURVE SMOOTH",
"916 43 OFFCURVE",
"858 113 OFFCURVE",
"858 261 CURVE"
);
}
);
width = 1248;
},
{
layerId = "A41B5407-ACAD-4F97-B91E-44FCF58F9670";
name = Bold;
paths = (
{
closed = 1;
nodes = (
"828 -206 LINE",
"982 -206 LINE",
"982 -191 LINE",
"938 -6 LINE",
"872 -6 LINE",
"828 -191 LINE"
);
},
{
closed = 1;
nodes = (
"30 464 LINE",
"448 464 LINE SMOOTH",
"551 464 OFFCURVE",
"612 503 OFFCURVE",
"612 585 CURVE SMOOTH",
"612 606 OFFCURVE",
"607 627 OFFCURVE",
"598 649 CURVE",
"476 649 LINE",
"480 639 OFFCURVE",
"482 629 OFFCURVE",
"482 619 CURVE SMOOTH",
"482 589 OFFCURVE",
"459 576 OFFCURVE",
"419 576 CURVE SMOOTH",
"30 576 LINE"
);
},
{
closed = 1;
nodes = (
"319 -8 CURVE SMOOTH",
"497 -8 OFFCURVE",
"597 115 OFFCURVE",
"597 283 CURVE SMOOTH",
"597 417 OFFCURVE",
"520 542 OFFCURVE",
"319 542 CURVE SMOOTH",
"128 542 OFFCURVE",
"40 417 OFFCURVE",
"40 274 CURVE SMOOTH",
"40 112 OFFCURVE",
"137 -8 OFFCURVE"
);
},
{
closed = 1;
nodes = (
"320 105 CURVE SMOOTH",
"235 105 OFFCURVE",
"192 179 OFFCURVE",
"192 280 CURVE SMOOTH",
"192 371 OFFCURVE",
"231 464 OFFCURVE",
"318 464 CURVE SMOOTH",
"411 464 OFFCURVE",
"445 369 OFFCURVE",
"445 278 CURVE SMOOTH",
"445 177 OFFCURVE",
"405 105 OFFCURVE"
);
},
{
closed = 1;
nodes = (
"514 224 LINE",
"518 84 OFFCURVE",
"577 -10 OFFCURVE",
"720 -10 CURVE SMOOTH",
"875 -10 OFFCURVE",
"955 119 OFFCURVE",
"955 274 CURVE SMOOTH",
"955 446 OFFCURVE",
"877 576 OFFCURVE",
"660 576 CURVE",
"660 461 LINE",
"778 461 OFFCURVE",
"814 370 OFFCURVE",
"814 273 CURVE SMOOTH",
"814 172 OFFCURVE",
"779 106 OFFCURVE",
"704 106 CURVE SMOOTH",
"613 106 OFFCURVE",
"596 198 OFFCURVE",
"596 259 CURVE"
);
},
{
closed = 1;
nodes = (
"872 224 LINE",
"876 84 OFFCURVE",
"935 -10 OFFCURVE",
"1078 -10 CURVE SMOOTH",
"1233 -10 OFFCURVE",
"1313 119 OFFCURVE",
"1313 274 CURVE SMOOTH",
"1313 446 OFFCURVE",
"1235 576 OFFCURVE",
"1018 576 CURVE",
"1018 461 LINE",
"1136 461 OFFCURVE",
"1172 370 OFFCURVE",
"1172 273 CURVE SMOOTH",
"1172 172 OFFCURVE",
"1137 106 OFFCURVE",
"1062 106 CURVE SMOOTH",
"971 106 OFFCURVE",
"954 198 OFFCURVE",
"954 259 CURVE"
);
}
);
width = 1353;
}
);
unicode = 0C9D;
},
{
glyphname = knNYA;
lastChange = "2015-08-27 17:15:05 +0000";
layers = (
{
layerId = "888EDFF5-A106-43F1-8E82-892DE62A2556";
name = Light;
paths = (
{
closed = 1;
nodes = (
"605 356 LINE",
"605 426 OFFCURVE",
"617 505 OFFCURVE",
"674 505 CURVE SMOOTH",
"709 505 OFFCURVE",
"725 473 OFFCURVE",
"725 443 CURVE SMOOTH",
"725 422 OFFCURVE",
"722 402 OFFCURVE",
"717 386 CURVE",
"779 386 LINE",
"784 404 OFFCURVE",
"787 422 OFFCURVE",
"787 445 CURVE SMOOTH",
"787 502 OFFCURVE",
"750 557 OFFCURVE",
"678 557 CURVE SMOOTH",
"600 557 OFFCURVE",
"570 493 OFFCURVE",
"570 428 CURVE"
);
},
{
closed = 1;
nodes = (
"601 -10 LINE",
"556 156 OFFCURVE",
"424 249 OFFCURVE",
"311 249 CURVE SMOOTH",
"208 249 OFFCURVE",
"149 194 OFFCURVE",
"149 119 CURVE SMOOTH",
"149 38 OFFCURVE",
"224 -9 OFFCURVE",
"312 -9 CURVE SMOOTH",
"495 -9 OFFCURVE",
"605 162 OFFCURVE",
"605 343 CURVE SMOOTH",
"605 454 OFFCURVE",
"553 556 OFFCURVE",
"441 556 CURVE SMOOTH",
"372 556 OFFCURVE",
"322 509 OFFCURVE",
"314 445 CURVE",
"306 508 OFFCURVE",
"257 556 OFFCURVE",
"184 556 CURVE SMOOTH",
"84 556 OFFCURVE",
"28 488 OFFCURVE",
"28 396 CURVE SMOOTH",
"28 374 OFFCURVE",
"31 348 OFFCURVE",
"39 323 CURVE",
"101 323 LINE",
"93 349 OFFCURVE",
"89 375 OFFCURVE",
"89 398 CURVE SMOOTH",
"89 456 OFFCURVE",
"118 503 OFFCURVE",
"186 503 CURVE SMOOTH",
"249 503 OFFCURVE",
"283 450 OFFCURVE",
"283 389 CURVE SMOOTH",
"283 352 LINE",
"345 352 LINE",
"345 387 LINE SMOOTH",
"345 452 OFFCURVE",
"376 503 OFFCURVE",
"439 503 CURVE SMOOTH",
"526 503 OFFCURVE",
"544 399 OFFCURVE",
"544 336 CURVE SMOOTH",
"544 184 OFFCURVE",
"460 43 OFFCURVE",
"311 43 CURVE SMOOTH",
"256 43 OFFCURVE",
"212 69 OFFCURVE",
"212 118 CURVE SMOOTH",
"212 165 OFFCURVE",
"243 197 OFFCURVE",
"310 197 CURVE SMOOTH",
"388 197 OFFCURVE",
"499 134 OFFCURVE",
"541 -10 CURVE"
);
}
);
width = 807;
},
{
layerId = "A41B5407-ACAD-4F97-B91E-44FCF58F9670";
name = Bold;
paths = (
{
closed = 1;
nodes = (
"703 386 LINE",
"703 431 OFFCURVE",
"712 476 OFFCURVE",
"752 476 CURVE SMOOTH",
"778 476 OFFCURVE",
"789 451 OFFCURVE",
"789 429 CURVE SMOOTH",
"789 415 OFFCURVE",
"787 403 OFFCURVE",
"783 388 CURVE",
"906 388 LINE",
"913 411 OFFCURVE",
"916 433 OFFCURVE",
"916 455 CURVE SMOOTH",
"916 528 OFFCURVE",
"873 587 OFFCURVE",
"788 587 CURVE SMOOTH",
"703 587 OFFCURVE",
"662 520 OFFCURVE",
"662 455 CURVE"
);
},
{
closed = 1;
nodes = (
"710 -20 LINE",
"668 157 OFFCURVE",
"546 302 OFFCURVE",
"371 302 CURVE SMOOTH",
"246 302 OFFCURVE",
"162 235 OFFCURVE",
"162 144 CURVE SMOOTH",
"162 34 OFFCURVE",
"264 -12 OFFCURVE",
"372 -12 CURVE SMOOTH",
"552 -12 OFFCURVE",
"705 166 OFFCURVE",
"705 350 CURVE SMOOTH",
"705 478 OFFCURVE",
"645 587 OFFCURVE",
"506 587 CURVE SMOOTH",
"425 587 OFFCURVE",
"369 533 OFFCURVE",
"359 463 CURVE",
"351 531 OFFCURVE",
"293 587 OFFCURVE",
"200 587 CURVE SMOOTH",
"86 587 OFFCURVE",
"20 507 OFFCURVE",
"20 420 CURVE SMOOTH",
"20 383 OFFCURVE",
"29 348 OFFCURVE",
"43 317 CURVE",
"181 317 LINE",
"168 342 OFFCURVE",
"159 372 OFFCURVE",
"159 400 CURVE SMOOTH",
"159 439 OFFCURVE",
"180 471 OFFCURVE",
"219 471 CURVE SMOOTH",
"270 471 OFFCURVE",
"288 427 OFFCURVE",
"288 377 CURVE SMOOTH",
"288 356 LINE",
"430 356 LINE",
"430 377 LINE SMOOTH",
"430 427 OFFCURVE",
"444 471 OFFCURVE",
"496 471 CURVE SMOOTH",
"551 471 OFFCURVE",
"567 415 OFFCURVE",
"567 352 CURVE SMOOTH",
"567 234 OFFCURVE",
"498 101 OFFCURVE",
"367 101 CURVE SMOOTH",
"333 101 OFFCURVE",
"300 113 OFFCURVE",
"300 144 CURVE SMOOTH",
"300 175 OFFCURVE",
"327 190 OFFCURVE",
"363 190 CURVE SMOOTH",
"481 190 OFFCURVE",
"537 95 OFFCURVE",
"565 -20 CURVE"
);
}
);
width = 936;
}
);
unicode = 0C9E;
},
{
glyphname = knTTA;
lastChange = "2015-08-27 17:15:05 +0000";
layers = (
{
layerId = "888EDFF5-A106-43F1-8E82-892DE62A2556";
name = Light;
paths = (
{
closed = 1;
nodes = (
"216 231 CURVE SMOOTH",
"165 231 OFFCURVE",
"134 259 OFFCURVE",
"134 305 CURVE SMOOTH",
"134 348 OFFCURVE",
"164 380 OFFCURVE",
"214 380 CURVE SMOOTH",
"262 380 OFFCURVE",
"290 349 OFFCURVE",
"290 306 CURVE SMOOTH",
"290 264 OFFCURVE",
"264 231 OFFCURVE"
);
},
{
closed = 1;
nodes = (
"292 599 LINE",
"272 607 OFFCURVE",
"235 615 OFFCURVE",
"206 615 CURVE SMOOTH",
"114 615 OFFCURVE",
"70 567 OFFCURVE",
"70 502 CURVE SMOOTH",
"70 430 OFFCURVE",
"131 393 OFFCURVE",
"214 391 CURVE",
"167 424 LINE",
"83 399 OFFCURVE",
"47 307 OFFCURVE",
"47 207 CURVE SMOOTH",
"47 83 OFFCURVE",
"123 -9 OFFCURVE",
"248 -9 CURVE SMOOTH",
"329 -9 OFFCURVE",
"396 30 OFFCURVE",
"413 99 CURVE",
"429 30 OFFCURVE",
"493 -9 OFFCURVE",
"569 -9 CURVE SMOOTH",
"668 -9 OFFCURVE",
"744 71 OFFCURVE",
"744 185 CURVE SMOOTH",
"744 295 OFFCURVE",
"665 375 OFFCURVE",
"548 375 CURVE",
"531 356 LINE",
"628 357 OFFCURVE",
"715 382 OFFCURVE",
"715 486 CURVE SMOOTH",
"715 557 OFFCURVE",
"660 615 OFFCURVE",
"562 615 CURVE SMOOTH",
"535 615 OFFCURVE",
"504 610 OFFCURVE",
"474 595 CURVE",
"474 541 LINE",
"500 557 OFFCURVE",
"529 563 OFFCURVE",
"560 563 CURVE SMOOTH",
"617 563 OFFCURVE",
"652 536 OFFCURVE",
"652 483 CURVE SMOOTH",
"652 417 OFFCURVE",
"608 395 OFFCURVE",
"533 395 CURVE SMOOTH",
"489 395 LINE",
"474 395 LINE",
"474 343 LINE",
"530 343 LINE SMOOTH",
"620 343 OFFCURVE",
"681 269 OFFCURVE",
"681 180 CURVE SMOOTH",
"681 97 OFFCURVE",
"630 43 OFFCURVE",
"565 43 CURVE SMOOTH",
"491 43 OFFCURVE",
"444 97 OFFCURVE",
"444 165 CURVE SMOOTH",
"444 208 LINE",
"381 208 LINE",
"381 165 LINE SMOOTH",
"381 95 OFFCURVE",
"320 43 OFFCURVE",
"248 43 CURVE SMOOTH",
"142 43 OFFCURVE",
"101 128 OFFCURVE",
"101 208 CURVE SMOOTH",
"101 252 OFFCURVE",
"105 276 OFFCURVE",
"111 305 CURVE",
"96 303 LINE",
"96 223 OFFCURVE",
"148 180 OFFCURVE",
"219 180 CURVE SMOOTH",
"297 180 OFFCURVE",
"353 229 OFFCURVE",
"353 305 CURVE SMOOTH",
"353 379 OFFCURVE",
"293 427 OFFCURVE",
"217 431 CURVE SMOOTH",
"155 435 OFFCURVE",
"132 465 OFFCURVE",
"132 501 CURVE SMOOTH",
"132 542 OFFCURVE",
"162 563 OFFCURVE",
"209 563 CURVE SMOOTH",
"232 563 OFFCURVE",
"264 559 OFFCURVE",
"292 545 CURVE"
);
}
);
width = 791;
},
{
layerId = "A41B5407-ACAD-4F97-B91E-44FCF58F9670";
name = Bold;
paths = (
{
closed = 1;
nodes = (
"231 268 CURVE SMOOTH",
"203 268 OFFCURVE",
"184 287 OFFCURVE",
"184 315 CURVE SMOOTH",
"184 343 OFFCURVE",
"203 362 OFFCURVE",
"231 362 CURVE SMOOTH",
"259 362 OFFCURVE",
"278 343 OFFCURVE",
"278 315 CURVE SMOOTH",
"278 287 OFFCURVE",
"259 268 OFFCURVE"
);
},
{
closed = 1;
nodes = (
"342 638 LINE",
"318 644 OFFCURVE",
"281 649 OFFCURVE",
"246 649 CURVE SMOOTH",
"158 649 OFFCURVE",
"66 618 OFFCURVE",
"66 509 CURVE SMOOTH",
"66 445 OFFCURVE",
"109 400 OFFCURVE",
"169 382 CURVE",
"183 444 LINE",
"86 418 OFFCURVE",
"40 340 OFFCURVE",
"40 233 CURVE SMOOTH",
"40 88 OFFCURVE",
"145 -10 OFFCURVE",
"291 -10 CURVE SMOOTH",
"390 -10 OFFCURVE",
"460 36 OFFCURVE",
"479 114 CURVE",
"503 29 OFFCURVE",
"583 -10 OFFCURVE",
"663 -10 CURVE SMOOTH",
"789 -10 OFFCURVE",
"856 80 OFFCURVE",
"856 180 CURVE SMOOTH",
"856 306 OFFCURVE",
"760 383 OFFCURVE",
"595 383 CURVE",
"684 347 LINE",
"777 347 OFFCURVE",
"846 404 OFFCURVE",
"846 494 CURVE SMOOTH",
"846 603 OFFCURVE",
"750 649 OFFCURVE",
"665 649 CURVE SMOOTH",
"630 649 OFFCURVE",
"593 644 OFFCURVE",
"569 638 CURVE",
"569 524 LINE",
"583 529 OFFCURVE",
"616 536 OFFCURVE",
"647 536 CURVE SMOOTH",
"683 536 OFFCURVE",
"716 527 OFFCURVE",
"716 488 CURVE SMOOTH",
"716 461 OFFCURVE",
"693 437 OFFCURVE",
"653 437 CURVE SMOOTH",
"582 437 LINE",
"568 437 LINE",
"568 325 LINE",
"577 325 LINE SMOOTH",
"679 325 OFFCURVE",
"715 266 OFFCURVE",
"715 208 CURVE SMOOTH",
"715 140 OFFCURVE",
"678 106 OFFCURVE",
"635 106 CURVE SMOOTH",
"572 106 OFFCURVE",
"550 162 OFFCURVE",
"550 210 CURVE SMOOTH",
"550 221 LINE",
"408 221 LINE",
"408 207 LINE SMOOTH",
"408 142 OFFCURVE",
"363 106 OFFCURVE",
"295 106 CURVE SMOOTH",
"234 106 OFFCURVE",
"170 140 OFFCURVE",
"170 250 CURVE SMOOTH",
"170 261 OFFCURVE",
"171 274 OFFCURVE",
"172 287 CURVE",
"162 249 LINE",
"169 193 OFFCURVE",
"218 173 OFFCURVE",
"265 173 CURVE SMOOTH",
"347 173 OFFCURVE",
"403 233 OFFCURVE",
"403 316 CURVE SMOOTH",
"403 385 OFFCURVE",
"349 447 OFFCURVE",
"262 459 CURVE SMOOTH",
"232 463 OFFCURVE",
"195 466 OFFCURVE",
"195 501 CURVE SMOOTH",
"195 531 OFFCURVE",
"228 536 OFFCURVE",
"264 536 CURVE SMOOTH",
"295 536 OFFCURVE",
"328 529 OFFCURVE",
"342 524 CURVE"
);
}
);
width = 897;
}
);
unicode = 0C9F;
},
{
glyphname = knTTHA;
lastChange = "2015-08-27 17:15:05 +0000";
layers = (
{
layerId = "888EDFF5-A106-43F1-8E82-892DE62A2556";
name = Light;
paths = (
{
closed = 1;
nodes = (
"38 492 LINE",
"418 492 LINE SMOOTH",
"491 492 OFFCURVE",
"525 523 OFFCURVE",
"525 577 CURVE SMOOTH",
"525 590 OFFCURVE",
"522 602 OFFCURVE",
"518 615 CURVE",
"460 615 LINE",
"462 606 OFFCURVE",
"463 598 OFFCURVE",
"463 591 CURVE SMOOTH",
"463 560 OFFCURVE",
"442 546 OFFCURVE",
"402 546 CURVE SMOOTH",
"38 546 LINE"
);
},
{
closed = 1;
nodes = (
"280 -9 CURVE SMOOTH",
"418 -9 OFFCURVE",
"516 98 OFFCURVE",
"516 272 CURVE SMOOTH",
"516 439 OFFCURVE",
"419 538 OFFCURVE",
"280 538 CURVE SMOOTH",
"140 538 OFFCURVE",
"43 439 OFFCURVE",
"43 271 CURVE SMOOTH",
"43 98 OFFCURVE",
"141 -9 OFFCURVE"
);
},
{
closed = 1;
nodes = (
"280 43 CURVE SMOOTH",
"181 43 OFFCURVE",
"106 132 OFFCURVE",
"106 271 CURVE SMOOTH",
"106 407 OFFCURVE",
"181 492 OFFCURVE",
"280 492 CURVE SMOOTH",
"379 492 OFFCURVE",
"454 407 OFFCURVE",
"454 270 CURVE SMOOTH",
"454 131 OFFCURVE",
"378 43 OFFCURVE"
);
},
{
closed = 1;
nodes = (
"281 217 CURVE SMOOTH",
"311 217 OFFCURVE",
"333 239 OFFCURVE",
"333 269 CURVE SMOOTH",
"333 299 OFFCURVE",
"311 321 OFFCURVE",
"281 321 CURVE SMOOTH",
"250 321 OFFCURVE",
"229 299 OFFCURVE",
"229 269 CURVE SMOOTH",
"229 239 OFFCURVE",
"250 217 OFFCURVE"
);
}
);
width = 562;
},
{
layerId = "A41B5407-ACAD-4F97-B91E-44FCF58F9670";
name = Bold;
paths = (
{
closed = 1;
nodes = (
"30 464 LINE",
"448 464 LINE SMOOTH",
"551 464 OFFCURVE",
"612 503 OFFCURVE",
"612 585 CURVE SMOOTH",
"612 606 OFFCURVE",
"607 627 OFFCURVE",
"598 649 CURVE",
"476 649 LINE",
"480 639 OFFCURVE",
"482 629 OFFCURVE",
"482 619 CURVE SMOOTH",
"482 589 OFFCURVE",
"459 576 OFFCURVE",
"419 576 CURVE SMOOTH",
"30 576 LINE"
);
},
{
closed = 1;
nodes = (
"319 -8 CURVE SMOOTH",
"497 -8 OFFCURVE",
"597 115 OFFCURVE",
"597 283 CURVE SMOOTH",
"597 417 OFFCURVE",
"520 542 OFFCURVE",
"319 542 CURVE SMOOTH",
"128 542 OFFCURVE",
"40 417 OFFCURVE",
"40 274 CURVE SMOOTH",
"40 112 OFFCURVE",
"137 -8 OFFCURVE"
);
},
{
closed = 1;
nodes = (
"320 105 CURVE SMOOTH",
"235 105 OFFCURVE",
"192 179 OFFCURVE",
"192 280 CURVE SMOOTH",
"192 371 OFFCURVE",
"231 464 OFFCURVE",
"318 464 CURVE SMOOTH",
"411 464 OFFCURVE",
"445 369 OFFCURVE",
"445 278 CURVE SMOOTH",
"445 177 OFFCURVE",
"405 105 OFFCURVE"
);
},
{
closed = 1;
nodes = (
"318 214 CURVE SMOOTH",
"359 214 OFFCURVE",
"390 245 OFFCURVE",
"390 286 CURVE SMOOTH",
"390 327 OFFCURVE",
"359 358 OFFCURVE",
"318 358 CURVE SMOOTH",
"277 358 OFFCURVE",
"246 327 OFFCURVE",
"246 286 CURVE SMOOTH",
"246 245 OFFCURVE",
"277 214 OFFCURVE"
);
}
);
width = 642;
}
);
unicode = 0CA0;
},
{
glyphname = knDDA;
lastChange = "2015-08-27 17:15:05 +0000";
layers = (
{
layerId = "888EDFF5-A106-43F1-8E82-892DE62A2556";
name = Light;
paths = (
{
closed = 1;
nodes = (
"233 -9 CURVE SMOOTH",
"307 -9 OFFCURVE",
"365 37 OFFCURVE",
"374 104 CURVE",
"382 40 OFFCURVE",
"444 -9 OFFCURVE",
"534 -9 CURVE SMOOTH",
"644 -9 OFFCURVE",
"719 81 OFFCURVE",
"719 210 CURVE SMOOTH",
"719 395 OFFCURVE",
"594 536 OFFCURVE",
"368 536 CURVE SMOOTH",
"180 536 OFFCURVE",
"38 394 OFFCURVE",
"38 209 CURVE SMOOTH",
"38 81 OFFCURVE",
"110 -9 OFFCURVE"
);
},
{
closed = 1;
nodes = (
"233 43 CURVE SMOOTH",
"149 43 OFFCURVE",
"100 114 OFFCURVE",
"100 210 CURVE SMOOTH",
"100 365 OFFCURVE",
"223 492 OFFCURVE",
"378 492 CURVE SMOOTH",
"459 492 OFFCURVE",
"505 474 OFFCURVE",
"552 444 CURVE",
"540 464 LINE",
"454 463 OFFCURVE",
"404 403 OFFCURVE",
"404 338 CURVE SMOOTH",
"404 269 OFFCURVE",
"456 216 OFFCURVE",
"532 216 CURVE SMOOTH",
"612 216 OFFCURVE",
"661 275 OFFCURVE",
"662 344 CURVE",
"616 363 LINE",
"649 316 OFFCURVE",
"662 270 OFFCURVE",
"662 211 CURVE SMOOTH",
"662 110 OFFCURVE",
"610 43 OFFCURVE",
"534 43 CURVE SMOOTH",
"457 43 OFFCURVE",
"405 95 OFFCURVE",
"405 168 CURVE SMOOTH",
"405 199 LINE",
"343 199 LINE",
"343 168 LINE SMOOTH",
"343 95 OFFCURVE",
"296 43 OFFCURVE"
);
},
{
closed = 1;
nodes = (
"539 267 CURVE SMOOTH",
"492 267 OFFCURVE",
"462 298 OFFCURVE",
"462 341 CURVE SMOOTH",
"462 384 OFFCURVE",
"494 418 OFFCURVE",
"539 418 CURVE SMOOTH",
"583 418 OFFCURVE",
"614 384 OFFCURVE",
"614 341 CURVE SMOOTH",
"614 300 OFFCURVE",
"583 267 OFFCURVE"
);
},
{
closed = 1;
nodes = (
"44 492 LINE",
"612 492 LINE SMOOTH",
"685 492 OFFCURVE",
"719 523 OFFCURVE",
"719 577 CURVE SMOOTH",
"719 590 OFFCURVE",
"717 602 OFFCURVE",
"713 615 CURVE",
"654 615 LINE",
"656 606 OFFCURVE",
"658 598 OFFCURVE",
"658 591 CURVE SMOOTH",
"658 560 OFFCURVE",
"636 546 OFFCURVE",
"595 546 CURVE SMOOTH",
"44 546 LINE"
);
}
);
width = 756;
},
{
layerId = "A41B5407-ACAD-4F97-B91E-44FCF58F9670";
name = Bold;
paths = (
{
closed = 1;
nodes = (
"243 -9 CURVE SMOOTH",
"330 -9 OFFCURVE",
"398 36 OFFCURVE",
"414 114 CURVE",
"426 38 OFFCURVE",
"505 -9 OFFCURVE",
"592 -9 CURVE SMOOTH",
"729 -9 OFFCURVE",
"835 83 OFFCURVE",
"835 225 CURVE SMOOTH",
"835 411 OFFCURVE",
"668 538 OFFCURVE",
"400 538 CURVE SMOOTH",
"197 538 OFFCURVE",
"30 400 OFFCURVE",
"30 209 CURVE SMOOTH",
"30 83 OFFCURVE",
"106 -9 OFFCURVE"
);
},
{
closed = 1;
nodes = (
"258 106 CURVE SMOOTH",
"202 106 OFFCURVE",
"172 151 OFFCURVE",
"172 219 CURVE SMOOTH",
"172 336 OFFCURVE",
"262 464 OFFCURVE",
"432 464 CURVE SMOOTH",
"480 464 OFFCURVE",
"524 457 OFFCURVE",
"563 444 CURVE",
"566 465 LINE",
"502 452 OFFCURVE",
"464 390 OFFCURVE",
"464 329 CURVE SMOOTH",
"464 246 OFFCURVE",
"522 190 OFFCURVE",
"609 190 CURVE SMOOTH",
"670 190 OFFCURVE",
"723 223 OFFCURVE",
"740 272 CURVE",
"718 291 LINE",
"723 273 OFFCURVE",
"726 258 OFFCURVE",
"726 242 CURVE SMOOTH",
"726 161 OFFCURVE",
"675 106 OFFCURVE",
"596 106 CURVE SMOOTH",
"529 106 OFFCURVE",
"485 147 OFFCURVE",
"485 210 CURVE SMOOTH",
"485 221 LINE",
"343 221 LINE",
"343 210 LINE SMOOTH",
"343 147 OFFCURVE",
"308 106 OFFCURVE"
);
},
{
closed = 1;
nodes = (
"624 281 CURVE SMOOTH",
"590 281 OFFCURVE",
"568 304 OFFCURVE",
"568 335 CURVE SMOOTH",
"568 368 OFFCURVE",
"593 393 OFFCURVE",
"624 393 CURVE SMOOTH",
"655 393 OFFCURVE",
"680 368 OFFCURVE",
"680 337 CURVE SMOOTH",
"680 306 OFFCURVE",
"655 281 OFFCURVE"
);
},
{
closed = 1;
nodes = (
"30 464 LINE",
"671 464 LINE SMOOTH",
"774 464 OFFCURVE",
"835 503 OFFCURVE",
"835 585 CURVE SMOOTH",
"835 606 OFFCURVE",
"830 627 OFFCURVE",
"821 649 CURVE",
"699 649 LINE",
"703 639 OFFCURVE",
"705 629 OFFCURVE",
"705 619 CURVE SMOOTH",
"705 589 OFFCURVE",
"682 576 OFFCURVE",
"642 576 CURVE SMOOTH",
"30 576 LINE"
);
}
);
width = 865;
}
);
unicode = 0CA1;
},
{
glyphname = knDDHA;
lastChange = "2015-08-27 17:15:05 +0000";
layers = (
{
layerId = "888EDFF5-A106-43F1-8E82-892DE62A2556";
name = Light;
paths = (
{
closed = 1;
nodes = (
"233 -9 CURVE SMOOTH",
"307 -9 OFFCURVE",
"365 37 OFFCURVE",
"374 104 CURVE",
"382 40 OFFCURVE",
"444 -9 OFFCURVE",
"534 -9 CURVE SMOOTH",
"644 -9 OFFCURVE",
"719 81 OFFCURVE",
"719 210 CURVE SMOOTH",
"719 395 OFFCURVE",
"594 536 OFFCURVE",
"368 536 CURVE SMOOTH",
"180 536 OFFCURVE",
"38 394 OFFCURVE",
"38 209 CURVE SMOOTH",
"38 81 OFFCURVE",
"110 -9 OFFCURVE"
);
},
{
closed = 1;
nodes = (
"330 -186 LINE",
"417 -186 LINE",
"417 -172 LINE",
"387 4 LINE",
"360 4 LINE",
"330 -172 LINE"
);
},
{
closed = 1;
nodes = (
"233 43 CURVE SMOOTH",
"149 43 OFFCURVE",
"100 114 OFFCURVE",
"100 210 CURVE SMOOTH",
"100 365 OFFCURVE",
"223 492 OFFCURVE",
"378 492 CURVE SMOOTH",
"459 492 OFFCURVE",
"505 474 OFFCURVE",
"552 444 CURVE",
"540 464 LINE",
"454 463 OFFCURVE",
"404 403 OFFCURVE",
"404 338 CURVE SMOOTH",
"404 269 OFFCURVE",
"456 216 OFFCURVE",
"532 216 CURVE SMOOTH",
"612 216 OFFCURVE",
"661 275 OFFCURVE",
"662 344 CURVE",
"616 363 LINE",
"649 316 OFFCURVE",
"662 270 OFFCURVE",
"662 211 CURVE SMOOTH",
"662 110 OFFCURVE",
"610 43 OFFCURVE",
"534 43 CURVE SMOOTH",
"457 43 OFFCURVE",
"405 95 OFFCURVE",
"405 168 CURVE SMOOTH",
"405 199 LINE",
"343 199 LINE",
"343 168 LINE SMOOTH",
"343 95 OFFCURVE",
"296 43 OFFCURVE"
);
},
{
closed = 1;
nodes = (
"539 267 CURVE SMOOTH",
"492 267 OFFCURVE",
"462 298 OFFCURVE",
"462 341 CURVE SMOOTH",
"462 384 OFFCURVE",
"494 418 OFFCURVE",
"539 418 CURVE SMOOTH",
"583 418 OFFCURVE",
"614 384 OFFCURVE",
"614 341 CURVE SMOOTH",
"614 300 OFFCURVE",
"583 267 OFFCURVE"
);
},
{
closed = 1;
nodes = (
"44 492 LINE",
"612 492 LINE SMOOTH",
"685 492 OFFCURVE",
"719 523 OFFCURVE",
"719 577 CURVE SMOOTH",
"719 590 OFFCURVE",
"717 602 OFFCURVE",
"713 615 CURVE",
"654 615 LINE",
"656 606 OFFCURVE",
"658 598 OFFCURVE",
"658 591 CURVE SMOOTH",
"658 560 OFFCURVE",
"636 546 OFFCURVE",
"595 546 CURVE SMOOTH",
"44 546 LINE"
);
}
);
width = 756;
},
{
layerId = "A41B5407-ACAD-4F97-B91E-44FCF58F9670";
name = Bold;
paths = (
{
closed = 1;
nodes = (
"243 -9 CURVE SMOOTH",
"330 -9 OFFCURVE",
"398 36 OFFCURVE",
"414 114 CURVE",
"426 38 OFFCURVE",
"505 -9 OFFCURVE",
"592 -9 CURVE SMOOTH",
"729 -9 OFFCURVE",
"835 83 OFFCURVE",
"835 225 CURVE SMOOTH",
"835 411 OFFCURVE",
"668 538 OFFCURVE",
"400 538 CURVE SMOOTH",
"197 538 OFFCURVE",
"30 400 OFFCURVE",
"30 209 CURVE SMOOTH",
"30 83 OFFCURVE",
"106 -9 OFFCURVE"
);
},
{
closed = 1;
nodes = (
"338 -196 LINE",
"492 -196 LINE",
"492 -181 LINE",
"448 4 LINE",
"382 4 LINE",
"338 -181 LINE"
);
},
{
closed = 1;
nodes = (
"258 106 CURVE SMOOTH",
"202 106 OFFCURVE",
"172 151 OFFCURVE",
"172 219 CURVE SMOOTH",
"172 336 OFFCURVE",
"262 464 OFFCURVE",
"432 464 CURVE SMOOTH",
"480 464 OFFCURVE",
"524 457 OFFCURVE",
"563 444 CURVE",
"566 465 LINE",
"502 452 OFFCURVE",
"464 390 OFFCURVE",
"464 329 CURVE SMOOTH",
"464 246 OFFCURVE",
"522 190 OFFCURVE",
"609 190 CURVE SMOOTH",
"670 190 OFFCURVE",
"723 223 OFFCURVE",
"740 272 CURVE",
"718 291 LINE",
"723 273 OFFCURVE",
"726 258 OFFCURVE",
"726 242 CURVE SMOOTH",
"726 161 OFFCURVE",
"675 106 OFFCURVE",
"596 106 CURVE SMOOTH",
"529 106 OFFCURVE",
"485 147 OFFCURVE",
"485 210 CURVE SMOOTH",
"485 221 LINE",
"343 221 LINE",
"343 210 LINE SMOOTH",
"343 147 OFFCURVE",
"308 106 OFFCURVE"
);
},
{
closed = 1;
nodes = (
"624 281 CURVE SMOOTH",
"590 281 OFFCURVE",
"568 304 OFFCURVE",
"568 335 CURVE SMOOTH",
"568 368 OFFCURVE",
"593 393 OFFCURVE",
"624 393 CURVE SMOOTH",
"655 393 OFFCURVE",
"680 368 OFFCURVE",
"680 337 CURVE SMOOTH",
"680 306 OFFCURVE",
"655 281 OFFCURVE"
);
},
{
closed = 1;
nodes = (
"30 464 LINE",
"671 464 LINE SMOOTH",
"774 464 OFFCURVE",
"835 503 OFFCURVE",
"835 585 CURVE SMOOTH",
"835 606 OFFCURVE",
"830 627 OFFCURVE",
"821 649 CURVE",
"699 649 LINE",
"703 639 OFFCURVE",
"705 629 OFFCURVE",
"705 619 CURVE SMOOTH",
"705 589 OFFCURVE",
"682 576 OFFCURVE",
"642 576 CURVE SMOOTH",
"30 576 LINE"
);
}
);
width = 865;
}
);
unicode = 0CA2;
},
{
glyphname = knNNA;
lastChange = "2015-08-27 17:15:05 +0000";
layers = (
{
layerId = "888EDFF5-A106-43F1-8E82-892DE62A2556";
name = Light;
paths = (
{
closed = 1;
nodes = (
"217 -10 CURVE SMOOTH",
"259 -10 OFFCURVE",
"291 -4 OFFCURVE",
"325 9 CURVE",
"325 64 LINE",
"295 50 OFFCURVE",
"265 42 OFFCURVE",
"234 42 CURVE SMOOTH",
"152 42 OFFCURVE",
"110 79 OFFCURVE",
"110 144 CURVE SMOOTH",
"110 206 OFFCURVE",
"165 244 OFFCURVE",
"231 244 CURVE SMOOTH",
"263 244 LINE",
"263 298 LINE",
"231 298 LINE SMOOTH",
"165 298 OFFCURVE",
"126 343 OFFCURVE",
"126 403 CURVE",
"126 460 OFFCURVE",
"168 503 OFFCURVE",
"230 503 CURVE SMOOTH",
"297 503 OFFCURVE",
"345 454 OFFCURVE",
"345 380 CURVE",
"345 337 LINE",
"407 337 LINE",
"407 381 LINE",
"407 454 OFFCURVE",
"447 503 OFFCURVE",
"514 503 CURVE SMOOTH",
"607 503 OFFCURVE",
"654 388 OFFCURVE",
"654 265 CURVE SMOOTH",
"654 211 OFFCURVE",
"649 169 OFFCURVE",
"642 137 CURVE",
"657 140 LINE",
"662 201 OFFCURVE",
"611 268 OFFCURVE",
"529 268 CURVE SMOOTH",
"449 268 OFFCURVE",
"391 204 OFFCURVE",
"391 127 CURVE SMOOTH",
"391 58 OFFCURVE",
"443 -9 OFFCURVE",
"530 -9 CURVE SMOOTH",
"650 -9 OFFCURVE",
"709 114 OFFCURVE",
"709 258 CURVE SMOOTH",
"709 433 OFFCURVE",
"641 556 OFFCURVE",
"515 556 CURVE SMOOTH",
"435 556 OFFCURVE",
"387 508 OFFCURVE",
"376 445 CURVE",
"362 507 OFFCURVE",
"304 556 OFFCURVE",
"231 556 CURVE SMOOTH",
"131 556 OFFCURVE",
"63 488 OFFCURVE",
"63 407 CURVE SMOOTH",
"63 334 OFFCURVE",
"106 283 OFFCURVE",
"175 271 CURVE",
"107 264 OFFCURVE",
"47 217 OFFCURVE",
"47 138 CURVE SMOOTH",
"47 44 OFFCURVE",
"117 -10 OFFCURVE"
);
},
{
closed = 1;
nodes = (
"535 43 CURVE SMOOTH",
"480 43 OFFCURVE",
"454 85 OFFCURVE",
"454 128 CURVE SMOOTH",
"454 176 OFFCURVE",
"482 217 OFFCURVE",
"535 217 CURVE SMOOTH",
"584 217 OFFCURVE",
"620 179 OFFCURVE",
"620 131 CURVE SMOOTH",
"620 85 OFFCURVE",
"584 43 OFFCURVE"
);
}
);
width = 756;
},
{
layerId = "A41B5407-ACAD-4F97-B91E-44FCF58F9670";
name = Bold;
paths = (
{
closed = 1;
nodes = (
"248 -11 CURVE SMOOTH",
"293 -11 OFFCURVE",
"331 -1 OFFCURVE",
"362 12 CURVE",
"362 133 LINE",
"332 117 OFFCURVE",
"298 107 OFFCURVE",
"265 107 CURVE SMOOTH",
"214 107 OFFCURVE",
"182 123 OFFCURVE",
"182 161 CURVE SMOOTH",
"182 201 OFFCURVE",
"212 221 OFFCURVE",
"266 221 CURVE SMOOTH",
"291 221 LINE",
"291 339 LINE",
"272 339 LINE SMOOTH",
"218 339 OFFCURVE",
"190 367 OFFCURVE",
"190 406 CURVE SMOOTH",
"190 449 OFFCURVE",
"221 470 OFFCURVE",
"258 470 CURVE SMOOTH",
"319 470 OFFCURVE",
"346 426 OFFCURVE",
"346 366 CURVE SMOOTH",
"346 340 LINE",
"488 340 LINE",
"488 366 LINE SMOOTH",
"488 421 OFFCURVE",
"507 470 OFFCURVE",
"559 470 CURVE SMOOTH",
"634 470 OFFCURVE",
"664 376 OFFCURVE",
"664 287 CURVE SMOOTH",
"664 258 OFFCURVE",
"664 229 OFFCURVE",
"658 202 CURVE",
"685 210 LINE",
"682 276 OFFCURVE",
"630 314 OFFCURVE",
"564 314 CURVE SMOOTH",
"477 314 OFFCURVE",
"416 246 OFFCURVE",
"416 155 CURVE SMOOTH",
"416 80 OFFCURVE",
"462 -10 OFFCURVE",
"591 -10 CURVE SMOOTH",
"738 -10 OFFCURVE",
"806 126 OFFCURVE",
"806 272 CURVE SMOOTH",
"806 422 OFFCURVE",
"743 586 OFFCURVE",
"568 586 CURVE SMOOTH",
"481 586 OFFCURVE",
"428 536 OFFCURVE",
"417 462 CURVE",
"401 536 OFFCURVE",
"338 586 OFFCURVE",
"243 586 CURVE SMOOTH",
"116 586 OFFCURVE",
"48 515 OFFCURVE",
"48 420 CURVE SMOOTH",
"48 345 OFFCURVE",
"96 288 OFFCURVE",
"180 280 CURVE",
"97 273 OFFCURVE",
"40 220 OFFCURVE",
"40 146 CURVE SMOOTH",
"40 40 OFFCURVE",
"130 -11 OFFCURVE"
);
},
{
closed = 1;
nodes = (
"599 102 CURVE SMOOTH",
"563 102 OFFCURVE",
"543 126 OFFCURVE",
"543 158 CURVE SMOOTH",
"543 189 OFFCURVE",
"559 216 OFFCURVE",
"596 216 CURVE SMOOTH",
"632 216 OFFCURVE",
"652 191 OFFCURVE",
"652 160 CURVE SMOOTH",
"652 129 OFFCURVE",
"632 102 OFFCURVE"
);
}
);
width = 846;
}
);
unicode = 0CA3;
},
{
glyphname = knTA;
lastChange = "2015-08-27 17:15:05 +0000";
layers = (
{
layerId = "888EDFF5-A106-43F1-8E82-892DE62A2556";
name = Light;
paths = (
{
closed = 1;
nodes = (
"352 354 LINE",
"352 285 OFFCURVE",
"316 220 OFFCURVE",
"246 220 CURVE SMOOTH",
"199 220 OFFCURVE",
"182 248 OFFCURVE",
"182 277 CURVE SMOOTH",
"182 330 OFFCURVE",
"236 341 OFFCURVE",
"275 341 CURVE SMOOTH",
"376 341 OFFCURVE",
"435 276 OFFCURVE",
"435 191 CURVE SMOOTH",
"435 104 OFFCURVE",
"364 47 OFFCURVE",
"270 47 CURVE SMOOTH",
"187 47 OFFCURVE",
"94 79 OFFCURVE",
"94 181 CURVE",
"32 181 LINE",
"32 54 OFFCURVE",
"146 -5 OFFCURVE",
"270 -5 CURVE SMOOTH",
"400 -5 OFFCURVE",
"496 72 OFFCURVE",
"496 187 CURVE SMOOTH",
"496 296 OFFCURVE",
"416 393 OFFCURVE",
"272 393 CURVE SMOOTH",
"193 393 OFFCURVE",
"121 357 OFFCURVE",
"121 277 CURVE SMOOTH",
"121 216 OFFCURVE",
"171 169 OFFCURVE",
"249 169 CURVE SMOOTH",
"356 169 OFFCURVE",
"413 265 OFFCURVE",
"413 357 CURVE SMOOTH",
"413 518 LINE",
"352 518 LINE"
);
},
{
closed = 1;
nodes = (
"38 492 LINE",
"405 492 LINE SMOOTH",
"479 492 OFFCURVE",
"512 523 OFFCURVE",
"512 577 CURVE SMOOTH",
"512 590 OFFCURVE",
"510 602 OFFCURVE",
"506 615 CURVE",
"449 615 LINE",
"450 606 OFFCURVE",
"451 598 OFFCURVE",
"451 591 CURVE SMOOTH",
"451 560 OFFCURVE",
"431 546 OFFCURVE",
"390 546 CURVE SMOOTH",
"38 546 LINE"
);
}
);
width = 550;
},
{
layerId = "A41B5407-ACAD-4F97-B91E-44FCF58F9670";
name = Bold;
paths = (
{
closed = 1;
nodes = (
"394 359 LINE SMOOTH",
"394 304 OFFCURVE",
"367 266 OFFCURVE",
"322 266 CURVE SMOOTH",
"298 266 OFFCURVE",
"286 280 OFFCURVE",
"286 294 CURVE SMOOTH",
"286 314 OFFCURVE",
"306 328 OFFCURVE",
"342 328 CURVE SMOOTH",
"411 328 OFFCURVE",
"472 285 OFFCURVE",
"472 219 CURVE SMOOTH",
"472 141 OFFCURVE",
"402 98 OFFCURVE",
"323 98 CURVE SMOOTH",
"245 98 OFFCURVE",
"172 118 OFFCURVE",
"172 194 CURVE",
"35 194 LINE",
"35 53 OFFCURVE",
"159 -10 OFFCURVE",
"323 -10 CURVE SMOOTH",
"473 -10 OFFCURVE",
"593 77 OFFCURVE",
"593 211 CURVE SMOOTH",
"593 326 OFFCURVE",
"496 433 OFFCURVE",
"333 433 CURVE SMOOTH",
"234 433 OFFCURVE",
"161 380 OFFCURVE",
"161 296 CURVE SMOOTH",
"161 220 OFFCURVE",
"225 161 OFFCURVE",
"321 161 CURVE SMOOTH",
"434 161 OFFCURVE",
"507 249 OFFCURVE",
"507 404 CURVE SMOOTH",
"507 496 LINE",
"394 496 LINE"
);
},
{
closed = 1;
nodes = (
"44 464 LINE",
"450 464 LINE SMOOTH",
"553 464 OFFCURVE",
"614 503 OFFCURVE",
"614 585 CURVE SMOOTH",
"614 606 OFFCURVE",
"609 627 OFFCURVE",
"600 649 CURVE",
"478 649 LINE",
"482 639 OFFCURVE",
"484 629 OFFCURVE",
"484 619 CURVE SMOOTH",
"484 589 OFFCURVE",
"461 576 OFFCURVE",
"421 576 CURVE SMOOTH",
"44 576 LINE"
);
}
);
width = 644;
}
);
unicode = 0CA4;
},
{
glyphname = knTHA;
lastChange = "2015-08-27 17:15:05 +0000";
layers = (
{
layerId = "888EDFF5-A106-43F1-8E82-892DE62A2556";
name = Light;
paths = (
{
closed = 1;
nodes = (
"218 -9 CURVE SMOOTH",
"302 -9 OFFCURVE",
"345 34 OFFCURVE",
"355 104 CURVE",
"364 34 OFFCURVE",
"408 -9 OFFCURVE",
"490 -9 CURVE SMOOTH",
"599 -9 OFFCURVE",
"671 82 OFFCURVE",
"671 216 CURVE SMOOTH",
"671 411 OFFCURVE",
"542 540 OFFCURVE",
"355 540 CURVE SMOOTH",
"168 540 OFFCURVE",
"38 411 OFFCURVE",
"38 216 CURVE SMOOTH",
"38 82 OFFCURVE",
"111 -9 OFFCURVE"
);
},
{
closed = 1;
nodes = (
"312 -186 LINE",
"398 -186 LINE",
"398 -172 LINE",
"369 4 LINE",
"342 4 LINE",
"312 -172 LINE"
);
},
{
closed = 1;
nodes = (
"222 43 CURVE SMOOTH",
"149 43 OFFCURVE",
"100 114 OFFCURVE",
"100 217 CURVE SMOOTH",
"100 380 OFFCURVE",
"204 492 OFFCURVE",
"354 492 CURVE SMOOTH",
"504 492 OFFCURVE",
"609 380 OFFCURVE",
"609 217 CURVE SMOOTH",
"609 114 OFFCURVE",
"561 43 OFFCURVE",
"489 43 CURVE SMOOTH",
"419 43 OFFCURVE",
"385 100 OFFCURVE",
"385 174 CURVE SMOOTH",
"385 209 LINE",
"323 209 LINE",
"323 174 LINE SMOOTH",
"323 100 OFFCURVE",
"289 43 OFFCURVE"
);
},
{
closed = 1;
nodes = (
"355 301 CURVE SMOOTH",
"381 301 OFFCURVE",
"402 322 OFFCURVE",
"402 349 CURVE SMOOTH",
"402 376 OFFCURVE",
"381 397 OFFCURVE",
"355 397 CURVE SMOOTH",
"327 397 OFFCURVE",
"306 376 OFFCURVE",
"306 349 CURVE SMOOTH",
"306 322 OFFCURVE",
"327 301 OFFCURVE"
);
},
{
closed = 1;
nodes = (
"44 492 LINE",
"564 492 LINE SMOOTH",
"637 492 OFFCURVE",
"671 523 OFFCURVE",
"671 577 CURVE SMOOTH",
"671 590 OFFCURVE",
"669 602 OFFCURVE",
"665 615 CURVE",
"607 615 LINE",
"609 606 OFFCURVE",
"610 598 OFFCURVE",
"610 591 CURVE SMOOTH",
"610 560 OFFCURVE",
"589 546 OFFCURVE",
"548 546 CURVE SMOOTH",
"44 546 LINE"
);
}
);
width = 708;
},
{
layerId = "A41B5407-ACAD-4F97-B91E-44FCF58F9670";
name = Bold;
paths = (
{
closed = 1;
nodes = (
"243 -9 CURVE SMOOTH",
"330 -9 OFFCURVE",
"393 38 OFFCURVE",
"405 114 CURVE",
"417 38 OFFCURVE",
"480 -9 OFFCURVE",
"567 -9 CURVE SMOOTH",
"704 -9 OFFCURVE",
"780 83 OFFCURVE",
"780 225 CURVE SMOOTH",
"780 411 OFFCURVE",
"646 538 OFFCURVE",
"405 538 CURVE SMOOTH",
"164 538 OFFCURVE",
"30 411 OFFCURVE",
"30 225 CURVE SMOOTH",
"30 83 OFFCURVE",
"106 -9 OFFCURVE"
);
},
{
closed = 1;
nodes = (
"328 -196 LINE",
"482 -196 LINE",
"482 -181 LINE",
"438 4 LINE",
"372 4 LINE",
"328 -181 LINE"
);
},
{
closed = 1;
nodes = (
"258 106 CURVE SMOOTH",
"201 106 OFFCURVE",
"172 160 OFFCURVE",
"172 235 CURVE SMOOTH",
"172 345 OFFCURVE",
"240 464 OFFCURVE",
"405 464 CURVE SMOOTH",
"570 464 OFFCURVE",
"638 345 OFFCURVE",
"638 235 CURVE SMOOTH",
"638 160 OFFCURVE",
"609 106 OFFCURVE",
"552 106 CURVE SMOOTH",
"504 106 OFFCURVE",
"476 147 OFFCURVE",
"476 210 CURVE SMOOTH",
"476 241 LINE",
"334 241 LINE",
"334 210 LINE SMOOTH",
"334 147 OFFCURVE",
"306 106 OFFCURVE"
);
},
{
closed = 1;
nodes = (
"405 284 CURVE SMOOTH",
"446 284 OFFCURVE",
"477 315 OFFCURVE",
"477 356 CURVE SMOOTH",
"477 397 OFFCURVE",
"446 428 OFFCURVE",
"405 428 CURVE SMOOTH",
"364 428 OFFCURVE",
"333 397 OFFCURVE",
"333 356 CURVE SMOOTH",
"333 315 OFFCURVE",
"364 284 OFFCURVE"
);
},
{
closed = 1;
nodes = (
"30 464 LINE",
"616 464 LINE SMOOTH",
"719 464 OFFCURVE",
"780 503 OFFCURVE",
"780 585 CURVE SMOOTH",
"780 606 OFFCURVE",
"775 627 OFFCURVE",
"766 649 CURVE",
"644 649 LINE",
"648 639 OFFCURVE",
"650 629 OFFCURVE",
"650 619 CURVE SMOOTH",
"650 589 OFFCURVE",
"627 576 OFFCURVE",
"587 576 CURVE SMOOTH",
"30 576 LINE"
);
}
);
width = 810;
}
);
unicode = 0CA5;
},
{
glyphname = knDA;
lastChange = "2015-08-27 17:15:05 +0000";
layers = (
{
layerId = "888EDFF5-A106-43F1-8E82-892DE62A2556";
name = Light;
paths = (
{
closed = 1;
nodes = (
"218 -9 CURVE SMOOTH",
"302 -9 OFFCURVE",
"345 34 OFFCURVE",
"355 104 CURVE",
"364 34 OFFCURVE",
"408 -9 OFFCURVE",
"490 -9 CURVE SMOOTH",
"599 -9 OFFCURVE",
"671 82 OFFCURVE",
"671 216 CURVE SMOOTH",
"671 411 OFFCURVE",
"542 540 OFFCURVE",
"355 540 CURVE SMOOTH",
"168 540 OFFCURVE",
"38 411 OFFCURVE",
"38 216 CURVE SMOOTH",
"38 82 OFFCURVE",
"111 -9 OFFCURVE"
);
},
{
closed = 1;
nodes = (
"222 43 CURVE SMOOTH",
"149 43 OFFCURVE",
"100 114 OFFCURVE",
"100 217 CURVE SMOOTH",
"100 380 OFFCURVE",
"204 492 OFFCURVE",
"354 492 CURVE SMOOTH",
"504 492 OFFCURVE",
"609 380 OFFCURVE",
"609 217 CURVE SMOOTH",
"609 114 OFFCURVE",
"561 43 OFFCURVE",
"489 43 CURVE SMOOTH",
"419 43 OFFCURVE",
"385 100 OFFCURVE",
"385 174 CURVE SMOOTH",
"385 209 LINE",
"323 209 LINE",
"323 174 LINE SMOOTH",
"323 100 OFFCURVE",
"289 43 OFFCURVE"
);
},
{
closed = 1;
nodes = (
"44 492 LINE",
"564 492 LINE SMOOTH",
"637 492 OFFCURVE",
"671 523 OFFCURVE",
"671 577 CURVE SMOOTH",
"671 590 OFFCURVE",
"669 602 OFFCURVE",
"665 615 CURVE",
"607 615 LINE",
"609 606 OFFCURVE",
"610 598 OFFCURVE",
"610 591 CURVE SMOOTH",
"610 560 OFFCURVE",
"589 546 OFFCURVE",
"548 546 CURVE SMOOTH",
"44 546 LINE"
);
}
);
width = 708;
},
{
layerId = "A41B5407-ACAD-4F97-B91E-44FCF58F9670";
name = Bold;
paths = (
{
closed = 1;
nodes = (
"243 -9 CURVE SMOOTH",
"330 -9 OFFCURVE",
"393 38 OFFCURVE",
"405 114 CURVE",
"417 38 OFFCURVE",
"480 -9 OFFCURVE",
"567 -9 CURVE SMOOTH",
"704 -9 OFFCURVE",
"780 83 OFFCURVE",
"780 225 CURVE SMOOTH",
"780 411 OFFCURVE",
"646 538 OFFCURVE",
"405 538 CURVE SMOOTH",
"164 538 OFFCURVE",
"30 411 OFFCURVE",
"30 225 CURVE SMOOTH",
"30 83 OFFCURVE",
"106 -9 OFFCURVE"
);
},
{
closed = 1;
nodes = (
"258 106 CURVE SMOOTH",
"201 106 OFFCURVE",
"172 160 OFFCURVE",
"172 235 CURVE SMOOTH",
"172 345 OFFCURVE",
"240 464 OFFCURVE",
"405 464 CURVE SMOOTH",
"570 464 OFFCURVE",
"638 345 OFFCURVE",
"638 235 CURVE SMOOTH",
"638 160 OFFCURVE",
"609 106 OFFCURVE",
"552 106 CURVE SMOOTH",
"504 106 OFFCURVE",
"476 147 OFFCURVE",
"476 210 CURVE SMOOTH",
"476 241 LINE",
"334 241 LINE",
"334 210 LINE SMOOTH",
"334 147 OFFCURVE",
"306 106 OFFCURVE"
);
},
{
closed = 1;
nodes = (
"30 464 LINE",
"616 464 LINE SMOOTH",
"719 464 OFFCURVE",
"780 503 OFFCURVE",
"780 585 CURVE SMOOTH",
"780 606 OFFCURVE",
"775 627 OFFCURVE",
"766 649 CURVE",
"644 649 LINE",
"648 639 OFFCURVE",
"650 629 OFFCURVE",
"650 619 CURVE SMOOTH",
"650 589 OFFCURVE",
"627 576 OFFCURVE",
"587 576 CURVE SMOOTH",
"30 576 LINE"
);
}
);
width = 810;
}
);
unicode = 0CA6;
},
{
glyphname = knDHA;
lastChange = "2015-08-27 17:15:05 +0000";
layers = (
{
layerId = "888EDFF5-A106-43F1-8E82-892DE62A2556";
name = Light;
paths = (
{
closed = 1;
nodes = (
"218 -9 CURVE SMOOTH",
"302 -9 OFFCURVE",
"345 34 OFFCURVE",
"355 104 CURVE",
"364 34 OFFCURVE",
"408 -9 OFFCURVE",
"490 -9 CURVE SMOOTH",
"599 -9 OFFCURVE",
"671 82 OFFCURVE",
"671 216 CURVE SMOOTH",
"671 411 OFFCURVE",
"542 540 OFFCURVE",
"355 540 CURVE SMOOTH",
"168 540 OFFCURVE",
"38 411 OFFCURVE",
"38 216 CURVE SMOOTH",
"38 82 OFFCURVE",
"111 -9 OFFCURVE"
);
},
{
closed = 1;
nodes = (
"312 -186 LINE",
"398 -186 LINE",
"398 -172 LINE",
"369 4 LINE",
"342 4 LINE",
"312 -172 LINE"
);
},
{
closed = 1;
nodes = (
"222 43 CURVE SMOOTH",
"149 43 OFFCURVE",
"100 114 OFFCURVE",
"100 217 CURVE SMOOTH",
"100 380 OFFCURVE",
"204 492 OFFCURVE",
"354 492 CURVE SMOOTH",
"504 492 OFFCURVE",
"609 380 OFFCURVE",
"609 217 CURVE SMOOTH",
"609 114 OFFCURVE",
"561 43 OFFCURVE",
"489 43 CURVE SMOOTH",
"419 43 OFFCURVE",
"385 100 OFFCURVE",
"385 174 CURVE SMOOTH",
"385 209 LINE",
"323 209 LINE",
"323 174 LINE SMOOTH",
"323 100 OFFCURVE",
"289 43 OFFCURVE"
);
},
{
closed = 1;
nodes = (
"44 492 LINE",
"564 492 LINE SMOOTH",
"637 492 OFFCURVE",
"671 523 OFFCURVE",
"671 577 CURVE SMOOTH",
"671 590 OFFCURVE",
"669 602 OFFCURVE",
"665 615 CURVE",
"607 615 LINE",
"609 606 OFFCURVE",
"610 598 OFFCURVE",
"610 591 CURVE SMOOTH",
"610 560 OFFCURVE",
"589 546 OFFCURVE",
"548 546 CURVE SMOOTH",
"44 546 LINE"
);
}
);
width = 708;
},
{
layerId = "A41B5407-ACAD-4F97-B91E-44FCF58F9670";
name = Bold;
paths = (
{
closed = 1;
nodes = (
"243 -9 CURVE SMOOTH",
"330 -9 OFFCURVE",
"393 38 OFFCURVE",
"405 114 CURVE",
"417 38 OFFCURVE",
"480 -9 OFFCURVE",
"567 -9 CURVE SMOOTH",
"704 -9 OFFCURVE",
"780 83 OFFCURVE",
"780 225 CURVE SMOOTH",
"780 411 OFFCURVE",
"646 538 OFFCURVE",
"405 538 CURVE SMOOTH",
"164 538 OFFCURVE",
"30 411 OFFCURVE",
"30 225 CURVE SMOOTH",
"30 83 OFFCURVE",
"106 -9 OFFCURVE"
);
},
{
closed = 1;
nodes = (
"328 -196 LINE",
"482 -196 LINE",
"482 -181 LINE",
"438 4 LINE",
"372 4 LINE",
"328 -181 LINE"
);
},
{
closed = 1;
nodes = (
"258 106 CURVE SMOOTH",
"201 106 OFFCURVE",
"172 160 OFFCURVE",
"172 235 CURVE SMOOTH",
"172 345 OFFCURVE",
"240 464 OFFCURVE",
"405 464 CURVE SMOOTH",
"570 464 OFFCURVE",
"638 345 OFFCURVE",
"638 235 CURVE SMOOTH",
"638 160 OFFCURVE",
"609 106 OFFCURVE",
"552 106 CURVE SMOOTH",
"504 106 OFFCURVE",
"476 147 OFFCURVE",
"476 210 CURVE SMOOTH",
"476 241 LINE",
"334 241 LINE",
"334 210 LINE SMOOTH",
"334 147 OFFCURVE",
"306 106 OFFCURVE"
);
},
{
closed = 1;
nodes = (
"30 464 LINE",
"616 464 LINE SMOOTH",
"719 464 OFFCURVE",
"780 503 OFFCURVE",
"780 585 CURVE SMOOTH",
"780 606 OFFCURVE",
"775 627 OFFCURVE",
"766 649 CURVE",
"644 649 LINE",
"648 639 OFFCURVE",
"650 629 OFFCURVE",
"650 619 CURVE SMOOTH",
"650 589 OFFCURVE",
"627 576 OFFCURVE",
"587 576 CURVE SMOOTH",
"30 576 LINE"
);
}
);
width = 810;
}
);
unicode = 0CA7;
},
{
glyphname = knNA;
lastChange = "2015-08-27 17:15:05 +0000";
layers = (
{
layerId = "888EDFF5-A106-43F1-8E82-892DE62A2556";
name = Light;
paths = (
{
closed = 1;
nodes = (
"178 -9 CURVE SMOOTH",
"199 -9 OFFCURVE",
"217 -7 OFFCURVE",
"234 1 CURVE",
"234 50 LINE",
"218 45 OFFCURVE",
"201 43 OFFCURVE",
"186 43 CURVE SMOOTH",
"132 43 OFFCURVE",
"100 87 OFFCURVE",
"100 157 CURVE SMOOTH",
"100 229 OFFCURVE",
"139 271 OFFCURVE",
"199 271 CURVE SMOOTH",
"333 271 OFFCURVE",
"313 -9 OFFCURVE",
"490 -9 CURVE SMOOTH",
"593 -9 OFFCURVE",
"652 64 OFFCURVE",
"652 203 CURVE SMOOTH",
"652 362 OFFCURVE",
"524 520 OFFCURVE",
"341 520 CURVE SMOOTH",
"329 520 OFFCURVE",
"319 519 OFFCURVE",
"306 517 CURVE",
"282 492 LINE",
"478 492 OFFCURVE",
"591 347 OFFCURVE",
"591 195 CURVE SMOOTH",
"591 102 OFFCURVE",
"559 43 OFFCURVE",
"494 43 CURVE SMOOTH",
"357 43 OFFCURVE",
"391 324 OFFCURVE",
"198 324 CURVE SMOOTH",
"99 324 OFFCURVE",
"38 255 OFFCURVE",
"38 154 CURVE SMOOTH",
"38 57 OFFCURVE",
"98 -9 OFFCURVE"
);
},
{
closed = 1;
nodes = (
"54 492 LINE",
"534 492 LINE SMOOTH",
"607 492 OFFCURVE",
"641 523 OFFCURVE",
"641 577 CURVE SMOOTH",
"641 590 OFFCURVE",
"638 602 OFFCURVE",
"634 615 CURVE",
"577 615 LINE",
"579 606 OFFCURVE",
"579 598 OFFCURVE",
"579 591 CURVE SMOOTH",
"579 560 OFFCURVE",
"559 546 OFFCURVE",
"518 546 CURVE SMOOTH",
"54 546 LINE"
);
}
);
width = 690;
},
{
layerId = "A41B5407-ACAD-4F97-B91E-44FCF58F9670";
name = Bold;
paths = (
{
closed = 1;
nodes = (
"209 -10 CURVE SMOOTH",
"230 -10 OFFCURVE",
"252 -7 OFFCURVE",
"272 -2 CURVE",
"272 110 LINE",
"261 106 OFFCURVE",
"250 105 OFFCURVE",
"237 105 CURVE SMOOTH",
"195 105 OFFCURVE",
"172 132 OFFCURVE",
"172 181 CURVE SMOOTH",
"172 229 OFFCURVE",
"196 256 OFFCURVE",
"234 256 CURVE SMOOTH",
"356 256 OFFCURVE",
"317 -10 OFFCURVE",
"556 -10 CURVE SMOOTH",
"696 -10 OFFCURVE",
"764 92 OFFCURVE",
"764 220 CURVE SMOOTH",
"764 387 OFFCURVE",
"632 493 OFFCURVE",
"430 493 CURVE SMOOTH",
"389 493 OFFCURVE",
"368 490 OFFCURVE",
"347 486 CURVE",
"347 464 LINE",
"525 464 OFFCURVE",
"623 330 OFFCURVE",
"623 213 CURVE SMOOTH",
"623 155 OFFCURVE",
"611 106 OFFCURVE",
"556 106 CURVE SMOOTH",
"451 106 OFFCURVE",
"469 372 OFFCURVE",
"233 372 CURVE SMOOTH",
"106 372 OFFCURVE",
"30 293 OFFCURVE",
"30 178 CURVE SMOOTH",
"30 63 OFFCURVE",
"106 -10 OFFCURVE"
);
},
{
closed = 1;
nodes = (
"45 464 LINE",
"600 464 LINE SMOOTH",
"703 464 OFFCURVE",
"764 503 OFFCURVE",
"764 585 CURVE SMOOTH",
"764 606 OFFCURVE",
"759 627 OFFCURVE",
"750 649 CURVE",
"628 649 LINE",
"632 639 OFFCURVE",
"634 629 OFFCURVE",
"634 619 CURVE SMOOTH",
"634 589 OFFCURVE",
"611 576 OFFCURVE",
"571 576 CURVE SMOOTH",
"45 576 LINE"
);
}
);
width = 794;
}
);
unicode = 0CA8;
},
{
glyphname = knPA;
lastChange = "2015-08-27 17:15:05 +0000";
layers = (
{
layerId = "888EDFF5-A106-43F1-8E82-892DE62A2556";
name = Light;
paths = (
{
closed = 1;
nodes = (
"211 -9 CURVE SMOOTH",
"289 -9 OFFCURVE",
"345 30 OFFCURVE",
"355 99 CURVE",
"366 30 OFFCURVE",
"418 -9 OFFCURVE",
"492 -9 CURVE SMOOTH",
"593 -9 OFFCURVE",
"659 61 OFFCURVE",
"659 184 CURVE SMOOTH",
"659 251 OFFCURVE",
"639 306 OFFCURVE",
"600 364 CURVE",
"531 364 LINE",
"582 296 OFFCURVE",
"596 239 OFFCURVE",
"596 181 CURVE SMOOTH",
"596 89 OFFCURVE",
"554 43 OFFCURVE",
"491 43 CURVE SMOOTH",
"421 43 OFFCURVE",
"386 98 OFFCURVE",
"386 165 CURVE SMOOTH",
"386 209 LINE",
"324 209 LINE",
"324 165 LINE SMOOTH",
"324 92 OFFCURVE",
"279 43 OFFCURVE",
"211 43 CURVE SMOOTH",
"138 43 OFFCURVE",
"99 93 OFFCURVE",
"99 156 CURVE SMOOTH",
"99 222 OFFCURVE",
"137 267 OFFCURVE",
"195 267 CURVE SMOOTH",
"204 267 OFFCURVE",
"214 266 OFFCURVE",
"224 265 CURVE",
"224 321 LINE",
"214 323 OFFCURVE",
"201 325 OFFCURVE",
"192 325 CURVE SMOOTH",
"102 325 OFFCURVE",
"38 252 OFFCURVE",
"38 155 CURVE SMOOTH",
"38 60 OFFCURVE",
"103 -9 OFFCURVE"
);
},
{
closed = 1;
nodes = (
"355 319 CURVE SMOOTH",
"386 319 OFFCURVE",
"407 342 OFFCURVE",
"407 371 CURVE SMOOTH",
"407 402 OFFCURVE",
"386 424 OFFCURVE",
"355 424 CURVE SMOOTH",
"326 424 OFFCURVE",
"303 402 OFFCURVE",
"303 371 CURVE SMOOTH",
"303 342 OFFCURVE",
"326 319 OFFCURVE"
);
},
{
closed = 1;
nodes = (
"60 492 LINE",
"533 492 LINE SMOOTH",
"607 492 OFFCURVE",
"640 523 OFFCURVE",
"640 577 CURVE SMOOTH",
"640 590 OFFCURVE",
"638 602 OFFCURVE",
"634 615 CURVE",
"577 615 LINE",
"578 606 OFFCURVE",
"579 598 OFFCURVE",
"579 591 CURVE SMOOTH",
"579 560 OFFCURVE",
"559 546 OFFCURVE",
"518 546 CURVE SMOOTH",
"60 546 LINE"
);
}
);
width = 697;
},
{
layerId = "A41B5407-ACAD-4F97-B91E-44FCF58F9670";
name = Bold;
paths = (
{
closed = 1;
nodes = (
"233 -10 CURVE SMOOTH",
"318 -10 OFFCURVE",
"380 38 OFFCURVE",
"395 114 CURVE",
"407 37 OFFCURVE",
"469 -10 OFFCURVE",
"559 -10 CURVE SMOOTH",
"685 -10 OFFCURVE",
"752 80 OFFCURVE",
"752 209 CURVE SMOOTH",
"752 282 OFFCURVE",
"724 346 OFFCURVE",
"685 397 CURVE",
"535 397 LINE",
"578 350 OFFCURVE",
"612 285 OFFCURVE",
"612 209 CURVE SMOOTH",
"612 153 OFFCURVE",
"591 106 OFFCURVE",
"544 106 CURVE SMOOTH",
"492 106 OFFCURVE",
"466 150 OFFCURVE",
"466 210 CURVE SMOOTH",
"466 246 LINE",
"324 246 LINE",
"324 210 LINE SMOOTH",
"324 147 OFFCURVE",
"296 106 OFFCURVE",
"245 106 CURVE SMOOTH",
"202 106 OFFCURVE",
"172 132 OFFCURVE",
"172 184 CURVE SMOOTH",
"172 226 OFFCURVE",
"199 257 OFFCURVE",
"239 257 CURVE SMOOTH",
"246 257 OFFCURVE",
"253 256 OFFCURVE",
"260 254 CURVE",
"260 366 LINE",
"242 370 OFFCURVE",
"225 372 OFFCURVE",
"209 372 CURVE SMOOTH",
"106 372 OFFCURVE",
"30 299 OFFCURVE",
"30 184 CURVE SMOOTH",
"30 69 OFFCURVE",
"106 -10 OFFCURVE"
);
},
{
closed = 1;
nodes = (
"396 289 CURVE SMOOTH",
"437 289 OFFCURVE",
"468 320 OFFCURVE",
"468 361 CURVE SMOOTH",
"468 402 OFFCURVE",
"437 433 OFFCURVE",
"396 433 CURVE SMOOTH",
"355 433 OFFCURVE",
"324 402 OFFCURVE",
"324 361 CURVE SMOOTH",
"324 320 OFFCURVE",
"355 289 OFFCURVE"
);
},
{
closed = 1;
nodes = (
"45 464 LINE",
"578 464 LINE SMOOTH",
"681 464 OFFCURVE",
"742 503 OFFCURVE",
"742 585 CURVE SMOOTH",
"742 606 OFFCURVE",
"737 627 OFFCURVE",
"728 649 CURVE",
"606 649 LINE",
"610 639 OFFCURVE",
"612 629 OFFCURVE",
"612 619 CURVE SMOOTH",
"612 589 OFFCURVE",
"589 576 OFFCURVE",
"549 576 CURVE SMOOTH",
"45 576 LINE"
);
}
);
width = 782;
}
);
unicode = 0CAA;
},
{
glyphname = knPHA;
lastChange = "2015-08-27 17:15:05 +0000";
layers = (
{
layerId = "888EDFF5-A106-43F1-8E82-892DE62A2556";
name = Light;
paths = (
{
closed = 1;
nodes = (
"211 -9 CURVE SMOOTH",
"289 -9 OFFCURVE",
"345 30 OFFCURVE",
"355 99 CURVE",
"366 30 OFFCURVE",
"418 -9 OFFCURVE",
"492 -9 CURVE SMOOTH",
"593 -9 OFFCURVE",
"659 61 OFFCURVE",
"659 184 CURVE SMOOTH",
"659 251 OFFCURVE",
"639 306 OFFCURVE",
"600 364 CURVE",
"531 364 LINE",
"582 296 OFFCURVE",
"596 239 OFFCURVE",
"596 181 CURVE SMOOTH",
"596 89 OFFCURVE",
"554 43 OFFCURVE",
"491 43 CURVE SMOOTH",
"421 43 OFFCURVE",
"386 98 OFFCURVE",
"386 165 CURVE SMOOTH",
"386 209 LINE",
"324 209 LINE",
"324 165 LINE SMOOTH",
"324 92 OFFCURVE",
"279 43 OFFCURVE",
"211 43 CURVE SMOOTH",
"138 43 OFFCURVE",
"99 93 OFFCURVE",
"99 156 CURVE SMOOTH",
"99 222 OFFCURVE",
"137 267 OFFCURVE",
"195 267 CURVE SMOOTH",
"204 267 OFFCURVE",
"214 266 OFFCURVE",
"224 265 CURVE",
"224 321 LINE",
"214 323 OFFCURVE",
"201 325 OFFCURVE",
"192 325 CURVE SMOOTH",
"102 325 OFFCURVE",
"38 252 OFFCURVE",
"38 155 CURVE SMOOTH",
"38 60 OFFCURVE",
"103 -9 OFFCURVE"
);
},
{
closed = 1;
nodes = (
"313 -186 LINE",
"400 -186 LINE",
"400 -172 LINE",
"370 4 LINE",
"343 4 LINE",
"313 -172 LINE"
);
},
{
closed = 1;
nodes = (
"355 319 CURVE SMOOTH",
"386 319 OFFCURVE",
"407 342 OFFCURVE",
"407 371 CURVE SMOOTH",
"407 402 OFFCURVE",
"386 424 OFFCURVE",
"355 424 CURVE SMOOTH",
"326 424 OFFCURVE",
"303 402 OFFCURVE",
"303 371 CURVE SMOOTH",
"303 342 OFFCURVE",
"326 319 OFFCURVE"
);
},
{
closed = 1;
nodes = (
"60 492 LINE",
"527 492 LINE SMOOTH",
"600 492 OFFCURVE",
"634 523 OFFCURVE",
"634 577 CURVE SMOOTH",
"634 590 OFFCURVE",
"633 602 OFFCURVE",
"628 615 CURVE",
"570 615 LINE",
"572 606 OFFCURVE",
"573 598 OFFCURVE",
"573 591 CURVE SMOOTH",
"573 560 OFFCURVE",
"552 546 OFFCURVE",
"511 546 CURVE SMOOTH",
"60 546 LINE"
);
}
);
width = 697;
},
{
layerId = "A41B5407-ACAD-4F97-B91E-44FCF58F9670";
name = Bold;
paths = (
{
closed = 1;
nodes = (
"233 -10 CURVE SMOOTH",
"318 -10 OFFCURVE",
"380 38 OFFCURVE",
"395 114 CURVE",
"407 37 OFFCURVE",
"469 -10 OFFCURVE",
"559 -10 CURVE SMOOTH",
"685 -10 OFFCURVE",
"752 80 OFFCURVE",
"752 209 CURVE SMOOTH",
"752 282 OFFCURVE",
"724 346 OFFCURVE",
"685 397 CURVE",
"535 397 LINE",
"578 350 OFFCURVE",
"612 285 OFFCURVE",
"612 209 CURVE SMOOTH",
"612 153 OFFCURVE",
"591 106 OFFCURVE",
"544 106 CURVE SMOOTH",
"492 106 OFFCURVE",
"466 150 OFFCURVE",
"466 210 CURVE SMOOTH",
"466 246 LINE",
"324 246 LINE",
"324 210 LINE SMOOTH",
"324 147 OFFCURVE",
"296 106 OFFCURVE",
"245 106 CURVE SMOOTH",
"202 106 OFFCURVE",
"172 132 OFFCURVE",
"172 184 CURVE SMOOTH",
"172 226 OFFCURVE",
"199 257 OFFCURVE",
"239 257 CURVE SMOOTH",
"246 257 OFFCURVE",
"253 256 OFFCURVE",
"260 254 CURVE",
"260 366 LINE",
"242 370 OFFCURVE",
"225 372 OFFCURVE",
"209 372 CURVE SMOOTH",
"106 372 OFFCURVE",
"30 299 OFFCURVE",
"30 184 CURVE SMOOTH",
"30 69 OFFCURVE",
"106 -10 OFFCURVE"
);
},
{
closed = 1;
nodes = (
"318 -196 LINE",
"472 -196 LINE",
"472 -181 LINE",
"428 4 LINE",
"362 4 LINE",
"318 -181 LINE"
);
},
{
closed = 1;
nodes = (
"396 289 CURVE SMOOTH",
"437 289 OFFCURVE",
"468 320 OFFCURVE",
"468 361 CURVE SMOOTH",
"468 402 OFFCURVE",
"437 433 OFFCURVE",
"396 433 CURVE SMOOTH",
"355 433 OFFCURVE",
"324 402 OFFCURVE",
"324 361 CURVE SMOOTH",
"324 320 OFFCURVE",
"355 289 OFFCURVE"
);
},
{
closed = 1;
nodes = (
"45 464 LINE",
"578 464 LINE SMOOTH",
"681 464 OFFCURVE",
"742 503 OFFCURVE",
"742 585 CURVE SMOOTH",
"742 606 OFFCURVE",
"737 627 OFFCURVE",
"728 649 CURVE",
"606 649 LINE",
"610 639 OFFCURVE",
"612 629 OFFCURVE",
"612 619 CURVE SMOOTH",
"612 589 OFFCURVE",
"589 576 OFFCURVE",
"549 576 CURVE SMOOTH",
"45 576 LINE"
);
}
);
width = 782;
}
);
unicode = 0CAB;
},
{
glyphname = knBA;
lastChange = "2015-08-27 17:15:05 +0000";
layers = (
{
layerId = "888EDFF5-A106-43F1-8E82-892DE62A2556";
name = Light;
paths = (
{
closed = 1;
nodes = (
"205 -9 CURVE SMOOTH",
"285 -9 OFFCURVE",
"343 30 OFFCURVE",
"359 99 CURVE",
"370 30 OFFCURVE",
"422 -9 OFFCURVE",
"496 -9 CURVE SMOOTH",
"610 -9 OFFCURVE",
"678 91 OFFCURVE",
"678 254 CURVE SMOOTH",
"678 449 OFFCURVE",
"586 552 OFFCURVE",
"445 552 CURVE SMOOTH",
"437 552 OFFCURVE",
"425 551 OFFCURVE",
"416 549 CURVE",
"416 490 LINE",
"426 492 OFFCURVE",
"436 493 OFFCURVE",
"445 493 CURVE SMOOTH",
"564 493 OFFCURVE",
"616 390 OFFCURVE",
"616 256 CURVE SMOOTH",
"616 141 OFFCURVE",
"580 43 OFFCURVE",
"496 43 CURVE SMOOTH",
"433 43 OFFCURVE",
"391 94 OFFCURVE",
"391 165 CURVE",
"391 209 LINE",
"329 209 LINE",
"329 165 LINE",
"329 96 OFFCURVE",
"281 43 OFFCURVE",
"209 43 CURVE SMOOTH",
"145 43 OFFCURVE",
"110 79 OFFCURVE",
"110 132 CURVE SMOOTH",
"110 265 OFFCURVE",
"334 276 OFFCURVE",
"334 423 CURVE SMOOTH",
"334 492 OFFCURVE",
"288 557 OFFCURVE",
"201 557 CURVE SMOOTH",
"115 557 OFFCURVE",
"64 500 OFFCURVE",
"64 423 CURVE SMOOTH",
"64 409 OFFCURVE",
"66 394 OFFCURVE",
"70 379 CURVE",
"129 379 LINE",
"126 394 OFFCURVE",
"124 407 OFFCURVE",
"124 420 CURVE SMOOTH",
"124 476 OFFCURVE",
"158 504 OFFCURVE",
"201 504 CURVE SMOOTH",
"248 504 OFFCURVE",
"274 471 OFFCURVE",
"274 422 CURVE SMOOTH",
"274 303 OFFCURVE",
"47 293 OFFCURVE",
"47 132 CURVE SMOOTH",
"47 47 OFFCURVE",
"112 -9 OFFCURVE"
);
}
);
width = 725;
},
{
layerId = "A41B5407-ACAD-4F97-B91E-44FCF58F9670";
name = Bold;
paths = (
{
closed = 1;
nodes = (
"236 -10 CURVE SMOOTH",
"330 -10 OFFCURVE",
"401 32 OFFCURVE",
"420 114 CURVE",
"431 39 OFFCURVE",
"493 -10 OFFCURVE",
"578 -10 CURVE SMOOTH",
"724 -10 OFFCURVE",
"791 115 OFFCURVE",
"791 258 CURVE SMOOTH",
"791 437 OFFCURVE",
"694 583 OFFCURVE",
"528 583 CURVE SMOOTH",
"508 583 OFFCURVE",
"487 580 OFFCURVE",
"466 576 CURVE",
"466 461 LINE",
"478 463 OFFCURVE",
"490 465 OFFCURVE",
"502 465 CURVE SMOOTH",
"603 465 OFFCURVE",
"650 379 OFFCURVE",
"650 256 CURVE SMOOTH",
"650 181 OFFCURVE",
"633 106 OFFCURVE",
"567 106 CURVE SMOOTH",
"519 106 OFFCURVE",
"491 147 OFFCURVE",
"491 210 CURVE SMOOTH",
"491 251 LINE",
"349 251 LINE",
"349 210 LINE SMOOTH",
"349 144 OFFCURVE",
"313 106 OFFCURVE",
"250 106 CURVE SMOOTH",
"216 106 OFFCURVE",
"181 120 OFFCURVE",
"181 160 CURVE SMOOTH",
"181 250 OFFCURVE",
"406 276 OFFCURVE",
"406 427 CURVE SMOOTH",
"406 527 OFFCURVE",
"329 587 OFFCURVE",
"232 587 CURVE SMOOTH",
"115 587 OFFCURVE",
"54 517 OFFCURVE",
"54 430 CURVE SMOOTH",
"54 414 OFFCURVE",
"56 401 OFFCURVE",
"60 384 CURVE",
"192 384 LINE",
"189 396 OFFCURVE",
"187 406 OFFCURVE",
"187 418 CURVE SMOOTH",
"187 447 OFFCURVE",
"200 470 OFFCURVE",
"232 470 CURVE SMOOTH",
"259 470 OFFCURVE",
"275 450 OFFCURVE",
"275 423 CURVE SMOOTH",
"275 334 OFFCURVE",
"40 318 OFFCURVE",
"40 154 CURVE SMOOTH",
"40 53 OFFCURVE",
"119 -10 OFFCURVE"
);
}
);
width = 831;
}
);
unicode = 0CAC;
},
{
glyphname = knBHA;
lastChange = "2015-08-27 17:15:05 +0000";
layers = (
{
layerId = "888EDFF5-A106-43F1-8E82-892DE62A2556";
name = Light;
paths = (
{
closed = 1;
nodes = (
"205 -9 CURVE SMOOTH",
"286 -9 OFFCURVE",
"343 30 OFFCURVE",
"359 99 CURVE",
"370 30 OFFCURVE",
"420 -9 OFFCURVE",
"494 -9 CURVE SMOOTH",
"605 -9 OFFCURVE",
"678 86 OFFCURVE",
"678 245 CURVE SMOOTH",
"678 402 OFFCURVE",
"565 522 OFFCURVE",
"435 523 CURVE",
"403 492 LINE",
"537 491 OFFCURVE",
"615 354 OFFCURVE",
"615 244 CURVE SMOOTH",
"615 134 OFFCURVE",
"582 43 OFFCURVE",
"495 43 CURVE SMOOTH",
"432 43 OFFCURVE",
"391 94 OFFCURVE",
"391 165 CURVE",
"391 209 LINE",
"329 209 LINE",
"329 165 LINE",
"329 96 OFFCURVE",
"281 43 OFFCURVE",
"209 43 CURVE SMOOTH",
"145 43 OFFCURVE",
"110 79 OFFCURVE",
"110 132 CURVE SMOOTH",
"110 265 OFFCURVE",
"334 276 OFFCURVE",
"334 423 CURVE SMOOTH",
"334 492 OFFCURVE",
"280 557 OFFCURVE",
"201 557 CURVE SMOOTH",
"115 557 OFFCURVE",
"64 500 OFFCURVE",
"64 423 CURVE SMOOTH",
"64 409 OFFCURVE",
"66 394 OFFCURVE",
"70 379 CURVE",
"129 379 LINE",
"126 394 OFFCURVE",
"124 407 OFFCURVE",
"124 420 CURVE SMOOTH",
"124 476 OFFCURVE",
"158 504 OFFCURVE",
"201 504 CURVE SMOOTH",
"248 504 OFFCURVE",
"274 471 OFFCURVE",
"274 422 CURVE SMOOTH",
"274 303 OFFCURVE",
"47 293 OFFCURVE",
"47 132 CURVE SMOOTH",
"47 47 OFFCURVE",
"112 -9 OFFCURVE"
);
},
{
closed = 1;
nodes = (
"315 -186 LINE",
"402 -186 LINE",
"402 -172 LINE",
"372 4 LINE",
"345 4 LINE",
"315 -172 LINE"
);
},
{
closed = 1;
nodes = (
"404 492 LINE",
"546 492 LINE SMOOTH",
"619 492 OFFCURVE",
"653 523 OFFCURVE",
"653 577 CURVE SMOOTH",
"653 590 OFFCURVE",
"652 602 OFFCURVE",
"647 615 CURVE",
"589 615 LINE",
"591 606 OFFCURVE",
"592 598 OFFCURVE",
"592 591 CURVE SMOOTH",
"592 560 OFFCURVE",
"571 546 OFFCURVE",
"530 546 CURVE SMOOTH",
"404 546 LINE"
);
}
);
width = 715;
},
{
layerId = "A41B5407-ACAD-4F97-B91E-44FCF58F9670";
name = Bold;
paths = (
{
closed = 1;
nodes = (
"236 -10 CURVE SMOOTH",
"333 -10 OFFCURVE",
"402 35 OFFCURVE",
"420 114 CURVE",
"431 39 OFFCURVE",
"493 -10 OFFCURVE",
"578 -10 CURVE SMOOTH",
"709 -10 OFFCURVE",
"803 85 OFFCURVE",
"803 241 CURVE SMOOTH",
"803 385 OFFCURVE",
"691 491 OFFCURVE",
"508 497 CURVE",
"474 464 LINE",
"585 460 OFFCURVE",
"661 390 OFFCURVE",
"661 265 CURVE SMOOTH",
"661 183 OFFCURVE",
"636 106 OFFCURVE",
"567 106 CURVE SMOOTH",
"519 106 OFFCURVE",
"491 147 OFFCURVE",
"491 210 CURVE SMOOTH",
"491 251 LINE",
"349 251 LINE",
"349 210 LINE SMOOTH",
"349 144 OFFCURVE",
"313 106 OFFCURVE",
"250 106 CURVE SMOOTH",
"216 106 OFFCURVE",
"181 120 OFFCURVE",
"181 160 CURVE SMOOTH",
"181 250 OFFCURVE",
"406 276 OFFCURVE",
"406 427 CURVE SMOOTH",
"406 527 OFFCURVE",
"329 587 OFFCURVE",
"232 587 CURVE SMOOTH",
"115 587 OFFCURVE",
"54 517 OFFCURVE",
"54 430 CURVE SMOOTH",
"54 414 OFFCURVE",
"56 401 OFFCURVE",
"60 384 CURVE",
"192 384 LINE",
"189 396 OFFCURVE",
"187 406 OFFCURVE",
"187 418 CURVE SMOOTH",
"187 447 OFFCURVE",
"200 470 OFFCURVE",
"232 470 CURVE SMOOTH",
"259 470 OFFCURVE",
"275 450 OFFCURVE",
"275 423 CURVE SMOOTH",
"275 334 OFFCURVE",
"40 318 OFFCURVE",
"40 154 CURVE SMOOTH",
"40 53 OFFCURVE",
"119 -10 OFFCURVE"
);
},
{
closed = 1;
nodes = (
"343 -196 LINE",
"497 -196 LINE",
"497 -181 LINE",
"453 4 LINE",
"387 4 LINE",
"343 -181 LINE"
);
},
{
closed = 1;
nodes = (
"474 464 LINE",
"639 464 LINE SMOOTH",
"742 464 OFFCURVE",
"803 503 OFFCURVE",
"803 585 CURVE SMOOTH",
"803 606 OFFCURVE",
"798 627 OFFCURVE",
"789 649 CURVE",
"667 649 LINE",
"671 639 OFFCURVE",
"673 629 OFFCURVE",
"673 619 CURVE SMOOTH",
"673 589 OFFCURVE",
"650 576 OFFCURVE",
"610 576 CURVE",
"474 576 LINE"
);
}
);
width = 833;
}
);
unicode = 0CAD;
},
{
glyphname = knMA;
lastChange = "2015-08-27 17:15:05 +0000";
layers = (
{
layerId = "888EDFF5-A106-43F1-8E82-892DE62A2556";
name = Light;
paths = (
{
closed = 1;
nodes = (
"212 -9 CURVE SMOOTH",
"287 -9 OFFCURVE",
"340 30 OFFCURVE",
"352 99 CURVE",
"362 30 OFFCURVE",
"418 -9 OFFCURVE",
"493 -9 CURVE SMOOTH",
"599 -9 OFFCURVE",
"668 75 OFFCURVE",
"668 217 CURVE SMOOTH",
"668 373 OFFCURVE",
"560 520 OFFCURVE",
"357 520 CURVE SMOOTH",
"345 520 OFFCURVE",
"337 519 OFFCURVE",
"324 516 CURVE",
"314 492 LINE",
"507 492 OFFCURVE",
"605 353 OFFCURVE",
"605 218 CURVE SMOOTH",
"605 107 OFFCURVE",
"563 43 OFFCURVE",
"493 43 CURVE SMOOTH",
"424 43 OFFCURVE",
"382 96 OFFCURVE",
"382 165 CURVE",
"382 209 LINE",
"320 209 LINE",
"320 165 LINE SMOOTH",
"320 94 OFFCURVE",
"275 43 OFFCURVE",
"212 43 CURVE SMOOTH",
"139 43 OFFCURVE",
"99 93 OFFCURVE",
"99 157 CURVE SMOOTH",
"99 230 OFFCURVE",
"149 272 OFFCURVE",
"213 272 CURVE SMOOTH",
"222 272 OFFCURVE",
"232 271 OFFCURVE",
"242 269 CURVE",
"242 326 LINE",
"232 328 OFFCURVE",
"219 329 OFFCURVE",
"210 329 CURVE SMOOTH",
"112 329 OFFCURVE",
"38 260 OFFCURVE",
"38 156 CURVE SMOOTH",
"38 60 OFFCURVE",
"104 -9 OFFCURVE"
);
},
{
closed = 1;
nodes = (
"56 492 LINE",
"531 492 LINE SMOOTH",
"605 492 OFFCURVE",
"638 523 OFFCURVE",
"638 577 CURVE SMOOTH",
"638 590 OFFCURVE",
"636 602 OFFCURVE",
"633 615 CURVE",
"574 615 LINE",
"576 606 OFFCURVE",
"577 598 OFFCURVE",
"577 591 CURVE SMOOTH",
"577 560 OFFCURVE",
"556 546 OFFCURVE",
"515 546 CURVE SMOOTH",
"56 546 LINE"
);
},
{
closed = 1;
nodes = (
"623 217 LINE",
"623 83 OFFCURVE",
"686 -10 OFFCURVE",
"806 -10 CURVE SMOOTH",
"951 -10 OFFCURVE",
"1009 102 OFFCURVE",
"1009 257 CURVE SMOOTH",
"1009 409 OFFCURVE",
"911 546 OFFCURVE",
"744 546 CURVE",
"744 491 LINE",
"863 491 OFFCURVE",
"947 389 OFFCURVE",
"947 255 CURVE SMOOTH",
"947 130 OFFCURVE",
"907 42 OFFCURVE",
"802 42 CURVE SMOOTH",
"722 42 OFFCURVE",
"668 109 OFFCURVE",
"667 218 CURVE"
);
}
);
width = 1057;
},
{
layerId = "A41B5407-ACAD-4F97-B91E-44FCF58F9670";
name = Bold;
paths = (
{
closed = 1;
nodes = (
"233 -10 CURVE SMOOTH",
"318 -10 OFFCURVE",
"380 38 OFFCURVE",
"395 114 CURVE",
"407 37 OFFCURVE",
"469 -10 OFFCURVE",
"559 -10 CURVE SMOOTH",
"684 -10 OFFCURVE",
"772 82 OFFCURVE",
"772 220 CURVE SMOOTH",
"772 396 OFFCURVE",
"623 493 OFFCURVE",
"416 493 CURVE SMOOTH",
"396 493 OFFCURVE",
"375 490 OFFCURVE",
"354 486 CURVE",
"354 464 LINE",
"510 464 OFFCURVE",
"631 377 OFFCURVE",
"631 234 CURVE SMOOTH",
"631 160 OFFCURVE",
"604 106 OFFCURVE",
"544 106 CURVE SMOOTH",
"492 106 OFFCURVE",
"466 150 OFFCURVE",
"466 210 CURVE SMOOTH",
"466 246 LINE",
"324 246 LINE",
"324 210 LINE SMOOTH",
"324 147 OFFCURVE",
"296 106 OFFCURVE",
"245 106 CURVE SMOOTH",
"202 106 OFFCURVE",
"172 132 OFFCURVE",
"172 184 CURVE SMOOTH",
"172 226 OFFCURVE",
"199 257 OFFCURVE",
"239 257 CURVE SMOOTH",
"246 257 OFFCURVE",
"253 256 OFFCURVE",
"260 254 CURVE",
"260 366 LINE",
"242 370 OFFCURVE",
"225 372 OFFCURVE",
"209 372 CURVE SMOOTH",
"106 372 OFFCURVE",
"30 299 OFFCURVE",
"30 184 CURVE SMOOTH",
"30 69 OFFCURVE",
"106 -10 OFFCURVE"
);
},
{
closed = 1;
nodes = (
"45 464 LINE",
"608 464 LINE SMOOTH",
"711 464 OFFCURVE",
"772 503 OFFCURVE",
"772 585 CURVE SMOOTH",
"772 606 OFFCURVE",
"767 627 OFFCURVE",
"758 649 CURVE",
"636 649 LINE",
"640 639 OFFCURVE",
"642 629 OFFCURVE",
"642 619 CURVE SMOOTH",
"642 589 OFFCURVE",
"619 576 OFFCURVE",
"579 576 CURVE SMOOTH",
"45 576 LINE"
);
},
{
closed = 1;
nodes = (
"689 224 LINE",
"693 84 OFFCURVE",
"752 -10 OFFCURVE",
"895 -10 CURVE SMOOTH",
"1050 -10 OFFCURVE",
"1130 119 OFFCURVE",
"1130 274 CURVE SMOOTH",
"1130 446 OFFCURVE",
"1052 576 OFFCURVE",
"835 576 CURVE",
"835 461 LINE",
"953 461 OFFCURVE",
"989 370 OFFCURVE",
"989 273 CURVE SMOOTH",
"989 172 OFFCURVE",
"954 106 OFFCURVE",
"879 106 CURVE SMOOTH",
"797 106 OFFCURVE",
"775 181 OFFCURVE",
"771 240 CURVE SMOOTH"
);
}
);
width = 1170;
}
);
unicode = 0CAE;
},
{
glyphname = knYA;
lastChange = "2015-08-27 17:15:05 +0000";
layers = (
{
layerId = "888EDFF5-A106-43F1-8E82-892DE62A2556";
name = Light;
paths = (
{
closed = 1;
nodes = (
"473 269 LINE",
"473 100 OFFCURVE",
"540 -9 OFFCURVE",
"663 -9 CURVE SMOOTH",
"775 -9 OFFCURVE",
"862 71 OFFCURVE",
"862 260 CURVE SMOOTH",
"862 410 OFFCURVE",
"764 529 OFFCURVE",
"596 529 CURVE",
"596 492 LINE",
"715 492 OFFCURVE",
"800 390 OFFCURVE",
"800 256 CURVE SMOOTH",
"800 114 OFFCURVE",
"735 43 OFFCURVE",
"663 43 CURVE SMOOTH",
"578 43 OFFCURVE",
"520 123 OFFCURVE",
"520 270 CURVE"
);
},
{
closed = 1;
nodes = (
"596 493 LINE",
"720 493 LINE SMOOTH",
"794 493 OFFCURVE",
"827 529 OFFCURVE",
"827 577 CURVE SMOOTH",
"827 590 OFFCURVE",
"825 602 OFFCURVE",
"821 615 CURVE",
"763 615 LINE",
"764 606 OFFCURVE",
"766 598 OFFCURVE",
"766 591 CURVE SMOOTH",
"766 560 OFFCURVE",
"745 546 OFFCURVE",
"704 546 CURVE SMOOTH",
"596 546 LINE"
);
},
{
closed = 1;
nodes = (
"815 259 LINE",
"815 91 OFFCURVE",
"882 -9 OFFCURVE",
"1005 -9 CURVE SMOOTH",
"1117 -9 OFFCURVE",
"1204 72 OFFCURVE",
"1204 262 CURVE SMOOTH",
"1204 412 OFFCURVE",
"1106 547 OFFCURVE",
"938 547 CURVE",
"938 492 LINE",
"1057 492 OFFCURVE",
"1142 390 OFFCURVE",
"1142 256 CURVE SMOOTH",
"1142 114 OFFCURVE",
"1077 43 OFFCURVE",
"1005 43 CURVE SMOOTH",
"920 43 OFFCURVE",
"862 113 OFFCURVE",
"862 261 CURVE"
);
},
{
closed = 1;
nodes = (
"284 43 CURVE SMOOTH",
"185 43 OFFCURVE",
"109 132 OFFCURVE",
"109 271 CURVE SMOOTH",
"109 408 OFFCURVE",
"185 492 OFFCURVE",
"284 492 CURVE SMOOTH",
"382 492 OFFCURVE",
"457 408 OFFCURVE",
"457 270 CURVE SMOOTH",
"457 131 OFFCURVE",
"382 43 OFFCURVE"
);
},
{
closed = 1;
nodes = (
"284 -9 CURVE SMOOTH",
"422 -9 OFFCURVE",
"520 98 OFFCURVE",
"520 272 CURVE SMOOTH",
"520 440 OFFCURVE",
"423 540 OFFCURVE",
"284 540 CURVE SMOOTH",
"144 540 OFFCURVE",
"47 440 OFFCURVE",
"47 271 CURVE SMOOTH",
"47 98 OFFCURVE",
"145 -9 OFFCURVE"
);
}
);
width = 1251;
},
{
layerId = "A41B5407-ACAD-4F97-B91E-44FCF58F9670";
name = Bold;
paths = (
{
closed = 1;
nodes = (
"514 224 LINE",
"518 84 OFFCURVE",
"577 -10 OFFCURVE",
"720 -10 CURVE SMOOTH",
"866 -10 OFFCURVE",
"954 105 OFFCURVE",
"954 248 CURVE SMOOTH",
"954 403 OFFCURVE",
"887 513 OFFCURVE",
"660 513 CURVE",
"660 464 LINE",
"778 464 OFFCURVE",
"814 370 OFFCURVE",
"814 273 CURVE SMOOTH",
"814 172 OFFCURVE",
"779 106 OFFCURVE",
"704 106 CURVE SMOOTH",
"613 106 OFFCURVE",
"596 198 OFFCURVE",
"596 259 CURVE"
);
},
{
closed = 1;
nodes = (
"660 464 LINE",
"760 464 LINE SMOOTH",
"863 464 OFFCURVE",
"924 503 OFFCURVE",
"924 585 CURVE SMOOTH",
"924 606 OFFCURVE",
"919 627 OFFCURVE",
"910 649 CURVE",
"788 649 LINE",
"792 639 OFFCURVE",
"794 629 OFFCURVE",
"794 619 CURVE SMOOTH",
"794 589 OFFCURVE",
"771 576 OFFCURVE",
"731 576 CURVE SMOOTH",
"660 576 LINE"
);
},
{
closed = 1;
nodes = (
"871 224 LINE",
"875 84 OFFCURVE",
"934 -10 OFFCURVE",
"1077 -10 CURVE SMOOTH",
"1232 -10 OFFCURVE",
"1312 119 OFFCURVE",
"1312 274 CURVE SMOOTH",
"1312 446 OFFCURVE",
"1234 576 OFFCURVE",
"1017 576 CURVE",
"1017 461 LINE",
"1135 461 OFFCURVE",
"1171 370 OFFCURVE",
"1171 273 CURVE SMOOTH",
"1171 172 OFFCURVE",
"1136 106 OFFCURVE",
"1061 106 CURVE SMOOTH",
"970 106 OFFCURVE",
"953 198 OFFCURVE",
"953 259 CURVE"
);
},
{
closed = 1;
nodes = (
"320 105 CURVE SMOOTH",
"235 105 OFFCURVE",
"192 179 OFFCURVE",
"192 280 CURVE SMOOTH",
"192 381 OFFCURVE",
"232 468 OFFCURVE",
"318 468 CURVE SMOOTH",
"410 468 OFFCURVE",
"445 379 OFFCURVE",
"445 278 CURVE SMOOTH",
"445 177 OFFCURVE",
"405 105 OFFCURVE"
);
},
{
closed = 1;
nodes = (
"319 -8 CURVE SMOOTH",
"497 -8 OFFCURVE",
"597 115 OFFCURVE",
"597 288 CURVE SMOOTH",
"597 437 OFFCURVE",
"520 581 OFFCURVE",
"319 581 CURVE SMOOTH",
"128 581 OFFCURVE",
"40 437 OFFCURVE",
"40 279 CURVE SMOOTH",
"40 112 OFFCURVE",
"137 -8 OFFCURVE"
);
}
);
width = 1352;
}
);
unicode = 0CAF;
},
{
glyphname = knRA;
lastChange = "2015-08-27 17:15:05 +0000";
layers = (
{
layerId = "888EDFF5-A106-43F1-8E82-892DE62A2556";
name = Light;
paths = (
{
closed = 1;
nodes = (
"38 492 LINE",
"418 492 LINE SMOOTH",
"491 492 OFFCURVE",
"525 523 OFFCURVE",
"525 577 CURVE SMOOTH",
"525 590 OFFCURVE",
"522 602 OFFCURVE",
"518 615 CURVE",
"460 615 LINE",
"462 606 OFFCURVE",
"463 598 OFFCURVE",
"463 591 CURVE SMOOTH",
"463 560 OFFCURVE",
"442 546 OFFCURVE",
"402 546 CURVE SMOOTH",
"38 546 LINE"
);
},
{
closed = 1;
nodes = (
"280 -9 CURVE SMOOTH",
"418 -9 OFFCURVE",
"516 98 OFFCURVE",
"516 272 CURVE SMOOTH",
"516 439 OFFCURVE",
"419 538 OFFCURVE",
"280 538 CURVE SMOOTH",
"140 538 OFFCURVE",
"43 439 OFFCURVE",
"43 271 CURVE SMOOTH",
"43 98 OFFCURVE",
"141 -9 OFFCURVE"
);
},
{
closed = 1;
nodes = (
"280 43 CURVE SMOOTH",
"181 43 OFFCURVE",
"106 132 OFFCURVE",
"106 271 CURVE SMOOTH",
"106 407 OFFCURVE",
"181 492 OFFCURVE",
"280 492 CURVE SMOOTH",
"379 492 OFFCURVE",
"454 407 OFFCURVE",
"454 270 CURVE SMOOTH",
"454 131 OFFCURVE",
"378 43 OFFCURVE"
);
}
);
width = 562;
},
{
layerId = "A41B5407-ACAD-4F97-B91E-44FCF58F9670";
name = Bold;
paths = (
{
closed = 1;
nodes = (
"30 464 LINE",
"448 464 LINE SMOOTH",
"551 464 OFFCURVE",
"612 503 OFFCURVE",
"612 585 CURVE SMOOTH",
"612 606 OFFCURVE",
"607 627 OFFCURVE",
"598 649 CURVE",
"476 649 LINE",
"480 639 OFFCURVE",
"482 629 OFFCURVE",
"482 619 CURVE SMOOTH",
"482 589 OFFCURVE",
"459 576 OFFCURVE",
"419 576 CURVE SMOOTH",
"30 576 LINE"
);
},
{
closed = 1;
nodes = (
"319 -8 CURVE SMOOTH",
"497 -8 OFFCURVE",
"597 115 OFFCURVE",
"597 283 CURVE SMOOTH",
"597 417 OFFCURVE",
"520 542 OFFCURVE",
"319 542 CURVE SMOOTH",
"128 542 OFFCURVE",
"40 417 OFFCURVE",
"40 274 CURVE SMOOTH",
"40 112 OFFCURVE",
"137 -8 OFFCURVE"
);
},
{
closed = 1;
nodes = (
"320 105 CURVE SMOOTH",
"235 105 OFFCURVE",
"192 179 OFFCURVE",
"192 280 CURVE SMOOTH",
"192 371 OFFCURVE",
"231 464 OFFCURVE",
"318 464 CURVE SMOOTH",
"411 464 OFFCURVE",
"445 369 OFFCURVE",
"445 278 CURVE SMOOTH",
"445 177 OFFCURVE",
"405 105 OFFCURVE"
);
}
);
width = 642;
}
);
unicode = 0CB0;
},
{
glyphname = knLA;
lastChange = "2015-08-27 17:15:05 +0000";
layers = (
{
layerId = "888EDFF5-A106-43F1-8E82-892DE62A2556";
name = Light;
paths = (
{
closed = 1;
nodes = (
"351 -10 CURVE SMOOTH",
"532 -10 OFFCURVE",
"657 122 OFFCURVE",
"657 296 CURVE SMOOTH",
"657 435 OFFCURVE",
"571 556 OFFCURVE",
"436 556 CURVE",
"436 503 LINE",
"527 496 OFFCURVE",
"594 412 OFFCURVE",
"594 300 CURVE SMOOTH",
"594 149 OFFCURVE",
"499 43 OFFCURVE",
"353 43 CURVE SMOOTH",
"189 43 OFFCURVE",
"97 156 OFFCURVE",
"97 328 CURVE SMOOTH",
"97 353 OFFCURVE",
"99 376 OFFCURVE",
"105 400 CURVE",
"89 402 LINE",
"89 324 OFFCURVE",
"143 277 OFFCURVE",
"219 277 CURVE SMOOTH",
"294 277 OFFCURVE",
"356 333 OFFCURVE",
"356 414 CURVE SMOOTH",
"356 489 OFFCURVE",
"305 556 OFFCURVE",
"218 556 CURVE SMOOTH",
"108 556 OFFCURVE",
"43 448 OFFCURVE",
"43 315 CURVE SMOOTH",
"43 118 OFFCURVE",
"162 -10 OFFCURVE"
);
},
{
closed = 1;
nodes = (
"216 329 CURVE SMOOTH",
"166 329 OFFCURVE",
"129 358 OFFCURVE",
"129 416 CURVE SMOOTH",
"129 457 OFFCURVE",
"158 503 OFFCURVE",
"213 503 CURVE SMOOTH",
"267 503 OFFCURVE",
"295 460 OFFCURVE",
"295 414 CURVE SMOOTH",
"295 361 OFFCURVE",
"260 329 OFFCURVE"
);
}
);
width = 704;
},
{
layerId = "A41B5407-ACAD-4F97-B91E-44FCF58F9670";
name = Bold;
paths = (
{
closed = 1;
nodes = (
"397 -21 CURVE SMOOTH",
"611 -21 OFFCURVE",
"751 126 OFFCURVE",
"751 303 CURVE SMOOTH",
"751 444 OFFCURVE",
"674 587 OFFCURVE",
"483 586 CURVE",
"483 467 LINE",
"568 462 OFFCURVE",
"609 382 OFFCURVE",
"609 298 CURVE SMOOTH",
"609 189 OFFCURVE",
"543 92 OFFCURVE",
"403 92 CURVE SMOOTH",
"254 92 OFFCURVE",
"182 183 OFFCURVE",
"182 298 CURVE SMOOTH",
"182 324 OFFCURVE",
"185 350 OFFCURVE",
"191 374 CURVE",
"163 366 LINE",
"172 298 OFFCURVE",
"216 262 OFFCURVE",
"286 262 CURVE SMOOTH",
"377 262 OFFCURVE",
"434 332 OFFCURVE",
"434 422 CURVE SMOOTH",
"434 500 OFFCURVE",
"384 586 OFFCURVE",
"272 586 CURVE SMOOTH",
"108 586 OFFCURVE",
"40 431 OFFCURVE",
"40 304 CURVE SMOOTH",
"40 111 OFFCURVE",
"190 -21 OFFCURVE"
);
},
{
closed = 1;
nodes = (
"252 360 CURVE SMOOTH",
"217 360 OFFCURVE",
"196 382 OFFCURVE",
"196 416 CURVE SMOOTH",
"196 447 OFFCURVE",
"216 474 OFFCURVE",
"249 474 CURVE SMOOTH",
"286 474 OFFCURVE",
"305 449 OFFCURVE",
"305 418 CURVE SMOOTH",
"305 387 OFFCURVE",
"287 360 OFFCURVE"
);
}
);
width = 791;
}
);
unicode = 0CB2;
},
{
glyphname = knVA;
lastChange = "2015-08-27 17:15:05 +0000";
layers = (
{
layerId = "888EDFF5-A106-43F1-8E82-892DE62A2556";
name = Light;
paths = (
{
closed = 1;
nodes = (
"212 -9 CURVE SMOOTH",
"287 -9 OFFCURVE",
"340 30 OFFCURVE",
"352 99 CURVE",
"362 30 OFFCURVE",
"418 -9 OFFCURVE",
"493 -9 CURVE SMOOTH",
"599 -9 OFFCURVE",
"668 75 OFFCURVE",
"668 217 CURVE SMOOTH",
"668 373 OFFCURVE",
"560 520 OFFCURVE",
"357 520 CURVE SMOOTH",
"345 520 OFFCURVE",
"337 519 OFFCURVE",
"324 516 CURVE",
"314 492 LINE",
"507 492 OFFCURVE",
"605 353 OFFCURVE",
"605 218 CURVE SMOOTH",
"605 107 OFFCURVE",
"563 43 OFFCURVE",
"493 43 CURVE SMOOTH",
"424 43 OFFCURVE",
"382 96 OFFCURVE",
"382 165 CURVE",
"382 209 LINE",
"320 209 LINE",
"320 165 LINE SMOOTH",
"320 94 OFFCURVE",
"275 43 OFFCURVE",
"212 43 CURVE SMOOTH",
"139 43 OFFCURVE",
"99 93 OFFCURVE",
"99 157 CURVE SMOOTH",
"99 230 OFFCURVE",
"149 272 OFFCURVE",
"213 272 CURVE SMOOTH",
"222 272 OFFCURVE",
"232 271 OFFCURVE",
"242 269 CURVE",
"242 326 LINE",
"232 328 OFFCURVE",
"219 329 OFFCURVE",
"210 329 CURVE SMOOTH",
"112 329 OFFCURVE",
"38 260 OFFCURVE",
"38 156 CURVE SMOOTH",
"38 60 OFFCURVE",
"104 -9 OFFCURVE"
);
},
{
closed = 1;
nodes = (
"56 492 LINE",
"531 492 LINE SMOOTH",
"605 492 OFFCURVE",
"638 523 OFFCURVE",
"638 577 CURVE SMOOTH",
"638 590 OFFCURVE",
"636 602 OFFCURVE",
"633 615 CURVE",
"574 615 LINE",
"576 606 OFFCURVE",
"577 598 OFFCURVE",
"577 591 CURVE SMOOTH",
"577 560 OFFCURVE",
"556 546 OFFCURVE",
"515 546 CURVE SMOOTH",
"56 546 LINE"
);
}
);
width = 705;
},
{
layerId = "A41B5407-ACAD-4F97-B91E-44FCF58F9670";
name = Bold;
paths = (
{
closed = 1;
nodes = (
"233 -10 CURVE SMOOTH",
"318 -10 OFFCURVE",
"380 38 OFFCURVE",
"395 114 CURVE",
"407 37 OFFCURVE",
"469 -10 OFFCURVE",
"559 -10 CURVE SMOOTH",
"684 -10 OFFCURVE",
"772 82 OFFCURVE",
"772 220 CURVE SMOOTH",
"772 396 OFFCURVE",
"623 493 OFFCURVE",
"416 493 CURVE SMOOTH",
"396 493 OFFCURVE",
"375 490 OFFCURVE",
"354 486 CURVE",
"354 464 LINE",
"510 464 OFFCURVE",
"631 377 OFFCURVE",
"631 234 CURVE SMOOTH",
"631 160 OFFCURVE",
"604 106 OFFCURVE",
"544 106 CURVE SMOOTH",
"492 106 OFFCURVE",
"466 150 OFFCURVE",
"466 210 CURVE SMOOTH",
"466 246 LINE",
"324 246 LINE",
"324 210 LINE SMOOTH",
"324 147 OFFCURVE",
"296 106 OFFCURVE",
"245 106 CURVE SMOOTH",
"202 106 OFFCURVE",
"172 132 OFFCURVE",
"172 184 CURVE SMOOTH",
"172 226 OFFCURVE",
"199 257 OFFCURVE",
"239 257 CURVE SMOOTH",
"246 257 OFFCURVE",
"253 256 OFFCURVE",
"260 254 CURVE",
"260 366 LINE",
"242 370 OFFCURVE",
"225 372 OFFCURVE",
"209 372 CURVE SMOOTH",
"106 372 OFFCURVE",
"30 299 OFFCURVE",
"30 184 CURVE SMOOTH",
"30 69 OFFCURVE",
"106 -10 OFFCURVE"
);
},
{
closed = 1;
nodes = (
"45 464 LINE",
"608 464 LINE SMOOTH",
"711 464 OFFCURVE",
"772 503 OFFCURVE",
"772 585 CURVE SMOOTH",
"772 606 OFFCURVE",
"767 627 OFFCURVE",
"758 649 CURVE",
"636 649 LINE",
"640 639 OFFCURVE",
"642 629 OFFCURVE",
"642 619 CURVE SMOOTH",
"642 589 OFFCURVE",
"619 576 OFFCURVE",
"579 576 CURVE SMOOTH",
"45 576 LINE"
);
}
);
width = 802;
}
);
unicode = 0CB5;
},
{
glyphname = knSHA;
lastChange = "2015-08-27 17:15:05 +0000";
layers = (
{
layerId = "888EDFF5-A106-43F1-8E82-892DE62A2556";
name = Light;
paths = (
{
closed = 1;
nodes = (
"272 -16 CURVE SMOOTH",
"452 -16 OFFCURVE",
"580 83 OFFCURVE",
"580 244 CURVE SMOOTH",
"580 405 OFFCURVE",
"466 527 OFFCURVE",
"319 527 CURVE SMOOTH",
"306 527 OFFCURVE",
"294 526 OFFCURVE",
"281 525 CURVE",
"282 510 LINE",
"449 502 OFFCURVE",
"518 373 OFFCURVE",
"518 252 CURVE SMOOTH",
"518 103 OFFCURVE",
"399 36 OFFCURVE",
"271 36 CURVE SMOOTH",
"166 36 OFFCURVE",
"100 68 OFFCURVE",
"100 131 CURVE SMOOTH",
"100 197 OFFCURVE",
"176 215 OFFCURVE",
"257 235 CURVE SMOOTH",
"341 256 OFFCURVE",
"424 290 OFFCURVE",
"424 385 CURVE SMOOTH",
"424 448 OFFCURVE",
"376 501 OFFCURVE",
"301 515 CURVE",
"275 492 LINE",
"334 492 OFFCURVE",
"367 446 OFFCURVE",
"367 404 CURVE SMOOTH",
"367 231 OFFCURVE",
"38 328 OFFCURVE",
"38 130 CURVE SMOOTH",
"38 34 OFFCURVE",
"128 -16 OFFCURVE"
);
},
{
closed = 1;
nodes = (
"206 374 LINE",
"201 386 OFFCURVE",
"199 398 OFFCURVE",
"199 410 CURVE SMOOTH",
"199 459 OFFCURVE",
"234 492 OFFCURVE",
"285 492 CURVE",
"270 515 LINE",
"189 515 OFFCURVE",
"138 473 OFFCURVE",
"138 410 CURVE SMOOTH",
"138 398 OFFCURVE",
"140 385 OFFCURVE",
"144 374 CURVE"
);
},
{
closed = 1;
nodes = (
"47 492 LINE",
"455 492 LINE SMOOTH",
"529 492 OFFCURVE",
"562 523 OFFCURVE",
"562 577 CURVE SMOOTH",
"562 590 OFFCURVE",
"560 602 OFFCURVE",
"556 615 CURVE",
"498 615 LINE",
"500 606 OFFCURVE",
"501 598 OFFCURVE",
"501 591 CURVE SMOOTH",
"501 560 OFFCURVE",
"480 546 OFFCURVE",
"440 546 CURVE SMOOTH",
"47 546 LINE"
);
}
);
width = 628;
},
{
layerId = "A41B5407-ACAD-4F97-B91E-44FCF58F9670";
name = Bold;
paths = (
{
closed = 1;
nodes = (
"298 -13 CURVE SMOOTH",
"518 -13 OFFCURVE",
"657 97 OFFCURVE",
"657 254 CURVE SMOOTH",
"657 402 OFFCURVE",
"520 524 OFFCURVE",
"370 524 CURVE SMOOTH",
"334 524 OFFCURVE",
"323 521 OFFCURVE",
"302 517 CURVE",
"302 490 LINE",
"458 484 OFFCURVE",
"521 387 OFFCURVE",
"521 278 CURVE SMOOTH",
"521 132 OFFCURVE",
"392 92 OFFCURVE",
"290 92 CURVE SMOOTH",
"218 92 OFFCURVE",
"176 106 OFFCURVE",
"176 141 CURVE SMOOTH",
"176 179 OFFCURVE",
"206 189 OFFCURVE",
"304 212 CURVE SMOOTH",
"383 231 OFFCURVE",
"471 266 OFFCURVE",
"471 352 CURVE SMOOTH",
"471 411 OFFCURVE",
"424 468 OFFCURVE",
"360 482 CURVE",
"297 464 LINE",
"340 464 OFFCURVE",
"357 433 OFFCURVE",
"357 406 CURVE SMOOTH",
"357 270 OFFCURVE",
"34 356 OFFCURVE",
"34 146 CURVE SMOOTH",
"34 34 OFFCURVE",
"137 -13 OFFCURVE"
);
},
{
closed = 1;
nodes = (
"252 364 LINE",
"245 376 OFFCURVE",
"241 392 OFFCURVE",
"241 406 CURVE SMOOTH",
"241 438 OFFCURVE",
"264 464 OFFCURVE",
"304 464 CURVE",
"272 495 LINE",
"169 495 OFFCURVE",
"99 473 OFFCURVE",
"99 410 CURVE SMOOTH",
"99 393 OFFCURVE",
"103 378 OFFCURVE",
"112 364 CURVE"
);
},
{
closed = 1;
nodes = (
"25 464 LINE",
"518 464 LINE SMOOTH",
"621 464 OFFCURVE",
"682 503 OFFCURVE",
"682 585 CURVE SMOOTH",
"682 606 OFFCURVE",
"677 627 OFFCURVE",
"668 649 CURVE",
"546 649 LINE",
"550 639 OFFCURVE",
"552 629 OFFCURVE",
"552 619 CURVE SMOOTH",
"552 589 OFFCURVE",
"529 576 OFFCURVE",
"489 576 CURVE SMOOTH",
"25 576 LINE"
);
}
);
width = 722;
}
);
unicode = 0CB6;
},
{
glyphname = knSSA;
lastChange = "2015-08-27 17:15:05 +0000";
layers = (
{
layerId = "888EDFF5-A106-43F1-8E82-892DE62A2556";
name = Light;
paths = (
{
closed = 1;
nodes = (
"211 -9 CURVE SMOOTH",
"289 -9 OFFCURVE",
"341 30 OFFCURVE",
"352 99 CURVE",
"362 30 OFFCURVE",
"418 -9 OFFCURVE",
"492 -9 CURVE SMOOTH",
"593 -9 OFFCURVE",
"660 65 OFFCURVE",
"660 188 CURVE SMOOTH",
"660 251 OFFCURVE",
"639 309 OFFCURVE",
"599 364 CURVE",
"530 364 LINE",
"581 299 OFFCURVE",
"597 239 OFFCURVE",
"597 185 CURVE SMOOTH",
"597 93 OFFCURVE",
"556 43 OFFCURVE",
"491 43 CURVE SMOOTH",
"421 43 OFFCURVE",
"382 98 OFFCURVE",
"382 165 CURVE SMOOTH",
"382 208 LINE",
"320 208 LINE",
"320 165 LINE SMOOTH",
"320 92 OFFCURVE",
"279 43 OFFCURVE",
"211 43 CURVE SMOOTH",
"138 43 OFFCURVE",
"99 91 OFFCURVE",
"99 156 CURVE SMOOTH",
"99 222 OFFCURVE",
"135 267 OFFCURVE",
"198 267 CURVE SMOOTH",
"206 267 OFFCURVE",
"215 266 OFFCURVE",
"224 265 CURVE",
"224 321 LINE",
"213 324 OFFCURVE",
"203 325 OFFCURVE",
"193 325 CURVE SMOOTH",
"94 325 OFFCURVE",
"38 245 OFFCURVE",
"38 156 CURVE SMOOTH",
"38 60 OFFCURVE",
"101 -9 OFFCURVE"
);
},
{
closed = 1;
nodes = (
"600 -38 LINE",
"659 -38 LINE",
"501 208 LINE",
"442 208 LINE"
);
},
{
closed = 1;
nodes = (
"352 319 CURVE SMOOTH",
"382 319 OFFCURVE",
"404 342 OFFCURVE",
"404 371 CURVE SMOOTH",
"404 402 OFFCURVE",
"382 424 OFFCURVE",
"352 424 CURVE SMOOTH",
"322 424 OFFCURVE",
"300 402 OFFCURVE",
"300 371 CURVE SMOOTH",
"300 342 OFFCURVE",
"322 319 OFFCURVE"
);
},
{
closed = 1;
nodes = (
"60 492 LINE",
"535 492 LINE SMOOTH",
"608 492 OFFCURVE",
"642 523 OFFCURVE",
"642 577 CURVE SMOOTH",
"642 590 OFFCURVE",
"640 602 OFFCURVE",
"635 615 CURVE",
"578 615 LINE",
"579 606 OFFCURVE",
"580 598 OFFCURVE",
"580 591 CURVE SMOOTH",
"580 560 OFFCURVE",
"560 546 OFFCURVE",
"519 546 CURVE SMOOTH",
"60 546 LINE"
);
}
);
width = 698;
},
{
layerId = "A41B5407-ACAD-4F97-B91E-44FCF58F9670";
name = Bold;
paths = (
{
closed = 1;
nodes = (
"233 -10 CURVE SMOOTH",
"318 -10 OFFCURVE",
"380 38 OFFCURVE",
"395 114 CURVE",
"407 37 OFFCURVE",
"469 -10 OFFCURVE",
"559 -10 CURVE SMOOTH",
"685 -10 OFFCURVE",
"782 80 OFFCURVE",
"782 209 CURVE SMOOTH",
"782 282 OFFCURVE",
"754 346 OFFCURVE",
"715 397 CURVE",
"565 397 LINE",
"608 350 OFFCURVE",
"642 285 OFFCURVE",
"642 209 CURVE SMOOTH",
"642 153 OFFCURVE",
"618 106 OFFCURVE",
"552 106 CURVE SMOOTH",
"493 106 OFFCURVE",
"466 150 OFFCURVE",
"466 210 CURVE SMOOTH",
"466 236 LINE",
"324 236 LINE",
"324 210 LINE SMOOTH",
"324 147 OFFCURVE",
"296 106 OFFCURVE",
"245 106 CURVE SMOOTH",
"202 106 OFFCURVE",
"172 132 OFFCURVE",
"172 184 CURVE SMOOTH",
"172 226 OFFCURVE",
"199 257 OFFCURVE",
"239 257 CURVE SMOOTH",
"246 257 OFFCURVE",
"253 256 OFFCURVE",
"260 254 CURVE",
"260 367 LINE",
"243 371 OFFCURVE",
"227 372 OFFCURVE",
"211 372 CURVE SMOOTH",
"97 372 OFFCURVE",
"30 288 OFFCURVE",
"30 184 CURVE SMOOTH",
"30 69 OFFCURVE",
"106 -10 OFFCURVE"
);
},
{
closed = 1;
nodes = (
"695 -40 LINE",
"781 -40 LINE",
"587 236 LINE",
"502 236 LINE"
);
},
{
closed = 1;
nodes = (
"396 289 CURVE SMOOTH",
"437 289 OFFCURVE",
"468 320 OFFCURVE",
"468 361 CURVE SMOOTH",
"468 402 OFFCURVE",
"437 433 OFFCURVE",
"396 433 CURVE SMOOTH",
"355 433 OFFCURVE",
"324 402 OFFCURVE",
"324 361 CURVE SMOOTH",
"324 320 OFFCURVE",
"355 289 OFFCURVE"
);
},
{
closed = 1;
nodes = (
"45 464 LINE",
"608 464 LINE SMOOTH",
"711 464 OFFCURVE",
"772 503 OFFCURVE",
"772 585 CURVE SMOOTH",
"772 606 OFFCURVE",
"767 627 OFFCURVE",
"758 649 CURVE",
"636 649 LINE",
"640 639 OFFCURVE",
"642 629 OFFCURVE",
"642 619 CURVE SMOOTH",
"642 589 OFFCURVE",
"619 576 OFFCURVE",
"579 576 CURVE SMOOTH",
"45 576 LINE"
);
}
);
width = 812;
}
);
unicode = 0CB7;
},
{
glyphname = knSA;
lastChange = "2015-08-27 17:15:05 +0000";
layers = (
{
layerId = "888EDFF5-A106-43F1-8E82-892DE62A2556";
name = Light;
paths = (
{
closed = 1;
nodes = (
"463 -9 CURVE SMOOTH",
"561 -9 OFFCURVE",
"614 66 OFFCURVE",
"614 170 CURVE SMOOTH",
"614 234 OFFCURVE",
"597 293 OFFCURVE",
"554 355 CURVE",
"486 355 LINE",
"534 291 OFFCURVE",
"553 226 OFFCURVE",
"553 170 CURVE SMOOTH",
"553 101 OFFCURVE",
"525 43 OFFCURVE",
"465 43 CURVE SMOOTH",
"352 43 OFFCURVE",
"317 231 OFFCURVE",
"179 231 CURVE SMOOTH",
"84 231 OFFCURVE",
"39 161 OFFCURVE",
"39 83 CURVE SMOOTH",
"39 50 OFFCURVE",
"44 24 OFFCURVE",
"55 1 CURVE",
"123 1 LINE",
"108 26 OFFCURVE",
"101 55 OFFCURVE",
"101 83 CURVE SMOOTH",
"101 135 OFFCURVE",
"124 178 OFFCURVE",
"179 178 CURVE SMOOTH",
"273 178 OFFCURVE",
"305 -9 OFFCURVE"
);
},
{
closed = 1;
nodes = (
"306 297 CURVE SMOOTH",
"336 297 OFFCURVE",
"358 318 OFFCURVE",
"358 349 CURVE SMOOTH",
"358 378 OFFCURVE",
"336 401 OFFCURVE",
"306 401 CURVE SMOOTH",
"276 401 OFFCURVE",
"254 378 OFFCURVE",
"254 349 CURVE SMOOTH",
"254 318 OFFCURVE",
"276 297 OFFCURVE"
);
},
{
closed = 1;
nodes = (
"38 492 LINE",
"473 492 LINE SMOOTH",
"546 492 OFFCURVE",
"580 523 OFFCURVE",
"580 577 CURVE SMOOTH",
"580 590 OFFCURVE",
"578 602 OFFCURVE",
"574 615 CURVE",
"515 615 LINE",
"517 606 OFFCURVE",
"518 598 OFFCURVE",
"518 591 CURVE SMOOTH",
"518 560 OFFCURVE",
"497 546 OFFCURVE",
"456 546 CURVE SMOOTH",
"38 546 LINE"
);
}
);
width = 651;
},
{
layerId = "A41B5407-ACAD-4F97-B91E-44FCF58F9670";
name = Bold;
paths = (
{
closed = 1;
nodes = (
"487 -10 CURVE SMOOTH",
"612 -10 OFFCURVE",
"686 70 OFFCURVE",
"686 187 CURVE SMOOTH",
"686 260 OFFCURVE",
"668 319 OFFCURVE",
"621 387 CURVE",
"471 387 LINE",
"527 316 OFFCURVE",
"547 247 OFFCURVE",
"547 187 CURVE SMOOTH",
"547 136 OFFCURVE",
"531 106 OFFCURVE",
"488 106 CURVE SMOOTH",
"402 106 OFFCURVE",
"360 255 OFFCURVE",
"206 255 CURVE SMOOTH",
"98 255 OFFCURVE",
"30 191 OFFCURVE",
"30 88 CURVE SMOOTH",
"30 56 OFFCURVE",
"39 27 OFFCURVE",
"50 0 CURVE",
"192 0 LINE",
"179 27 OFFCURVE",
"173 53 OFFCURVE",
"173 81 CURVE SMOOTH",
"173 110 OFFCURVE",
"188 139 OFFCURVE",
"220 139 CURVE SMOOTH",
"287 139 OFFCURVE",
"330 -10 OFFCURVE"
);
},
{
closed = 1;
nodes = (
"341 289 CURVE SMOOTH",
"382 289 OFFCURVE",
"413 320 OFFCURVE",
"413 361 CURVE SMOOTH",
"413 402 OFFCURVE",
"382 433 OFFCURVE",
"341 433 CURVE SMOOTH",
"300 433 OFFCURVE",
"269 402 OFFCURVE",
"269 361 CURVE SMOOTH",
"269 320 OFFCURVE",
"300 289 OFFCURVE"
);
},
{
closed = 1;
nodes = (
"45 464 LINE",
"512 464 LINE SMOOTH",
"615 464 OFFCURVE",
"676 503 OFFCURVE",
"676 585 CURVE SMOOTH",
"676 606 OFFCURVE",
"671 627 OFFCURVE",
"662 649 CURVE",
"540 649 LINE",
"544 639 OFFCURVE",
"546 629 OFFCURVE",
"546 619 CURVE SMOOTH",
"546 589 OFFCURVE",
"523 576 OFFCURVE",
"483 576 CURVE SMOOTH",
"45 576 LINE"
);
}
);
width = 716;
}
);
unicode = 0CB8;
},
{
glyphname = knHA;
lastChange = "2015-08-27 17:15:05 +0000";
layers = (
{
layerId = "888EDFF5-A106-43F1-8E82-892DE62A2556";
name = Light;
paths = (
{
closed = 1;
nodes = (
"329 277 LINE",
"308 332 OFFCURVE",
"259 354 OFFCURVE",
"204 354 CURVE SMOOTH",
"108 354 OFFCURVE",
"38 281 OFFCURVE",
"38 169 CURVE SMOOTH",
"38 63 OFFCURVE",
"110 -10 OFFCURVE",
"207 -10 CURVE SMOOTH",
"290 -10 OFFCURVE",
"331 37 OFFCURVE",
"351 82 CURVE",
"366 38 OFFCURVE",
"411 -10 OFFCURVE",
"497 -10 CURVE SMOOTH",
"596 -10 OFFCURVE",
"665 67 OFFCURVE",
"665 169 CURVE SMOOTH",
"665 278 OFFCURVE",
"596 354 OFFCURVE",
"496 354 CURVE SMOOTH",
"446 354 OFFCURVE",
"395 334 OFFCURVE",
"372 277 CURVE"
);
},
{
closed = 1;
nodes = (
"209 42 CURVE SMOOTH",
"141 42 OFFCURVE",
"97 96 OFFCURVE",
"97 168 CURVE SMOOTH",
"97 249 OFFCURVE",
"141 302 OFFCURVE",
"209 302 CURVE SMOOTH",
"281 302 OFFCURVE",
"320 250 OFFCURVE",
"320 174 CURVE SMOOTH",
"320 96 OFFCURVE",
"281 42 OFFCURVE"
);
},
{
closed = 1;
nodes = (
"324 262 LINE",
"376 262 LINE",
"376 357 LINE SMOOTH",
"376 427 OFFCURVE",
"341 505 OFFCURVE",
"256 505 CURVE",
"191 492 LINE",
"289 492 OFFCURVE",
"324 419 OFFCURVE",
"324 353 CURVE SMOOTH"
);
},
{
closed = 1;
nodes = (
"496 42 CURVE SMOOTH",
"414 42 OFFCURVE",
"381 96 OFFCURVE",
"381 174 CURVE SMOOTH",
"381 254 OFFCURVE",
"423 302 OFFCURVE",
"497 302 CURVE SMOOTH",
"565 302 OFFCURVE",
"604 247 OFFCURVE",
"604 169 CURVE SMOOTH",
"604 96 OFFCURVE",
"563 42 OFFCURVE"
);
},
{
closed = 1;
nodes = (
"56 492 LINE",
"541 492 LINE SMOOTH",
"615 492 OFFCURVE",
"648 523 OFFCURVE",
"648 577 CURVE SMOOTH",
"648 590 OFFCURVE",
"646 602 OFFCURVE",
"642 615 CURVE",
"583 615 LINE",
"586 606 OFFCURVE",
"587 598 OFFCURVE",
"587 591 CURVE SMOOTH",
"587 560 OFFCURVE",
"566 546 OFFCURVE",
"526 546 CURVE SMOOTH",
"56 546 LINE"
);
}
);
width = 702;
},
{
layerId = "A41B5407-ACAD-4F97-B91E-44FCF58F9670";
name = Bold;
paths = (
{
closed = 1;
nodes = (
"340 322 LINE",
"324 365 OFFCURVE",
"275 392 OFFCURVE",
"218 392 CURVE SMOOTH",
"92 392 OFFCURVE",
"30 302 OFFCURVE",
"30 190 CURVE SMOOTH",
"30 66 OFFCURVE",
"112 -11 OFFCURVE",
"226 -11 CURVE SMOOTH",
"295 -11 OFFCURVE",
"356 19 OFFCURVE",
"384 68 CURVE",
"413 19 OFFCURVE",
"473 -11 OFFCURVE",
"544 -11 CURVE SMOOTH",
"652 -11 OFFCURVE",
"738 62 OFFCURVE",
"738 190 CURVE SMOOTH",
"738 300 OFFCURVE",
"669 392 OFFCURVE",
"557 392 CURVE SMOOTH",
"505 392 OFFCURVE",
"451 366 OFFCURVE",
"428 322 CURVE"
);
},
{
closed = 1;
nodes = (
"243 101 CURVE SMOOTH",
"190 101 OFFCURVE",
"162 140 OFFCURVE",
"162 188 CURVE SMOOTH",
"162 239 OFFCURVE",
"190 281 OFFCURVE",
"240 281 CURVE SMOOTH",
"291 281 OFFCURVE",
"321 244 OFFCURVE",
"321 191 CURVE SMOOTH",
"321 136 OFFCURVE",
"290 101 OFFCURVE"
);
},
{
closed = 1;
nodes = (
"314 286 LINE",
"442 286 LINE",
"442 353 LINE SMOOTH",
"442 440 OFFCURVE",
"395 496 OFFCURVE",
"320 500 CURVE",
"215 464 LINE",
"267 464 OFFCURVE",
"314 435 OFFCURVE",
"314 346 CURVE"
);
},
{
closed = 1;
nodes = (
"531 101 CURVE SMOOTH",
"478 101 OFFCURVE",
"447 136 OFFCURVE",
"447 191 CURVE SMOOTH",
"447 244 OFFCURVE",
"480 281 OFFCURVE",
"528 281 CURVE SMOOTH",
"578 281 OFFCURVE",
"606 238 OFFCURVE",
"606 188 CURVE SMOOTH",
"606 142 OFFCURVE",
"578 101 OFFCURVE"
);
},
{
closed = 1;
nodes = (
"45 464 LINE",
"564 464 LINE SMOOTH",
"667 464 OFFCURVE",
"728 503 OFFCURVE",
"728 585 CURVE SMOOTH",
"728 606 OFFCURVE",
"723 627 OFFCURVE",
"714 649 CURVE",
"592 649 LINE",
"596 639 OFFCURVE",
"598 629 OFFCURVE",
"598 619 CURVE SMOOTH",
"598 589 OFFCURVE",
"575 576 OFFCURVE",
"535 576 CURVE SMOOTH",
"45 576 LINE"
);
}
);
width = 768;
}
);
unicode = 0CB9;
},
{
glyphname = knRRA;
lastChange = "2015-08-27 17:15:05 +0000";
layers = (
{
layerId = "888EDFF5-A106-43F1-8E82-892DE62A2556";
name = Light;
paths = (
{
closed = 1;
nodes = (
"253 -9 CURVE SMOOTH",
"331 -9 OFFCURVE",
"387 29 OFFCURVE",
"399 99 CURVE",
"410 29 OFFCURVE",
"466 -9 OFFCURVE",
"545 -9 CURVE SMOOTH",
"693 -9 OFFCURVE",
"751 114 OFFCURVE",
"751 279 CURVE SMOOTH",
"751 417 OFFCURVE",
"691 556 OFFCURVE",
"562 556 CURVE SMOOTH",
"481 556 OFFCURVE",
"424 492 OFFCURVE",
"424 418 CURVE SMOOTH",
"424 341 OFFCURVE",
"482 277 OFFCURVE",
"562 277 CURVE SMOOTH",
"640 277 OFFCURVE",
"692 333 OFFCURVE",
"692 415 CURVE",
"673 414 LINE",
"682 371 OFFCURVE",
"692 314 OFFCURVE",
"692 277 CURVE SMOOTH",
"692 149 OFFCURVE",
"648 43 OFFCURVE",
"544 43 CURVE SMOOTH",
"475 43 OFFCURVE",
"429 91 OFFCURVE",
"429 165 CURVE",
"429 200 LINE",
"368 200 LINE",
"368 165 LINE",
"368 91 OFFCURVE",
"323 43 OFFCURVE",
"253 43 CURVE SMOOTH",
"149 43 OFFCURVE",
"106 149 OFFCURVE",
"106 277 CURVE SMOOTH",
"106 314 OFFCURVE",
"115 371 OFFCURVE",
"124 414 CURVE",
"105 415 LINE",
"106 333 OFFCURVE",
"157 277 OFFCURVE",
"235 277 CURVE SMOOTH",
"315 277 OFFCURVE",
"372 341 OFFCURVE",
"372 418 CURVE SMOOTH",
"372 492 OFFCURVE",
"317 556 OFFCURVE",
"234 556 CURVE SMOOTH",
"107 556 OFFCURVE",
"47 417 OFFCURVE",
"47 279 CURVE SMOOTH",
"47 114 OFFCURVE",
"104 -9 OFFCURVE"
);
},
{
closed = 1;
nodes = (
"232 328 CURVE SMOOTH",
"177 328 OFFCURVE",
"145 368 OFFCURVE",
"145 413 CURVE SMOOTH",
"145 462 OFFCURVE",
"182 503 OFFCURVE",
"229 503 CURVE SMOOTH",
"279 503 OFFCURVE",
"311 465 OFFCURVE",
"311 417 CURVE SMOOTH",
"311 370 OFFCURVE",
"281 328 OFFCURVE"
);
},
{
closed = 1;
nodes = (
"235 277 LINE",
"562 277 LINE",
"539 325 LINE",
"276 325 LINE"
);
},
{
closed = 1;
nodes = (
"565 328 CURVE SMOOTH",
"516 328 OFFCURVE",
"487 370 OFFCURVE",
"487 417 CURVE SMOOTH",
"487 465 OFFCURVE",
"518 503 OFFCURVE",
"568 503 CURVE SMOOTH",
"616 503 OFFCURVE",
"653 462 OFFCURVE",
"653 413 CURVE SMOOTH",
"653 368 OFFCURVE",
"620 328 OFFCURVE"
);
}
);
width = 797;
},
{
layerId = "A41B5407-ACAD-4F97-B91E-44FCF58F9670";
name = Bold;
paths = (
{
closed = 1;
nodes = (
"288 -10 CURVE SMOOTH",
"377 -10 OFFCURVE",
"433 38 OFFCURVE",
"450 114 CURVE",
"467 38 OFFCURVE",
"523 -10 OFFCURVE",
"612 -10 CURVE SMOOTH",
"774 -10 OFFCURVE",
"860 131 OFFCURVE",
"860 284 CURVE SMOOTH",
"860 414 OFFCURVE",
"798 586 OFFCURVE",
"628 586 CURVE SMOOTH",
"516 586 OFFCURVE",
"466 493 OFFCURVE",
"466 418 CURVE SMOOTH",
"466 328 OFFCURVE",
"523 257 OFFCURVE",
"614 257 CURVE SMOOTH",
"684 257 OFFCURVE",
"728 293 OFFCURVE",
"737 361 CURVE",
"719 369 LINE",
"723 341 OFFCURVE",
"723 313 OFFCURVE",
"723 284 CURVE SMOOTH",
"723 191 OFFCURVE",
"676 106 OFFCURVE",
"604 106 CURVE SMOOTH",
"547 106 OFFCURVE",
"521 137 OFFCURVE",
"521 200 CURVE SMOOTH",
"521 206 LINE",
"379 206 LINE",
"379 200 LINE SMOOTH",
"379 137 OFFCURVE",
"353 106 OFFCURVE",
"296 106 CURVE SMOOTH",
"224 106 OFFCURVE",
"177 191 OFFCURVE",
"177 284 CURVE SMOOTH",
"177 313 OFFCURVE",
"178 342 OFFCURVE",
"181 369 CURVE",
"163 361 LINE",
"172 293 OFFCURVE",
"216 257 OFFCURVE",
"286 257 CURVE SMOOTH",
"377 257 OFFCURVE",
"434 328 OFFCURVE",
"434 418 CURVE SMOOTH",
"434 493 OFFCURVE",
"384 586 OFFCURVE",
"272 586 CURVE SMOOTH",
"102 586 OFFCURVE",
"40 414 OFFCURVE",
"40 284 CURVE SMOOTH",
"40 131 OFFCURVE",
"126 -10 OFFCURVE"
);
},
{
closed = 1;
nodes = (
"252 355 CURVE SMOOTH",
"217 355 OFFCURVE",
"196 379 OFFCURVE",
"196 413 CURVE SMOOTH",
"196 444 OFFCURVE",
"216 474 OFFCURVE",
"249 474 CURVE SMOOTH",
"286 474 OFFCURVE",
"305 446 OFFCURVE",
"305 415 CURVE SMOOTH",
"305 384 OFFCURVE",
"287 355 OFFCURVE"
);
},
{
closed = 1;
nodes = (
"286 257 LINE",
"612 257 LINE",
"675 355 LINE",
"225 355 LINE"
);
},
{
closed = 1;
nodes = (
"648 355 CURVE SMOOTH",
"613 355 OFFCURVE",
"595 384 OFFCURVE",
"595 415 CURVE SMOOTH",
"595 446 OFFCURVE",
"614 474 OFFCURVE",
"651 474 CURVE SMOOTH",
"684 474 OFFCURVE",
"704 444 OFFCURVE",
"704 413 CURVE SMOOTH",
"704 379 OFFCURVE",
"683 355 OFFCURVE"
);
}
);
width = 900;
}
);
unicode = 0CB1;
},
{
glyphname = knLLA;
lastChange = "2015-08-27 17:15:05 +0000";
layers = (
{
layerId = "888EDFF5-A106-43F1-8E82-892DE62A2556";
name = Light;
paths = (
{
closed = 1;
nodes = (
"385 492 LINE",
"510 492 LINE SMOOTH",
"584 492 OFFCURVE",
"617 523 OFFCURVE",
"617 577 CURVE SMOOTH",
"617 590 OFFCURVE",
"616 602 OFFCURVE",
"612 615 CURVE",
"554 615 LINE",
"556 606 OFFCURVE",
"557 598 OFFCURVE",
"557 591 CURVE SMOOTH",
"557 560 OFFCURVE",
"536 546 OFFCURVE",
"495 546 CURVE SMOOTH",
"385 546 LINE"
);
},
{
closed = 1;
nodes = (
"157 314 LINE",
"223 312 OFFCURVE",
"303 354 OFFCURVE",
"303 433 CURVE SMOOTH",
"303 497 OFFCURVE",
"253 556 OFFCURVE",
"170 556 CURVE SMOOTH",
"85 556 OFFCURVE",
"36 499 OFFCURVE",
"36 433 CURVE SMOOTH",
"36 364 OFFCURVE",
"84 322 OFFCURVE",
"154 290 CURVE",
"269 238 OFFCURVE",
"420 206 OFFCURVE",
"420 116 CURVE SMOOTH",
"420 68 OFFCURVE",
"384 39 OFFCURVE",
"329 39 CURVE SMOOTH",
"271 39 OFFCURVE",
"241 73 OFFCURVE",
"241 114 CURVE SMOOTH",
"241 160 OFFCURVE",
"275 199 OFFCURVE",
"348 213 CURVE",
"309 247 LINE",
"232 230 OFFCURVE",
"182 180 OFFCURVE",
"182 113 CURVE SMOOTH",
"182 43 OFFCURVE",
"238 -9 OFFCURVE",
"330 -9 CURVE SMOOTH",
"420 -9 OFFCURVE",
"481 39 OFFCURVE",
"481 115 CURVE SMOOTH",
"481 261 OFFCURVE",
"234 286 OFFCURVE",
"115 356 CURVE"
);
},
{
closed = 1;
nodes = (
"92 430 CURVE SMOOTH",
"92 474 OFFCURVE",
"122 506 OFFCURVE",
"169 506 CURVE SMOOTH",
"213 506 OFFCURVE",
"244 474 OFFCURVE",
"244 432 CURVE SMOOTH",
"244 385 OFFCURVE",
"206 358 OFFCURVE",
"168 358 CURVE SMOOTH",
"126 358 OFFCURVE",
"92 388 OFFCURVE"
);
},
{
closed = 1;
nodes = (
"362 219 LINE",
"502 239 OFFCURVE",
"582 314 OFFCURVE",
"582 393 CURVE SMOOTH",
"582 475 OFFCURVE",
"512 511 OFFCURVE",
"415 511 CURVE",
"385 492 LINE",
"465 492 OFFCURVE",
"522 450 OFFCURVE",
"522 394 CURVE SMOOTH",
"522 319 OFFCURVE",
"434 279 OFFCURVE",
"324 254 CURVE"
);
}
);
width = 655;
},
{
layerId = "A41B5407-ACAD-4F97-B91E-44FCF58F9670";
name = Bold;
paths = (
{
closed = 1;
nodes = (
"470 464 LINE",
"576 464 LINE SMOOTH",
"679 464 OFFCURVE",
"740 503 OFFCURVE",
"740 585 CURVE SMOOTH",
"740 606 OFFCURVE",
"735 627 OFFCURVE",
"726 649 CURVE",
"604 649 LINE",
"608 639 OFFCURVE",
"610 629 OFFCURVE",
"610 619 CURVE SMOOTH",
"610 589 OFFCURVE",
"587 576 OFFCURVE",
"547 576 CURVE SMOOTH",
"470 576 LINE"
);
},
{
closed = 1;
nodes = (
"280 318 LINE",
"340 334 OFFCURVE",
"394 374 OFFCURVE",
"394 444 CURVE SMOOTH",
"394 521 OFFCURVE",
"324 586 OFFCURVE",
"217 586 CURVE SMOOTH",
"96 586 OFFCURVE",
"30 518 OFFCURVE",
"30 426 CURVE SMOOTH",
"30 317 OFFCURVE",
"127 264 OFFCURVE",
"228 238 CURVE SMOOTH",
"340 209 OFFCURVE",
"457 212 OFFCURVE",
"457 155 CURVE SMOOTH",
"457 124 OFFCURVE",
"428 105 OFFCURVE",
"389 105 CURVE SMOOTH",
"346 105 OFFCURVE",
"321 123 OFFCURVE",
"321 153 CURVE SMOOTH",
"321 188 OFFCURVE",
"357 208 OFFCURVE",
"402 215 CURVE",
"342 276 LINE",
"243 265 OFFCURVE",
"189 208 OFFCURVE",
"189 132 CURVE SMOOTH",
"189 46 OFFCURVE",
"265 -10 OFFCURVE",
"384 -10 CURVE SMOOTH",
"502 -10 OFFCURVE",
"590 41 OFFCURVE",
"590 135 CURVE SMOOTH",
"590 293 OFFCURVE",
"362 317 OFFCURVE",
"254 341 CURVE"
);
},
{
closed = 1;
nodes = (
"163 422 CURVE SMOOTH",
"163 452 OFFCURVE",
"184 471 OFFCURVE",
"212 471 CURVE SMOOTH",
"241 471 OFFCURVE",
"262 451 OFFCURVE",
"262 422 CURVE SMOOTH",
"262 394 OFFCURVE",
"243 372 OFFCURVE",
"213 372 CURVE SMOOTH",
"183 372 OFFCURVE",
"163 393 OFFCURVE"
);
},
{
closed = 1;
nodes = (
"463 238 LINE",
"594 243 OFFCURVE",
"696 308 OFFCURVE",
"696 385 CURVE SMOOTH",
"696 469 OFFCURVE",
"615 490 OFFCURVE",
"555 491 CURVE",
"470 464 LINE",
"522 464 OFFCURVE",
"550 438 OFFCURVE",
"550 405 CURVE SMOOTH",
"550 338 OFFCURVE",
"407 315 OFFCURVE",
"366 309 CURVE"
);
}
);
width = 770;
}
);
unicode = 0CB3;
},
{
glyphname = knLLLA;
lastChange = "2015-08-27 17:15:05 +0000";
layers = (
{
layerId = "888EDFF5-A106-43F1-8E82-892DE62A2556";
name = Light;
paths = (
{
closed = 1;
nodes = (
"253 -9 CURVE SMOOTH",
"331 -9 OFFCURVE",
"387 30 OFFCURVE",
"399 99 CURVE",
"410 30 OFFCURVE",
"466 -9 OFFCURVE",
"544 -9 CURVE SMOOTH",
"693 -9 OFFCURVE",
"750 114 OFFCURVE",
"750 280 CURVE SMOOTH",
"750 418 OFFCURVE",
"690 556 OFFCURVE",
"563 556 CURVE SMOOTH",
"481 556 OFFCURVE",
"424 492 OFFCURVE",
"424 418 CURVE SMOOTH",
"424 341 OFFCURVE",
"482 277 OFFCURVE",
"562 277 CURVE SMOOTH",
"640 277 OFFCURVE",
"693 333 OFFCURVE",
"693 415 CURVE",
"673 414 LINE",
"682 372 OFFCURVE",
"691 314 OFFCURVE",
"691 277 CURVE SMOOTH",
"691 148 OFFCURVE",
"649 43 OFFCURVE",
"544 43 CURVE SMOOTH",
"475 43 OFFCURVE",
"429 92 OFFCURVE",
"429 165 CURVE",
"429 201 LINE",
"367 201 LINE",
"367 165 LINE",
"367 92 OFFCURVE",
"322 43 OFFCURVE",
"253 43 CURVE SMOOTH",
"148 43 OFFCURVE",
"106 148 OFFCURVE",
"106 277 CURVE SMOOTH",
"106 314 OFFCURVE",
"115 372 OFFCURVE",
"124 414 CURVE",
"104 415 LINE",
"104 333 OFFCURVE",
"157 277 OFFCURVE",
"234 277 CURVE SMOOTH",
"315 277 OFFCURVE",
"372 341 OFFCURVE",
"372 418 CURVE SMOOTH",
"372 492 OFFCURVE",
"316 556 OFFCURVE",
"234 556 CURVE SMOOTH",
"107 556 OFFCURVE",
"47 418 OFFCURVE",
"47 280 CURVE SMOOTH",
"47 114 OFFCURVE",
"104 -9 OFFCURVE"
);
},
{
closed = 1;
nodes = (
"232 329 CURVE SMOOTH",
"177 329 OFFCURVE",
"145 368 OFFCURVE",
"145 413 CURVE SMOOTH",
"145 462 OFFCURVE",
"182 503 OFFCURVE",
"229 503 CURVE SMOOTH",
"279 503 OFFCURVE",
"311 465 OFFCURVE",
"311 417 CURVE SMOOTH",
"311 370 OFFCURVE",
"281 329 OFFCURVE"
);
},
{
closed = 1;
nodes = (
"565 329 CURVE SMOOTH",
"516 329 OFFCURVE",
"487 370 OFFCURVE",
"487 417 CURVE SMOOTH",
"487 465 OFFCURVE",
"518 503 OFFCURVE",
"568 503 CURVE SMOOTH",
"615 503 OFFCURVE",
"653 462 OFFCURVE",
"653 413 CURVE SMOOTH",
"653 368 OFFCURVE",
"620 329 OFFCURVE"
);
}
);
width = 797;
},
{
layerId = "A41B5407-ACAD-4F97-B91E-44FCF58F9670";
name = Bold;
paths = (
{
closed = 1;
nodes = (
"285 -10 CURVE SMOOTH",
"374 -10 OFFCURVE",
"434 41 OFFCURVE",
"447 114 CURVE",
"460 41 OFFCURVE",
"520 -10 OFFCURVE",
"609 -10 CURVE SMOOTH",
"775 -10 OFFCURVE",
"854 126 OFFCURVE",
"854 295 CURVE SMOOTH",
"854 432 OFFCURVE",
"787 586 OFFCURVE",
"632 586 CURVE SMOOTH",
"513 586 OFFCURVE",
"463 496 OFFCURVE",
"463 421 CURVE SMOOTH",
"463 331 OFFCURVE",
"520 262 OFFCURVE",
"617 262 CURVE SMOOTH",
"685 262 OFFCURVE",
"743 298 OFFCURVE",
"744 366 CURVE",
"709 374 LINE",
"714 347 OFFCURVE",
"717 318 OFFCURVE",
"717 275 CURVE SMOOTH",
"717 176 OFFCURVE",
"681 106 OFFCURVE",
"605 106 CURVE SMOOTH",
"550 106 OFFCURVE",
"518 140 OFFCURVE",
"518 200 CURVE SMOOTH",
"518 226 LINE",
"376 226 LINE",
"376 200 LINE SMOOTH",
"376 140 OFFCURVE",
"344 106 OFFCURVE",
"289 106 CURVE SMOOTH",
"213 106 OFFCURVE",
"177 176 OFFCURVE",
"177 275 CURVE SMOOTH",
"177 318 OFFCURVE",
"180 347 OFFCURVE",
"185 374 CURVE",
"150 366 LINE",
"151 298 OFFCURVE",
"209 262 OFFCURVE",
"277 262 CURVE SMOOTH",
"374 262 OFFCURVE",
"431 331 OFFCURVE",
"431 421 CURVE SMOOTH",
"431 496 OFFCURVE",
"381 586 OFFCURVE",
"262 586 CURVE SMOOTH",
"107 586 OFFCURVE",
"40 432 OFFCURVE",
"40 295 CURVE SMOOTH",
"40 126 OFFCURVE",
"119 -10 OFFCURVE"
);
},
{
closed = 1;
nodes = (
"249 360 CURVE SMOOTH",
"214 360 OFFCURVE",
"193 382 OFFCURVE",
"193 416 CURVE SMOOTH",
"193 447 OFFCURVE",
"213 474 OFFCURVE",
"246 474 CURVE SMOOTH",
"283 474 OFFCURVE",
"302 449 OFFCURVE",
"302 418 CURVE SMOOTH",
"302 387 OFFCURVE",
"284 360 OFFCURVE"
);
},
{
closed = 1;
nodes = (
"645 360 CURVE SMOOTH",
"610 360 OFFCURVE",
"592 387 OFFCURVE",
"592 418 CURVE SMOOTH",
"592 449 OFFCURVE",
"611 474 OFFCURVE",
"648 474 CURVE SMOOTH",
"681 474 OFFCURVE",
"701 447 OFFCURVE",
"701 416 CURVE SMOOTH",
"701 382 OFFCURVE",
"680 360 OFFCURVE"
);
}
);
width = 894;
}
);
unicode = 0CDE;
},
{
glyphname = knVisarga;
lastChange = "2015-08-27 17:15:05 +0000";
layers = (
{
layerId = "888EDFF5-A106-43F1-8E82-892DE62A2556";
name = Light;
paths = (
{
closed = 1;
nodes = (
"167 303 CURVE SMOOTH",
"246 303 OFFCURVE",
"297 354 OFFCURVE",
"297 429 CURVE SMOOTH",
"297 501 OFFCURVE",
"247 555 OFFCURVE",
"167 555 CURVE SMOOTH",
"88 555 OFFCURVE",
"38 498 OFFCURVE",
"38 429 CURVE SMOOTH",
"38 354 OFFCURVE",
"87 303 OFFCURVE"
);
},
{
closed = 1;
nodes = (
"167 -9 CURVE SMOOTH",
"246 -9 OFFCURVE",
"297 43 OFFCURVE",
"297 117 CURVE SMOOTH",
"297 189 OFFCURVE",
"247 243 OFFCURVE",
"167 243 CURVE SMOOTH",
"88 243 OFFCURVE",
"38 186 OFFCURVE",
"38 117 CURVE SMOOTH",
"38 43 OFFCURVE",
"87 -9 OFFCURVE"
);
},
{
closed = 1;
nodes = (
"167 43 CURVE SMOOTH",
"124 43 OFFCURVE",
"98 73 OFFCURVE",
"98 117 CURVE SMOOTH",
"98 162 OFFCURVE",
"125 192 OFFCURVE",
"167 192 CURVE SMOOTH",
"210 192 OFFCURVE",
"235 162 OFFCURVE",
"235 117 CURVE SMOOTH",
"235 73 OFFCURVE",
"212 43 OFFCURVE"
);
},
{
closed = 1;
nodes = (
"167 354 CURVE SMOOTH",
"124 354 OFFCURVE",
"98 384 OFFCURVE",
"98 429 CURVE SMOOTH",
"98 473 OFFCURVE",
"125 504 OFFCURVE",
"167 504 CURVE SMOOTH",
"210 504 OFFCURVE",
"235 473 OFFCURVE",
"235 429 CURVE SMOOTH",
"235 384 OFFCURVE",
"212 354 OFFCURVE"
);
}
);
width = 334;
},
{
layerId = "A41B5407-ACAD-4F97-B91E-44FCF58F9670";
name = Bold;
paths = (
{
closed = 1;
nodes = (
"199 301 CURVE SMOOTH",
"296 301 OFFCURVE",
"363 359 OFFCURVE",
"363 443 CURVE SMOOTH",
"363 527 OFFCURVE",
"296 585 OFFCURVE",
"199 585 CURVE SMOOTH",
"102 585 OFFCURVE",
"35 527 OFFCURVE",
"35 443 CURVE SMOOTH",
"35 359 OFFCURVE",
"102 301 OFFCURVE"
);
},
{
closed = 1;
nodes = (
"199 -10 CURVE SMOOTH",
"296 -10 OFFCURVE",
"363 48 OFFCURVE",
"363 132 CURVE SMOOTH",
"363 216 OFFCURVE",
"296 274 OFFCURVE",
"199 274 CURVE SMOOTH",
"102 274 OFFCURVE",
"35 216 OFFCURVE",
"35 132 CURVE SMOOTH",
"35 48 OFFCURVE",
"102 -10 OFFCURVE"
);
},
{
closed = 1;
nodes = (
"199 80 CURVE SMOOTH",
"172 80 OFFCURVE",
"154 101 OFFCURVE",
"154 132 CURVE SMOOTH",
"154 163 OFFCURVE",
"172 184 OFFCURVE",
"199 184 CURVE SMOOTH",
"226 184 OFFCURVE",
"244 163 OFFCURVE",
"244 132 CURVE SMOOTH",
"244 101 OFFCURVE",
"226 80 OFFCURVE"
);
},
{
closed = 1;
nodes = (
"199 391 CURVE SMOOTH",
"172 391 OFFCURVE",
"154 412 OFFCURVE",
"154 443 CURVE SMOOTH",
"154 474 OFFCURVE",
"172 495 OFFCURVE",
"199 495 CURVE SMOOTH",
"226 495 OFFCURVE",
"244 474 OFFCURVE",
"244 443 CURVE SMOOTH",
"244 412 OFFCURVE",
"226 391 OFFCURVE"
);
}
);
width = 398;
}
);
unicode = 0C83;
},
{
glyphname = knVirama;
lastChange = "2015-08-27 17:15:05 +0000";
layers = (
{
layerId = "888EDFF5-A106-43F1-8E82-892DE62A2556";
name = Light;
paths = (
{
closed = 1;
nodes = (
"-124 546 LINE",
"-124 492 LINE",
"353 492 LINE SMOOTH",
"428 492 OFFCURVE",
"454 451 OFFCURVE",
"454 405 CURVE SMOOTH",
"454 361 OFFCURVE",
"429 329 OFFCURVE",
"381 329 CURVE SMOOTH",
"320 329 OFFCURVE",
"284 381 OFFCURVE",
"284 463 CURVE SMOOTH",
"284 566 OFFCURVE",
"342 638 OFFCURVE",
"434 638 CURVE SMOOTH",
"452 638 OFFCURVE",
"471 635 OFFCURVE",
"491 629 CURVE",
"491 681 LINE",
"468 687 OFFCURVE",
"445 690 OFFCURVE",
"423 690 CURVE SMOOTH",
"303 690 OFFCURVE",
"224 583 OFFCURVE",
"224 463 CURVE SMOOTH",
"224 350 OFFCURVE",
"287 277 OFFCURVE",
"379 277 CURVE SMOOTH",
"459 277 OFFCURVE",
"515 334 OFFCURVE",
"515 407 CURVE SMOOTH",
"515 479 OFFCURVE",
"468 546 OFFCURVE",
"361 546 CURVE SMOOTH"
);
}
);
width = 567;
},
{
layerId = "A41B5407-ACAD-4F97-B91E-44FCF58F9670";
name = Bold;
paths = (
{
closed = 1;
nodes = (
"-180 576 LINE",
"-180 464 LINE",
"349 464 LINE SMOOTH",
"409 464 OFFCURVE",
"432 449 OFFCURVE",
"432 419 CURVE SMOOTH",
"432 395 OFFCURVE",
"415 379 OFFCURVE",
"385 379 CURVE SMOOTH",
"336 379 OFFCURVE",
"307 421 OFFCURVE",
"307 479 CURVE SMOOTH",
"307 556 OFFCURVE",
"346 619 OFFCURVE",
"445 619 CURVE SMOOTH",
"471 619 OFFCURVE",
"499 614 OFFCURVE",
"529 603 CURVE",
"529 717 LINE",
"501 725 OFFCURVE",
"472 729 OFFCURVE",
"444 729 CURVE SMOOTH",
"300 729 OFFCURVE",
"199 624 OFFCURVE",
"199 480 CURVE SMOOTH",
"199 357 OFFCURVE",
"272 270 OFFCURVE",
"388 270 CURVE SMOOTH",
"485 270 OFFCURVE",
"552 332 OFFCURVE",
"552 423 CURVE SMOOTH",
"552 510 OFFCURVE",
"497 576 OFFCURVE",
"371 576 CURVE SMOOTH"
);
}
);
width = 572;
}
);
unicode = 0CCD;
},
